<svg width="1507" height="454" viewBox="0 0 1507 454" fill="none" xmlns="http://www.w3.org/2000/svg">
<path d="M919.346 199.374C916.498 187.966 906.08 185.863 898.406 185.863C886.802 185.881 877.399 192.22 877.419 203.781L877.487 218.156V290.658C877.487 291.082 877.554 291.505 877.652 291.895V294.099C877.673 304.762 886.496 317.441 896.847 318.289C897.712 318.357 898.592 318.357 899.493 318.322C911.014 317.848 919.449 305.575 919.418 294.014L919.299 264.027V239.786C919.501 238.396 919.62 237.04 919.62 235.751L919.299 215.545V210.206C919.299 210.037 919.263 209.867 919.247 209.697C919.366 206.188 920.096 202.272 919.366 199.374H919.346ZM1068.34 199.204C1065.56 187.796 1055.39 185.694 1047.9 185.711C1038.92 185.728 1031.31 189.745 1028.54 197.153C1027.49 199.882 1023.51 201.018 1021.03 198.967C1012.46 191.915 1001.87 187.491 990.077 187.491C961.567 187.253 934.501 211.697 934.501 247.991C934.501 284.284 961.805 307.304 990.077 307.304C1001.31 307.304 1011.68 303.168 1020.21 296.421C1022.67 294.472 1026.66 296.099 1026.66 299.235C1026.66 320.357 1015.5 325.798 996.016 325.798C995.389 325.798 994.825 325.815 994.317 325.866C985.919 324.951 975.993 323.205 975.993 323.205C960.718 321.866 950.947 328.036 949.145 336.935H949.165C949.01 337.681 948.907 338.444 948.839 339.224C948.078 349.259 964.182 355.836 971.343 358.294C978.504 360.752 991.211 363.498 1000.6 362.515C1001.04 362.464 1001.4 362.396 1001.7 362.312C1049.18 361.176 1068.46 340.699 1068.46 297.591C1068.46 284.301 1068.68 238.498 1068.69 205.764C1068.69 205.103 1068.66 204.425 1068.61 203.747C1068.69 202.103 1068.68 200.543 1068.35 199.188L1068.34 199.204ZM1002.65 271.502C989.585 271.502 978.654 261.535 978.654 248.008C978.654 234.481 989.347 223.801 1002.65 223.801C1015.96 223.801 1027.12 234.481 1027.12 248.008C1027.12 261.535 1015.72 271.502 1002.65 271.502ZM719.994 261.298V232.819C719.994 205.527 703.362 188.932 679.864 188.932C664.998 188.932 654.953 195.712 648.688 202.781C645.84 206.019 639.73 205.764 637.032 202.425C630.006 193.746 619.588 188.932 607.658 188.932C596.492 188.932 587.821 193.509 581.559 199.103C578.845 201.527 573.55 200.17 572.464 196.95C572.43 196.848 572.277 196.645 572.04 196.407C571.327 194.898 570.377 193.559 569.257 192.356C569.172 192.152 569.053 192 568.85 191.915C564.981 188.033 559.126 185.881 552.576 185.881C540.969 185.897 531.568 192.237 531.585 203.798L531.636 215.732V261.264C531.636 261.62 531.585 261.959 531.585 262.315L531.636 274.248V274.859C531.636 274.859 531.636 274.876 531.636 274.893L531.721 294.387C531.721 305.05 540.63 317.729 551.032 318.594C551.897 318.662 552.797 318.662 553.696 318.628C565.286 318.153 573.788 305.88 573.754 294.319L573.669 273.113V243.55C573.669 233.345 579.608 225.988 589.586 225.988C599.089 225.988 604.553 231.921 604.553 245.685V262.196C604.553 262.196 604.553 262.264 604.553 262.315V263.586V274.859C604.553 275.028 604.587 275.198 604.604 275.367L604.688 294.37C604.688 305.033 613.597 317.712 624.015 318.577C624.879 318.645 625.78 318.645 626.681 318.611C638.27 318.136 646.772 305.863 646.736 294.302L646.601 262.976V245.702C646.601 230.989 654.44 226.005 662.756 226.005C672.258 226.005 677.726 231.938 677.726 245.702V261.145C677.705 261.535 677.674 261.925 677.674 262.315L677.809 294.37C677.809 305.033 686.787 317.729 697.288 318.577C698.174 318.645 699.069 318.645 699.97 318.611C711.662 318.136 720.216 305.863 720.18 294.302L720.045 262.247C720.045 261.942 720.009 261.654 719.994 261.349V261.298ZM1215.61 284.911C1218.16 293.268 1207.59 300.659 1202.12 304.134C1197.29 307.202 1187.56 312.949 1179.88 314.915C1172.9 317.204 1165.11 318.628 1156.37 318.628C1108.64 318.628 1081.56 291.251 1081.56 252.483C1081.56 213.715 1108.87 186.338 1149.49 186.338C1186.07 186.338 1213.85 214.19 1213.85 252.958V259.636C1213.85 262.501 1211.57 264.823 1208.76 264.823H1131.06C1127.75 264.823 1125.28 268.044 1126.8 271.045C1131.89 281.182 1142.53 285.657 1157.56 285.657C1160.48 285.657 1163.23 285.793 1165.83 285.945C1174.21 285.589 1185.88 278.843 1190.08 276.622C1202.48 272.52 1211.76 275.859 1214.94 283.029C1215.2 283.623 1215.44 284.267 1215.63 284.911H1215.61ZM1123.49 239.38H1164.28C1167.66 239.38 1170.12 236.057 1168.56 233.005C1164.4 224.903 1157.17 220.478 1147.01 220.478C1134.43 220.478 1126.81 227.259 1123.49 239.362V239.38ZM897.593 130.703C884.581 130.72 874.038 139.264 874.059 149.774L874.209 151.181C874.209 160.877 884.187 176.574 895.863 177.337C896.832 177.388 897.847 177.405 898.851 177.371C911.848 176.93 921.365 161.623 921.349 151.113L921.199 149.706C921.163 139.196 910.61 130.703 897.593 130.703ZM1449.94 208.188C1449.6 200.34 1440.06 194.187 1430.97 191.966L1431 191.762C1428.19 191.762 1425.91 189.491 1425.91 186.677V158.419C1425.91 158.419 1425.9 158.3 1425.9 158.232C1425.93 157.893 1425.96 157.537 1425.96 157.181C1425.96 148.79 1416.54 141.976 1404.94 141.976C1393.33 141.976 1383.91 148.79 1383.91 157.181C1383.91 157.232 1383.91 157.3 1383.91 157.351C1383.86 157.622 1383.85 157.893 1383.85 158.165V186.677C1383.85 189.491 1381.57 191.762 1378.76 191.762V191.881C1369.69 193.932 1359.11 200.357 1358.48 207.68H1358.49C1358.43 208.426 1358.41 209.189 1358.44 209.952C1358.8 218.173 1369.29 224.564 1378.76 226.462V226.886C1381.57 226.886 1383.85 229.157 1383.85 231.971V258.925C1383.69 259.925 1383.59 260.958 1383.59 262.01L1383.73 294.065C1383.73 304.727 1392.68 317.424 1403.15 318.272C1404.02 318.34 1404.94 318.34 1405.84 318.305C1417.5 317.831 1426.03 305.558 1426.02 293.997L1425.88 263.569V226.869C1435.45 226.005 1449.15 218.8 1449.87 210.443H1449.85C1449.92 209.697 1449.94 208.934 1449.91 208.172L1449.94 208.188ZM421.574 127.72C365.983 127.72 323 169.472 323 221.682C323 273.893 366.475 316.119 421.574 316.119C476.673 316.119 519.911 273.893 519.911 221.682C519.911 169.708 477.148 127.72 421.574 127.72ZM421.574 273.875C391.641 273.875 369.309 250.855 369.309 221.902C369.309 192.949 392.116 169.929 421.574 169.929C451.033 169.929 473.585 192.949 473.585 221.902C473.585 250.855 451.491 273.875 421.574 273.875ZM858.955 232.836C858.955 205.561 840.185 188.948 816.92 188.948C803.701 188.948 793.303 193.644 785.92 199.289C783.745 200.95 780.472 200.34 778.81 198.475C778.52 198.052 778.251 197.611 777.977 197.153C777.977 197.153 777.977 197.153 777.977 197.136C774.973 192.102 772.276 185.914 758.818 185.881C747.214 185.897 737.811 192.237 737.827 203.798V207.07V274.842C737.827 275.096 737.863 275.334 737.899 275.571L737.982 294.336C737.982 304.999 746.924 317.696 757.379 318.543C758.243 318.611 759.144 318.611 760.04 318.577C771.68 318.102 780.203 305.829 780.167 294.268L780.084 274.842C780.084 274.842 780.084 274.825 780.084 274.808V243.498C780.084 233.294 789.347 226.174 798.849 226.174C809.303 226.174 816.905 231.633 816.905 245.634V274.808C816.905 275.011 816.941 275.215 816.972 275.418L817.06 294.319C817.06 304.982 825.95 317.661 836.353 318.526C837.218 318.594 838.119 318.594 839.015 318.56C850.587 318.085 859.074 305.813 859.058 294.251L858.97 273.604V232.819L858.955 232.836ZM1351.21 232.836C1351.21 205.561 1332.44 188.948 1309.18 188.948C1295.96 188.948 1285.56 193.644 1278.18 199.289C1275.18 201.594 1270 199.594 1270 195.797C1270 195.339 1269.22 193.78 1268.08 192.746C1264.25 188.372 1258.07 185.881 1251.06 185.881C1239.45 185.897 1230.05 192.237 1230.07 203.798V207.07V274.842C1230.07 275.096 1230.11 275.334 1230.14 275.571L1230.23 294.336C1230.23 304.999 1239.17 317.696 1249.62 318.543C1250.48 318.611 1251.38 318.611 1252.28 318.577C1263.92 318.102 1272.44 305.829 1272.41 294.268L1272.32 274.842C1272.32 274.842 1272.32 274.825 1272.32 274.808V243.498C1272.32 233.294 1281.59 226.174 1291.09 226.174C1301.55 226.174 1309.15 231.633 1309.15 245.634V274.808C1309.15 275.011 1309.18 275.215 1309.22 275.418L1309.3 294.319C1309.3 304.982 1318.19 317.661 1328.59 318.526C1329.46 318.594 1330.36 318.594 1331.26 318.56C1342.83 318.085 1351.32 305.813 1351.3 294.251L1351.21 273.604V232.819V232.836Z" fill="black"/>
<path d="M102.86 184.974C109.077 164.092 121.584 148.531 140.805 138.137C160.77 127.162 184.303 124.744 206.069 131.43C226.186 137.483 242.631 150.064 252.631 168.723C255.27 173.581 257.322 178.737 258.746 184.082C265.362 188.907 269.982 198.844 271.166 206.852C272.501 215.888 270.818 225.666 266.389 233.683C265.081 236.052 262.925 238.217 262.439 240.47L262.538 240.729C263.116 242.213 264.023 243.967 264.624 245.515C265.984 249.016 268.456 258.434 268.425 261.914C268.649 262.552 268.719 262.573 269.244 263.04C275.245 267.767 277.593 274.723 272.752 281.25C271.757 280.528 270.596 280.213 269.522 279.653C267.323 278.5 265.057 277.65 262.77 276.697C262.013 276.446 261.637 276.324 260.912 275.965C258.994 275.445 256.823 274.64 254.88 274.049C252.026 273.199 249.149 272.422 246.257 271.718L246.067 271.639C245.492 271.535 244.918 271.435 244.342 271.339L244.051 271.304C243.879 271.806 243.523 272.7 243.059 272.946C236.835 271.857 232.828 271.326 226.477 271.062C225.852 270.939 225.496 270.989 225.122 270.597C225.016 270.071 224.902 269.671 224.753 269.156C223.989 269.175 223.621 269.196 222.858 269.078C222.813 268.847 222.701 268.559 222.624 268.329C218.735 269.523 214.815 270.614 210.868 271.599C210.059 271.809 207.394 272.539 206.745 272.567C206.545 272.703 206.351 272.795 206.23 272.971L205.569 275.07L205.464 275.476C202.936 282.769 200.655 288.359 193.265 291.959C192.5 292.269 191.75 292.604 190.952 292.806C184.475 294.845 178.307 294.777 171.772 293.059C170.926 292.753 170.082 292.442 169.24 292.125C163.101 289.25 159.861 284.643 157.773 278.278C157.56 277.402 157.035 275.927 156.756 274.943L156.32 272.94L156.201 272.858C151.538 271.674 146.876 270.342 142.284 269.191L137.154 267.587C133.594 266.559 129.855 265.178 126.402 263.837C124.564 263.123 122.792 262.267 120.929 261.562C120.417 261.276 119.933 261.071 119.4 260.835C113.385 257.731 109.582 255.515 104.904 250.433L103.662 248.968C101.806 246.289 100.29 243.387 99.1492 240.331C98.731 238.705 97.1249 236.991 96.1724 235.53C95.3846 234.306 94.6737 233.034 94.0438 231.72C86.7529 216.537 89.6477 195.992 102.86 184.974Z" fill="#FD74B8"/>
<path d="M156.32 272.94C164.011 274.784 171.24 276.186 179.159 276.369C187.754 276.567 195.791 275.289 204.111 273.249C204.633 273.122 205.752 272.763 206.23 272.971L205.57 275.07L205.465 275.476C202.937 282.769 200.655 288.359 193.266 291.959C192.5 292.269 191.75 292.604 190.952 292.806C184.476 294.846 178.307 294.777 171.772 293.06C170.927 292.754 170.083 292.442 169.24 292.126C163.101 289.25 159.861 284.643 157.773 278.278C157.561 277.403 157.036 275.927 156.757 274.943L156.32 272.94Z" fill="#FD7FBC"/>
<path d="M258.097 248.829C259.679 246.768 261.497 242.954 262.439 240.47L262.538 240.729C263.116 242.213 264.023 243.967 264.624 245.515C265.984 249.016 268.456 258.434 268.425 261.914C268.649 262.552 268.719 262.573 269.244 263.04C275.245 267.767 277.593 274.723 272.752 281.25C271.757 280.528 270.596 280.213 269.522 279.652C267.323 278.5 265.057 277.65 262.77 276.697C262.013 276.446 261.637 276.323 260.912 275.965C258.994 275.445 256.823 274.64 254.88 274.048C252.026 273.199 249.149 272.422 246.257 271.718L246.067 271.639C245.492 271.535 244.918 271.435 244.342 271.339C244.346 271.328 244.346 271.317 244.352 271.306C244.461 271.084 244.604 270.87 244.687 270.636C244.95 269.903 241.914 263.356 241.357 262.245C241.006 262.136 240.082 262.272 239.5 262.245L239.352 262.236C239.796 262.086 241.808 261.085 242.454 260.804C248.274 258.064 252.706 255.004 257.009 250.204C257.367 249.742 257.731 249.284 258.097 248.829Z" fill="#F13692"/>
<path d="M257.009 250.204C258.127 250.706 259.806 251.187 261.017 251.53C261.95 253.596 262.856 255.998 263.676 258.135C262.055 261.434 260.009 266.183 258.639 269.616C254.578 269.601 250.518 269.632 246.458 269.705C245.7 268.02 243.178 261.969 242.454 260.804C248.274 258.064 252.706 255.004 257.009 250.204Z" fill="#D60572"/>
<path d="M268.426 261.914C268.649 262.552 268.719 262.573 269.244 263.04C275.245 267.767 277.593 274.724 272.752 281.25C271.757 280.528 270.596 280.213 269.523 279.653C267.323 278.501 265.058 277.65 262.77 276.697C262.013 276.447 261.637 276.324 260.912 275.965L261.017 275.747C261.431 275.444 261.91 275.041 262.318 274.715C265.333 272.204 267.021 269.833 267.517 265.889L267.558 264.712C267.74 263.661 267.314 262.713 267.972 261.926L268.426 261.914Z" fill="#D60572"/>
<path d="M268.426 261.914C268.649 262.552 268.719 262.573 269.244 263.04C270.138 269.123 267.216 273.085 262.77 276.697C262.013 276.447 261.637 276.324 260.912 275.965L261.017 275.747C261.431 275.444 261.91 275.041 262.318 274.715C265.333 272.204 267.021 269.833 267.517 265.889L267.558 264.712C267.74 263.661 267.314 262.713 267.972 261.926L268.426 261.914Z" fill="#F13692"/>
<path d="M258.097 248.829C259.679 246.768 261.497 242.954 262.439 240.47L262.538 240.729C263.116 242.213 264.023 243.967 264.624 245.515C265.984 249.016 268.456 258.434 268.425 261.914L267.972 261.925C267.314 262.713 267.74 263.66 267.558 264.711C267.511 261.486 263.796 255.076 262.795 251.6C262.249 249.704 259.882 249.507 258.097 248.829Z" fill="#D60572"/>
<path d="M264.559 260.213C265.272 261.752 266.513 264.684 267.517 265.889C267.021 269.833 265.333 272.204 262.318 274.715C261.577 273.507 260.734 271.734 260.072 270.44L264.559 260.213Z" fill="#D60572"/>
<path d="M246.067 271.639C246.482 271.21 246.518 271.258 247.259 271.245C251.044 271.179 254.926 271.336 258.701 271.235C259.257 272.273 260.499 274.965 261.017 275.747L260.912 275.965C258.994 275.445 256.823 274.64 254.881 274.049C252.026 273.2 249.15 272.422 246.257 271.718L246.067 271.639Z" fill="#D60572"/>
<path d="M239.352 262.236L239.501 262.245C240.083 262.272 241.006 262.136 241.357 262.245C241.915 263.356 244.95 269.903 244.688 270.636C244.604 270.87 244.462 271.084 244.352 271.307C244.346 271.317 244.346 271.329 244.342 271.339L244.052 271.304C243.88 271.806 243.524 272.7 243.06 272.946C236.836 271.857 232.829 271.326 226.478 271.062C225.852 270.939 225.496 270.989 225.123 270.597C225.016 270.071 224.902 269.671 224.754 269.156C223.989 269.175 223.622 269.196 222.859 269.078C222.814 268.847 222.701 268.559 222.624 268.329C222.927 268.276 224.221 267.837 224.587 267.721C229.405 266.259 234.737 264.18 239.352 262.236Z" fill="#D60572"/>
<path d="M224.753 269.156C230.426 269.171 238.513 269.904 244.051 271.304C243.879 271.806 243.523 272.7 243.06 272.946C236.835 271.857 232.829 271.326 226.478 271.062C225.852 270.939 225.496 270.989 225.122 270.597C225.016 270.071 224.902 269.672 224.753 269.156Z" fill="#F13692"/>
<path d="M222.624 268.329C222.927 268.276 224.221 267.837 224.587 267.721C224.599 268.446 224.722 268.459 224.398 268.948C223.759 269.11 223.474 269.002 222.859 269.078C222.814 268.847 222.701 268.559 222.624 268.329Z" fill="#F13692"/>
<path d="M122.96 187.424C137.835 186.441 150.672 197.782 151.586 212.716C152.501 227.649 141.144 240.483 126.26 241.334C111.47 242.181 98.7794 230.869 97.8708 216.028C96.9624 201.187 108.177 188.401 122.96 187.424Z" fill="#FEFEFE"/>
<path d="M125.069 193.214C136.717 193.374 146.031 202.978 145.876 214.668C145.721 226.358 136.155 235.709 124.507 235.557C112.854 235.405 103.532 225.799 103.687 214.104C103.842 202.408 113.416 193.055 125.069 193.214Z" fill="black"/>
<path d="M115.697 200.452C119.27 199.994 122.544 202.508 123.038 206.088C123.533 209.669 121.064 212.982 117.502 213.517C115.163 213.868 112.817 212.931 111.358 211.064C109.899 209.196 109.552 206.685 110.45 204.49C111.348 202.294 113.352 200.752 115.697 200.452Z" fill="#FEFEFE"/>
<path d="M234.875 187.579C249.657 186.267 262.699 197.23 264.005 212.066C265.309 226.901 254.382 239.989 239.6 241.296C224.824 242.601 211.788 231.639 210.484 216.808C209.178 201.977 220.099 188.892 234.875 187.579Z" fill="#FEFEFE"/>
<path d="M236.755 193.267C248.382 193.03 258.006 202.285 258.267 213.955C258.528 225.624 249.327 235.303 237.7 235.589C226.038 235.876 216.359 226.608 216.098 214.903C215.837 203.199 225.092 193.504 236.755 193.267Z" fill="black"/>
<path d="M227.998 200.504C231.583 200.008 234.894 202.518 235.397 206.116C235.901 209.714 233.406 213.042 229.823 213.556C226.227 214.072 222.897 211.559 222.392 207.948C221.887 204.338 224.399 201.002 227.998 200.504Z" fill="#FEFEFE"/>
<path d="M179.728 134.125C183.542 133.78 188.318 134.813 191.266 137.303C196.459 141.689 194.072 147.806 188.439 150.1C186.235 150.997 184.737 151.388 182.342 151.538C178.794 151.958 174.194 150.816 171.317 148.684C167.929 146.172 166.917 141.903 169.778 138.535C172.325 135.536 175.967 134.491 179.728 134.125Z" fill="#F13692"/>
<path d="M164.288 153.421C168.685 153.097 174.631 154.296 175.689 159.445C175.999 160.98 175.674 162.576 174.79 163.866C173.334 166.017 170.775 167.039 168.341 167.553C156.236 169.395 151.133 156.335 164.288 153.421Z" fill="#F13692"/>
<path d="M193.584 153.429C197.811 152.928 203.466 154.469 204.687 159.129C205.079 160.637 204.834 162.241 204.009 163.561C202.563 165.919 200.061 166.965 197.5 167.547C194.475 167.988 191.76 167.693 189.098 166.054C185.977 164.13 184.725 160.392 186.891 157.218C188.44 154.947 190.962 153.907 193.584 153.429Z" fill="#F13692"/>
<path d="M168.321 230.392C170.953 230.077 171.043 231.764 171.883 233.82C174.86 241.107 186.064 241.11 189.651 234.359C190.302 233.134 190.237 231.519 191.482 230.729C192.736 229.855 193.858 230.018 194.564 231.444C195.279 232.953 194.748 234.202 194.195 235.659C193.077 238.069 191.508 240.014 189.318 241.518C185.942 243.789 181.799 244.604 177.818 243.781C174.109 243.067 170.833 240.908 168.709 237.773C167.85 236.48 166.438 233.691 166.811 232.096C167.019 231.21 167.603 230.832 168.321 230.392Z" fill="black"/>
<path d="M242.249 244.51C252.94 244.364 255.33 254 243.642 255.225C241.13 255.452 238.194 254.919 236.143 253.329C234.127 251.766 233.552 249.052 235.387 247.071C237.238 245.071 239.67 244.704 242.249 244.51Z" fill="#FC95C7"/>
<path d="M118.333 244.509C129.16 244.4 130.498 254.708 118.75 255.203C107.078 254.876 106.761 245.201 118.333 244.509Z" fill="#FC95C7"/>
<path d="M154.768 139.832C163.389 138.854 166.658 148.858 156.55 150.906C153.178 151.068 148.765 150.143 148.178 146.123C147.992 144.853 148.33 143.562 149.115 142.548C150.503 140.738 152.623 140.095 154.768 139.832Z" fill="#F13692"/>
<path d="M206.205 139.829C209.381 139.448 213.618 141.172 214.212 144.664C214.416 145.929 214.103 147.223 213.343 148.253C212.085 149.981 210.188 150.584 208.198 150.908C204.75 151.071 200.273 150.051 199.658 145.973C199.466 144.707 199.817 143.419 200.622 142.426C202.003 140.688 204.108 140.068 206.205 139.829Z" fill="#F13692"/>
<path d="M180.134 169.687C189.131 169.239 190.417 179 181.516 179.974C173.091 180.696 171.109 170.965 180.134 169.687Z" fill="#F13692"/>
<path d="M220.195 151.382C227.019 150.897 229.134 158.45 221.679 159.983C219.083 160.039 215.93 159.398 215.426 156.319C215.251 155.255 215.529 154.166 216.194 153.317C217.204 152.025 218.652 151.581 220.195 151.382Z" fill="#F13692"/>
<path d="M140.865 151.395C143.284 151.152 146.153 152.232 146.679 154.879C146.874 155.887 146.652 156.932 146.063 157.772C145.048 159.251 143.651 159.65 142.026 159.977C139.403 160.047 136.219 159.221 135.88 156.107C135.775 155.09 136.08 154.073 136.729 153.285C137.797 151.968 139.27 151.561 140.865 151.395Z" fill="#F13692"/>
<path d="M99.1495 240.331C100.29 243.388 101.806 246.289 103.662 248.968L104.904 250.434C109.582 255.515 113.385 257.731 119.4 260.835C119.933 261.071 120.417 261.276 120.929 261.563C122.793 262.267 124.564 263.123 126.402 263.838C129.856 265.179 133.594 266.559 137.155 267.587L142.284 269.191C146.876 270.342 151.538 271.674 156.201 272.859C155.964 273.511 156.039 274.219 155.727 274.727C154.482 274.855 149.519 273.276 147.626 272.961C147.726 278.853 145.609 283.412 142.706 288.529C142.232 288.164 141.589 287.634 141.108 287.314L140.223 288.701C138.657 290.726 137.517 292.177 135.763 294.049L134.496 295.357L131.294 298.118C129.543 299.513 127.769 300.879 125.972 302.214C118.438 307.379 110.462 312.41 102.038 316.356C91.328 321.182 76.9071 327.097 65.119 323.598C58.2738 321.247 58.0409 314.438 60.2261 308.769C65.3989 295.354 77.2019 287.912 89.5777 282.178C89.3007 281.859 89.0012 281.448 88.7394 281.106C84.4552 274.606 86.0588 267.566 92.3172 263.057C93.0945 262.321 93.191 262.257 93.3016 261.205C93.8909 255.931 95.5386 249.672 97.2639 244.658C97.7037 243.38 98.5879 241.829 99.0996 240.467L99.1495 240.331Z" fill="#FD74B8"/>
<path d="M99.1496 240.331C100.291 243.388 101.806 246.289 103.662 248.968L104.904 250.434C109.582 255.515 113.385 257.731 119.4 260.835C119.933 261.071 120.417 261.276 120.929 261.563L120.869 261.716C120.267 263.242 116.685 269.833 117.173 271.078C117.198 271.141 117.23 271.203 117.258 271.264C116.949 271.323 116.023 271.519 115.762 271.52L114.335 271.903C113.975 272.967 114.265 272.999 114.14 273.781C110.015 274.896 106.619 275.794 102.574 277.186L100.663 277.88C100.071 277.231 99.7571 276.933 98.9222 276.693C97.8658 277.092 96.6436 277.545 95.6319 278.026C94.4367 278.511 89.5347 280.493 88.7394 281.106C84.4552 274.606 86.0589 267.566 92.3172 263.057C93.0945 262.321 93.1911 262.257 93.3017 261.205C93.891 255.931 95.5387 249.672 97.264 244.658C97.7037 243.38 98.588 241.829 99.0997 240.467L99.1496 240.331Z" fill="#F13692"/>
<path d="M104.904 250.434C109.582 255.515 113.385 257.731 119.4 260.835C118.076 263.788 116.725 266.729 115.349 269.658C111.106 269.622 106.864 269.608 102.621 269.617C101.26 266.659 98.9998 261.235 97.9199 258.146C98.5312 256.067 99.5217 253.58 100.359 251.583C101.386 251.403 103.79 250.709 104.904 250.434Z" fill="#D60572"/>
<path d="M93.3017 261.205L93.3861 261.861C93.7781 262.094 93.7461 262.031 94.24 262.082C93.9442 263.042 94.0822 265.117 94.1248 266.187C94.8691 270.094 95.9747 271.927 99.0453 274.52C99.5632 274.985 99.9724 275.329 100.524 275.752L101.057 275.872C101.721 276.294 102.116 276.533 102.574 277.186L100.663 277.88C100.071 277.231 99.7571 276.932 98.9222 276.692C97.8658 277.092 96.6436 277.544 95.6319 278.026C94.4367 278.51 89.5347 280.493 88.7394 281.106C84.4552 274.606 86.0589 267.566 92.3172 263.057C93.0945 262.321 93.1911 262.256 93.3017 261.205Z" fill="#D60572"/>
<path d="M93.3018 261.205L93.3863 261.861C93.7782 262.094 93.7463 262.031 94.2402 262.082C93.9444 263.042 94.0824 265.117 94.1249 266.187C94.8693 270.094 95.9748 271.927 99.0454 274.52C99.5634 274.985 99.9725 275.329 100.524 275.752L101.057 275.872C101.721 276.294 102.116 276.533 102.574 277.186L100.664 277.88C100.071 277.231 99.7572 276.932 98.9223 276.692C93.4665 273.059 92.3171 269.288 92.3174 263.057C93.0947 262.321 93.1913 262.256 93.3018 261.205Z" fill="#F13692"/>
<path d="M99.1496 240.331C100.291 243.388 101.806 246.289 103.662 248.968C102.426 249.295 100.176 249.825 99.0477 250.223C97.9166 252.858 95.5526 260.093 94.2401 262.082C93.7462 262.031 93.7782 262.094 93.3862 261.861L93.3018 261.205C93.8911 255.931 95.5387 249.672 97.264 244.658C97.7038 243.38 98.5881 241.829 99.0998 240.467L99.1496 240.331Z" fill="#D60572"/>
<path d="M102.597 271.26C104.464 271.245 114.688 271.103 115.762 271.52L114.335 271.902C113.975 272.967 114.265 272.999 114.14 273.781C110.015 274.896 106.619 275.793 102.574 277.186C102.116 276.533 101.721 276.294 101.057 275.873L100.524 275.752C100.912 274.441 101.95 272.52 102.597 271.26Z" fill="#D60572"/>
<path d="M101.057 275.873C104.054 274.731 111.26 272.542 114.335 271.902C113.975 272.967 114.265 272.999 114.14 273.781C110.015 274.896 106.619 275.794 102.574 277.186C102.116 276.533 101.721 276.294 101.057 275.873Z" fill="#F13692"/>
<path d="M96.9028 260.564C97.64 261.898 100.563 268.947 101.054 270.374C100.547 271.533 99.7227 273.535 99.045 274.52C95.9744 271.927 94.8689 270.094 94.1245 266.187C95.2688 264.588 95.8676 262.382 96.9028 260.564Z" fill="#D60572"/>
<path d="M120.929 261.562C122.793 262.267 124.564 263.123 126.402 263.837C129.855 265.178 133.594 266.559 137.154 267.587L142.284 269.191C146.876 270.342 151.538 271.674 156.201 272.858C155.964 273.511 156.039 274.218 155.727 274.726C154.482 274.855 149.519 273.276 147.626 272.961C147.726 278.853 145.609 283.412 142.706 288.529C142.232 288.164 141.589 287.634 141.108 287.313C142.988 283.86 144.789 280.304 145.545 276.406C145.872 274.718 145.819 273.627 144.888 272.17C141.222 269.903 127.538 271.365 123.106 272.036C120.099 272.519 117.109 273.101 114.14 273.781C114.265 272.999 113.975 272.967 114.335 271.902L115.761 271.52C116.023 271.519 116.949 271.323 117.258 271.264C117.23 271.203 117.198 271.141 117.173 271.078C116.684 269.832 120.267 263.242 120.869 261.716L120.929 261.562Z" fill="#F13692"/>
<path d="M120.929 261.562C122.793 262.267 124.564 263.123 126.402 263.837C129.855 265.178 133.594 266.559 137.154 267.587C137.379 268.247 137.508 268.27 137.384 268.843C136.658 269.36 135.211 268.939 133.863 269.16C129.344 269.288 125.136 269.635 120.693 270.55C119.73 270.747 118.169 270.982 117.258 271.264C117.23 271.203 117.198 271.141 117.173 271.078C116.684 269.832 120.267 263.242 120.869 261.716L120.929 261.562Z" fill="#D60572"/>
<path d="M137.155 267.586L142.284 269.191C141.302 269.254 139.974 269.135 138.951 269.148C137.256 269.17 135.558 269.184 133.863 269.16C135.211 268.939 136.659 269.359 137.384 268.842C137.508 268.27 137.379 268.247 137.155 267.586Z" fill="#F13692"/>
<path d="M88.7393 281.107C89.5345 280.493 94.4365 278.511 95.6317 278.026C96.0375 279.288 95.4858 279.069 95.7299 279.681C94.1811 280.389 91.1793 281.639 89.5775 282.178C89.3005 281.859 89.0011 281.448 88.7393 281.107Z" fill="#F13692"/>
<path d="M98.9221 276.692C99.7571 276.932 100.071 277.231 100.663 277.88C99.0973 278.44 97.2749 279.184 95.73 279.68C95.486 279.068 96.0376 279.288 95.6318 278.026C96.6436 277.544 97.8658 277.092 98.9221 276.692Z" fill="#F13692"/>
<path d="M85.6226 289.63C88.8113 289.101 91.8325 291.237 92.4106 294.428C92.9886 297.62 90.9099 300.687 87.7401 301.319C85.6429 301.738 83.4839 300.988 82.0919 299.359C80.6999 297.731 80.2913 295.475 81.023 293.458C81.7547 291.442 83.5129 289.978 85.6226 289.63Z" fill="#F13692"/>
<path d="M86.6473 303.799C89.5272 303.216 92.3267 305.103 92.8805 307.999C93.4342 310.895 91.5295 313.688 88.6399 314.218C85.786 314.741 83.0453 312.858 82.4985 309.999C81.9518 307.14 83.8034 304.373 86.6473 303.799Z" fill="#F13692"/>
<path d="M73.8733 298.013C76.6892 297.41 79.4596 299.209 80.0661 302.035C80.6726 304.859 78.8861 307.643 76.0729 308.258C73.2511 308.874 70.4669 307.075 69.8585 304.241C69.2502 301.408 71.049 298.618 73.8733 298.013Z" fill="#F13692"/>
<path d="M66.7347 308.713C69.1627 308.062 71.6566 309.513 72.3015 311.95C72.9465 314.388 71.4976 316.89 69.0673 317.532C66.6428 318.174 64.1585 316.724 63.5151 314.291C62.8717 311.859 64.3123 309.363 66.7347 308.713Z" fill="#F13692"/>
<path d="M97.4356 299.151C99.7607 298.839 101.896 300.481 102.2 302.817C102.505 305.15 100.863 307.289 98.5361 307.589C96.2178 307.888 94.0961 306.247 93.7927 303.92C93.4894 301.594 95.1189 299.461 97.4356 299.151Z" fill="#F13692"/>
<path d="M97.0412 288.868C98.8969 288.422 100.763 289.566 101.212 291.428C101.661 293.289 100.524 295.164 98.6706 295.62C96.8114 296.075 94.9363 294.93 94.4858 293.064C94.0352 291.196 95.1801 289.317 97.0412 288.868Z" fill="#F13692"/>
<path d="M77.3559 311.423C79.0955 311.141 80.7317 312.334 81.0008 314.082C81.2699 315.83 80.0689 317.462 78.3253 317.72C76.6002 317.974 74.9935 316.784 74.7271 315.054C74.4608 313.325 75.6346 311.703 77.3559 311.423Z" fill="#F13692"/>
<path d="M226.477 271.062C232.828 271.326 236.835 271.857 243.059 272.946L245.033 273.378C245.455 272.655 245.621 272.074 246.257 271.718C249.149 272.422 252.026 273.199 254.88 274.049C256.823 274.64 258.994 275.445 260.912 275.965C261.637 276.324 262.013 276.447 262.77 276.697C265.057 277.65 267.323 278.5 269.522 279.653C270.596 280.213 271.757 280.528 272.752 281.25L272.06 282.261C274.93 283.342 278.308 285.129 280.986 286.624C289.44 291.342 296.981 297.251 300.98 306.4C302.571 310.043 303.79 314.129 302.377 318.078C301.527 320.459 299.587 322.276 297.299 323.248C288.761 326.877 274.437 322.126 266.214 318.971C255.198 314.744 245.412 308.816 235.921 302.044L234.612 302.94C234.022 302.345 232.429 301.266 231.647 300.65C229.917 299.296 228.282 297.826 226.75 296.249L227.334 295.677C227.793 295.57 227.744 295.535 228.127 295.211L226.864 293.884C225.296 292.166 224.141 290.689 222.774 288.834C222.494 288.511 222.071 287.761 221.83 287.366C219.825 284.311 217.651 279.079 217.2 275.47C216.553 270.266 223.026 271.09 226.477 271.062Z" fill="#FD74B8"/>
<path d="M245.033 273.378C245.455 272.655 245.621 272.074 246.257 271.718C249.15 272.422 252.026 273.199 254.881 274.048C256.823 274.64 258.994 275.445 260.912 275.965C261.637 276.323 262.013 276.446 262.77 276.697C265.058 277.65 267.323 278.5 269.523 279.652C270.596 280.213 271.757 280.528 272.752 281.25L272.061 282.261C271.487 282.151 269.648 281.358 269.027 281.112C266.942 280.288 264.883 279.415 262.773 278.638C256.984 276.49 251.057 274.734 245.033 273.378Z" fill="#F13692"/>
<path d="M228.127 295.211C230.884 297.828 232.991 299.63 235.921 302.044L234.613 302.94C234.022 302.345 232.429 301.266 231.647 300.65C229.917 299.296 228.282 297.826 226.75 296.249L227.334 295.677C227.793 295.57 227.744 295.535 228.127 295.211Z" fill="#F13692"/>
<path d="M274.377 289.599C277.609 289.161 280.589 291.421 281.051 294.661C281.515 297.902 279.288 300.911 276.063 301.403C272.8 301.9 269.759 299.633 269.29 296.353C268.822 293.074 271.106 290.041 274.377 289.599Z" fill="#F13692"/>
<path d="M273.363 303.76C276.25 303.296 278.965 305.265 279.43 308.16C279.897 311.056 277.936 313.782 275.053 314.253C272.163 314.723 269.443 312.754 268.976 309.854C268.509 306.955 270.475 304.225 273.363 303.76Z" fill="#F13692"/>
<path d="M285.726 298.029C287.551 297.618 289.455 298.226 290.711 299.616C291.967 301.009 292.378 302.97 291.79 304.752C291.201 306.535 289.703 307.86 287.868 308.224C285.08 308.776 282.369 306.977 281.784 304.187C281.197 301.398 282.954 298.653 285.726 298.029Z" fill="#F13692"/>
<path d="M292.864 308.718C294.452 308.293 296.144 308.765 297.289 309.949C298.433 311.135 298.849 312.848 298.375 314.429C297.902 316.008 296.614 317.207 295.01 317.563C292.6 318.097 290.208 316.601 289.623 314.195C289.039 311.789 290.479 309.356 292.864 308.718Z" fill="#F13692"/>
<path d="M263.322 299.145C265.646 298.851 267.768 300.502 268.063 302.836C268.357 305.168 266.71 307.299 264.387 307.595C262.062 307.891 259.938 306.238 259.643 303.905C259.35 301.571 260.997 299.44 263.322 299.145Z" fill="#F13692"/>
<path d="M263.142 288.867C265.004 288.488 266.821 289.689 267.205 291.556C267.59 293.423 266.397 295.25 264.538 295.642C262.671 296.036 260.841 294.832 260.455 292.957C260.069 291.082 261.274 289.249 263.142 288.867Z" fill="#F13692"/>
<path d="M283.281 311.429C284.401 311.163 285.578 311.522 286.36 312.369C287.143 313.215 287.412 314.42 287.063 315.521C286.713 316.622 285.8 317.449 284.674 317.686C282.963 318.045 281.284 316.959 280.903 315.247C280.521 313.536 281.581 311.835 283.281 311.429Z" fill="#F13692"/>
<path d="M156.201 272.858L156.32 272.94L156.756 274.943C157.035 275.927 157.56 277.403 157.773 278.278C159.861 284.643 163.101 289.25 169.24 292.126C170.082 292.442 170.926 292.754 171.772 293.06C178.307 294.777 184.476 294.846 190.952 292.806C192.805 293.673 195.364 294.952 197.24 295.68C197.585 299.46 198.073 303.618 198.318 307.364L199.875 306.856L199.983 306.86L201.049 306.559L201.376 306.733C201.454 307.21 201.521 307.791 201.673 308.235L200.398 308.68L200.22 308.878C200.376 310.601 202.681 314.301 202.493 316.251L201.26 316.509C189.724 319.564 172.578 319.528 161.019 316.543L159.59 316.172L159.632 315.755L159.582 315.48C159.337 315.287 152.628 313.448 151.672 313.127C145.573 311.095 139.656 308.55 133.985 305.516C133.49 306.096 133.507 306.248 132.868 306.455C130.831 305.314 129.258 304.391 127.312 303.111L125.972 302.214C127.769 300.878 129.543 299.513 131.294 298.117L134.496 295.356L135.763 294.049C137.517 292.177 138.657 290.726 140.223 288.701L141.108 287.313C141.589 287.634 142.232 288.164 142.706 288.529C145.609 283.412 147.726 278.853 147.626 272.961C149.519 273.276 154.482 274.855 155.727 274.726C156.039 274.218 155.964 273.511 156.201 272.858Z" fill="#D60572"/>
<path d="M156.201 272.858L156.32 272.94L156.756 274.943C157.035 275.927 157.56 277.403 157.773 278.278C159.861 284.643 163.101 289.25 169.24 292.126C170.082 292.442 170.926 292.754 171.772 293.06C169.772 293.875 167.781 294.661 165.809 295.545C165.706 296.678 164.936 307.027 164.654 307.302C164.635 307.32 164.611 307.335 164.589 307.351L163.177 306.988C158.225 305.726 151.194 302.79 146.658 300.452L145.046 299.662C142.815 298.459 139.356 296.639 137.342 295.165C136.81 294.802 136.283 294.43 135.763 294.049C137.517 292.177 138.657 290.726 140.223 288.701L141.108 287.313C141.589 287.634 142.232 288.164 142.706 288.529C145.609 283.412 147.726 278.853 147.626 272.961C149.519 273.276 154.482 274.855 155.727 274.726C156.039 274.218 155.964 273.511 156.201 272.858Z" fill="#D60572"/>
<path d="M156.201 272.858L156.32 272.94L156.756 274.943C156.09 275.556 155.954 274.643 155.948 275.716C155.928 279.001 155.81 282.286 155.67 285.568C152.653 287.423 149.647 289.296 146.652 291.187C145.285 290.256 144.008 289.394 142.597 288.524C142.269 288.955 141.986 289.315 141.699 289.774C143.079 290.662 144.444 291.569 145.796 292.499C145.574 294.889 145.324 297.277 145.046 299.662C142.815 298.459 139.356 296.639 137.342 295.165C136.81 294.802 136.283 294.43 135.763 294.049C137.517 292.177 138.657 290.726 140.223 288.701L141.108 287.313C141.589 287.634 142.232 288.164 142.706 288.529C145.609 283.412 147.726 278.853 147.626 272.961C149.519 273.276 154.482 274.855 155.727 274.726C156.039 274.218 155.964 273.511 156.201 272.858Z" fill="#D60572"/>
<path d="M140.223 288.701C140.704 289.041 141.231 289.371 141.718 289.7C140.878 291.097 138.528 293.9 137.342 295.165C136.81 294.801 136.283 294.43 135.763 294.049C137.517 292.177 138.657 290.726 140.223 288.701Z" fill="#F13692"/>
<path d="M156.756 274.943C157.035 275.927 157.56 277.403 157.773 278.278C159.861 284.643 163.101 289.25 169.24 292.126C170.082 292.442 170.926 292.754 171.772 293.06C169.772 293.875 167.781 294.661 165.809 295.545C165.706 296.678 164.936 307.027 164.654 307.302C164.635 307.32 164.611 307.335 164.589 307.351L163.177 306.988C163.308 304.099 163.823 298.09 164.245 295.335C161.596 292.622 158.979 289.877 156.394 287.101C153.73 288.84 150.198 290.861 147.419 292.473C147.161 295.216 146.786 297.683 146.658 300.453L145.047 299.662C145.324 297.277 145.574 294.89 145.796 292.499C144.445 291.569 141.602 289.592 140.222 288.705C140.509 288.245 140.783 287.753 141.112 287.322C142.523 288.192 145.285 290.256 146.653 291.187C149.647 289.296 152.653 287.423 155.67 285.569C155.811 282.286 155.928 279.001 155.948 275.716C155.952 275.128 156.066 272.858 156.213 272.885C156.321 272.885 156.756 274.943 156.756 274.943Z" fill="#F13692"/>
<path d="M157.773 278.278C159.861 284.643 163.101 289.25 169.24 292.125C168.738 292.569 165.938 293.704 165.168 294.031C162.664 291.579 159.752 288.299 157.331 285.694C157.373 284.39 157.447 279.077 157.773 278.278Z" fill="#D60572"/>
<path d="M190.952 292.806C192.805 293.673 195.365 294.952 197.24 295.68C197.585 299.46 198.073 303.617 198.318 307.364L196.374 307.737C184.55 309.809 176.59 310.134 164.589 307.351C164.611 307.334 164.635 307.32 164.654 307.302C164.936 307.027 165.707 296.678 165.809 295.545C167.781 294.661 169.772 293.875 171.772 293.059C178.307 294.777 184.476 294.845 190.952 292.806Z" fill="#D60572"/>
<path d="M134.496 295.356L135.724 296.355C141.364 300.211 148.01 303.29 154.317 305.893C157.167 307.068 160.158 307.914 163.093 308.857C162.37 310.475 161.686 311.991 160.866 313.561C160.566 314.136 159.835 315.284 159.632 315.755L159.582 315.48C159.337 315.287 152.628 313.448 151.672 313.127C145.573 311.095 139.656 308.55 133.985 305.516C133.49 306.096 133.507 306.248 132.868 306.455C130.831 305.314 129.258 304.391 127.312 303.111L125.972 302.214C127.769 300.878 129.543 299.513 131.294 298.117L134.496 295.356Z" fill="#D60572"/>
<path d="M131.294 298.118C131.79 298.684 132.022 298.807 132.339 299.484C131.083 300.636 128.741 302.173 127.312 303.111L125.972 302.214C127.769 300.879 129.543 299.513 131.294 298.118Z" fill="#F13692"/>
<path d="M134.496 295.356L135.724 296.355C134.483 297.724 133.821 298.4 132.339 299.483C132.022 298.807 131.79 298.684 131.294 298.117L134.496 295.356Z" fill="#F13692"/>
<path d="M135.763 294.049C136.284 294.429 136.81 294.801 137.343 295.164C139.356 296.639 142.815 298.458 145.047 299.662L146.658 300.452C151.194 302.79 158.225 305.725 163.177 306.987L164.589 307.35C176.59 310.133 184.55 309.808 196.374 307.737L198.318 307.364L199.875 306.856L199.983 306.86L201.049 306.558L201.376 306.733C201.455 307.21 201.522 307.791 201.673 308.235L200.398 308.68L200.221 308.877C200.377 310.6 202.681 314.301 202.493 316.251L201.261 316.509C201.158 316.171 200.495 314.819 200.304 314.382C199.533 312.669 198.846 310.919 198.246 309.141L196.995 309.454C185.888 311.588 176.096 311.742 164.939 309.335C163.635 312.058 162.81 314.076 161.019 316.542L159.59 316.172L159.632 315.755C159.835 315.283 160.566 314.136 160.866 313.56C161.687 311.991 162.37 310.474 163.093 308.857C160.158 307.914 157.167 307.068 154.317 305.892C148.01 303.289 141.364 300.211 135.724 296.355L134.496 295.356L135.763 294.049Z" fill="#F13692"/>
<path d="M201.049 306.559L201.375 306.733C201.454 307.21 201.521 307.791 201.673 308.235L200.398 308.68C200 308.413 200.033 307.361 199.982 306.86L201.049 306.559Z" fill="#F13692"/>
<path d="M226.864 293.884L228.128 295.212C227.744 295.535 227.794 295.57 227.334 295.677L226.751 296.25C228.282 297.826 229.917 299.296 231.647 300.65C232.429 301.267 234.022 302.345 234.613 302.94C232.746 304.339 231.062 305.259 229.058 306.424C229.757 306.973 230.787 309.011 231.245 309.892C236.264 319.559 241.626 335.154 234.681 344.901C230.374 350.946 220.84 348.791 216.247 344.446C209.947 339.012 206.032 331.327 203.8 323.399C203.255 321.46 202.686 319.218 202.6 317.213L202.493 316.252C202.681 314.302 200.377 310.601 200.221 308.878L200.399 308.68L201.674 308.235C201.522 307.791 201.455 307.21 201.376 306.733L201.049 306.559C205.99 305.155 212.355 302.294 216.895 299.889L218.414 299.081C219.256 298.677 220.026 298.217 220.834 297.749C222.152 296.951 224.109 295.863 225.257 294.944L225.346 294.958C225.916 294.453 226.228 294.278 226.864 293.884Z" fill="#FD74B8"/>
<path d="M226.864 293.884L228.128 295.212C227.744 295.535 227.794 295.57 227.334 295.677L226.751 296.25C228.282 297.826 229.917 299.296 231.647 300.65C232.429 301.267 234.022 302.345 234.613 302.94C232.746 304.339 231.062 305.259 229.058 306.424C228.53 306.182 228.419 305.958 228.042 305.487C219.826 309.564 211.797 313.168 202.788 315.136C202.533 315.192 202.595 316.976 202.6 317.213L202.493 316.252C202.681 314.302 200.377 310.601 200.221 308.878L200.399 308.68L201.674 308.235C201.522 307.791 201.455 307.21 201.376 306.733L201.049 306.559C205.99 305.155 212.355 302.294 216.895 299.889L218.414 299.081C219.256 298.677 220.026 298.217 220.834 297.749C222.152 296.951 224.109 295.863 225.257 294.944L225.346 294.958C225.916 294.453 226.228 294.278 226.864 293.884Z" fill="#D60572"/>
<path d="M226.864 293.884L228.127 295.212C227.744 295.535 227.793 295.57 227.334 295.677L226.75 296.25C225.108 297.128 223.689 298.243 222.002 299.126C215.581 302.908 208.764 305.963 201.673 308.235C201.521 307.791 201.454 307.21 201.376 306.733L201.049 306.559C205.989 305.155 212.355 302.294 216.894 299.889L218.414 299.081C219.256 298.677 220.026 298.217 220.834 297.749C222.151 296.951 224.109 295.863 225.257 294.944L225.346 294.958C225.916 294.453 226.228 294.278 226.864 293.884Z" fill="#F13692"/>
<path d="M226.864 293.884L228.127 295.212C227.744 295.535 227.793 295.57 227.334 295.677C226.978 295.838 226.956 295.859 226.577 295.927C225.957 295.446 225.925 295.632 225.346 294.958C225.916 294.453 226.228 294.278 226.864 293.884Z" fill="#F13692"/>
<path d="M229.35 327.253C231.04 326.821 232.759 327.853 233.177 329.553C233.596 331.253 232.556 332.97 230.86 333.378C229.179 333.784 227.489 332.752 227.073 331.068C226.659 329.385 227.675 327.681 229.35 327.253Z" fill="#F13692"/>
<path d="M227.974 337.646C229.602 337.208 231.275 338.182 231.705 339.817C232.136 341.452 231.16 343.128 229.528 343.553C227.906 343.977 226.247 343.004 225.818 341.377C225.391 339.75 226.353 338.082 227.974 337.646Z" fill="#F13692"/>
<path d="M224.714 331.881C226.345 331.847 227.694 333.141 227.737 334.775C227.777 336.41 226.494 337.771 224.865 337.82C223.226 337.868 221.86 336.571 221.819 334.926C221.777 333.282 223.076 331.916 224.714 331.881Z" fill="#F13692"/>
<path d="M220.896 337.451C222.249 337.198 223.564 338.054 223.884 339.4C224.205 340.743 223.419 342.105 222.098 342.494C221.18 342.765 220.19 342.506 219.52 341.821C218.851 341.136 218.613 340.136 218.9 339.222C219.189 338.307 219.955 337.625 220.896 337.451Z" fill="#F13692"/>
<path d="M217.068 332.207C218.303 331.812 219.628 332.477 220.055 333.705C220.483 334.933 219.858 336.28 218.646 336.743C217.832 337.054 216.913 336.896 216.248 336.331C215.583 335.768 215.275 334.883 215.446 334.027C215.616 333.169 216.238 332.472 217.068 332.207Z" fill="#F13692"/>
<path d="M222.434 326.935C223.493 326.628 224.6 327.241 224.906 328.304C225.214 329.368 224.603 330.48 223.544 330.788C222.484 331.096 221.375 330.484 221.067 329.42C220.761 328.355 221.372 327.243 222.434 326.935Z" fill="#F13692"/>
<path d="M231.761 334.397C232.721 334.022 233.805 334.491 234.193 335.448C234.582 336.406 234.134 337.499 233.186 337.906C232.559 338.174 231.837 338.083 231.296 337.666C230.755 337.25 230.48 336.573 230.577 335.896C230.673 335.218 231.125 334.646 231.761 334.397Z" fill="#F13692"/>
<path d="M132.868 306.455C133.507 306.248 133.49 306.096 133.985 305.516C139.656 308.549 145.573 311.095 151.672 313.127C152.628 313.448 159.337 315.287 159.582 315.48L159.632 315.755L159.59 316.172C159.275 317.103 158.789 320.173 158.433 321.501C156.017 330.377 150.903 342.141 142.448 346.517C125.556 355.261 120.7 335.993 125.065 323.324C126.275 319.813 130.317 307.892 132.868 306.455Z" fill="#FD74B8"/>
<path d="M130.629 327.277C132.288 326.84 133.987 327.832 134.43 329.495C134.874 331.156 133.897 332.868 132.244 333.323C130.576 333.783 128.854 332.791 128.406 331.115C127.958 329.437 128.956 327.716 130.629 327.277Z" fill="#F13692"/>
<path d="M131.806 337.65C133.409 337.164 135.101 338.076 135.584 339.685C136.067 341.294 135.159 342.992 133.556 343.477C131.953 343.961 130.261 343.051 129.778 341.442C129.294 339.833 130.202 338.135 131.806 337.65Z" fill="#F13692"/>
<path d="M136.387 331.882C137.97 331.702 139.408 332.821 139.629 334.405C139.85 335.989 138.772 337.461 137.2 337.723C136.147 337.899 135.081 337.486 134.417 336.647C133.753 335.809 133.594 334.673 134.004 333.683C134.413 332.693 135.325 332.004 136.387 331.882Z" fill="#F13692"/>
<path d="M139.558 337.486C140.993 337.245 142.358 338.199 142.628 339.635C142.898 341.07 141.975 342.459 140.55 342.759C139.603 342.96 138.621 342.63 137.985 341.897C137.348 341.165 137.156 340.143 137.482 339.228C137.809 338.313 138.603 337.647 139.558 337.486Z" fill="#F13692"/>
<path d="M143.016 332.219C144.28 331.828 145.622 332.531 146.026 333.796C146.43 335.059 145.746 336.415 144.492 336.836C143.667 337.113 142.757 336.923 142.11 336.338C141.463 335.754 141.179 334.866 141.366 334.014C141.554 333.16 142.184 332.475 143.016 332.219Z" fill="#F13692"/>
<path d="M138.166 326.929C139.209 326.673 140.268 327.292 140.558 328.33C140.848 329.368 140.265 330.45 139.241 330.775C138.548 330.995 137.791 330.818 137.266 330.314C136.741 329.81 136.531 329.059 136.718 328.355C136.906 327.65 137.461 327.104 138.166 326.929Z" fill="#F13692"/>
<path d="M128.506 334.382C129.482 334.069 130.525 334.611 130.833 335.592C131.141 336.571 130.598 337.616 129.62 337.922C128.648 338.227 127.612 337.685 127.306 336.71C126.999 335.734 127.536 334.694 128.506 334.382Z" fill="#F13692"/>
<path d="M222.624 268.329C222.701 268.559 222.814 268.847 222.859 269.079C223.622 269.196 223.989 269.175 224.754 269.156C224.902 269.672 225.016 270.071 225.123 270.597C225.496 270.989 225.852 270.939 226.478 271.062C223.026 271.09 216.553 270.266 217.201 275.47C217.651 279.079 219.825 284.311 221.83 287.366C222.071 287.762 222.494 288.511 222.774 288.835C224.141 290.69 225.296 292.167 226.864 293.884C226.228 294.278 225.916 294.453 225.346 294.958L225.257 294.944C224.109 295.863 222.151 296.951 220.834 297.749C220.026 298.217 219.256 298.677 218.414 299.081L216.894 299.889C212.355 302.294 205.989 305.155 201.049 306.559L199.983 306.86L199.875 306.856L198.318 307.364C198.073 303.618 197.585 299.46 197.24 295.68C195.365 294.953 192.805 293.673 190.952 292.806C191.75 292.604 192.5 292.269 193.266 291.959C200.655 288.359 202.936 282.77 205.464 275.476L205.569 275.071L206.23 272.971C206.351 272.796 206.545 272.703 206.745 272.567C207.394 272.539 210.059 271.809 210.869 271.6C214.816 270.614 218.735 269.524 222.624 268.329Z" fill="#D60572"/>
<path d="M222.624 268.329C222.701 268.559 222.814 268.847 222.859 269.079C223.622 269.196 223.989 269.175 224.754 269.156C224.902 269.672 225.016 270.071 225.123 270.597C225.496 270.989 225.852 270.939 226.478 271.062C223.026 271.09 216.553 270.266 217.201 275.47C217.651 279.079 219.825 284.311 221.83 287.366C222.071 287.762 222.494 288.511 222.774 288.835C224.141 290.69 225.296 292.167 226.864 293.884C226.228 294.278 225.916 294.453 225.346 294.958L225.257 294.944C224.109 295.863 222.151 296.951 220.834 297.749C220.026 298.217 219.256 298.677 218.414 299.081C218.238 296.778 217.872 294.712 217.783 292.332C218.936 291.442 220.103 290.634 221.295 289.799L220.397 288.464C219.214 289.351 218.023 290.228 216.826 291.094C214.234 289.322 210.177 287.068 207.396 285.513L207.123 277.104C206.984 276.325 207.168 275.75 206.873 275.119C206.309 274.861 206.302 274.983 205.569 275.071L206.23 272.971C206.351 272.796 206.545 272.703 206.745 272.567C207.394 272.539 210.059 271.809 210.869 271.6C214.816 270.614 218.735 269.524 222.624 268.329Z" fill="#D60572"/>
<path d="M222.624 268.329C222.701 268.559 222.814 268.847 222.859 269.079C223.622 269.196 223.989 269.175 224.754 269.156C224.902 269.672 225.016 270.071 225.123 270.597C225.496 270.989 225.852 270.939 226.478 271.062C223.027 271.09 216.553 270.266 217.201 275.47C217.651 279.079 219.825 284.311 221.83 287.366L220.321 288.514C217.778 284.354 214.536 277.723 215.488 272.741C213.102 273.219 209.903 274.412 207.509 274.514C207.117 274.298 207.191 274.191 206.976 273.651C206.997 273.144 206.91 273.065 206.745 272.567C207.394 272.539 210.059 271.809 210.869 271.6C214.816 270.614 218.735 269.524 222.624 268.329Z" fill="#F13692"/>
<path d="M222.774 288.834C224.141 290.689 225.296 292.166 226.864 293.884C226.228 294.277 225.916 294.453 225.346 294.958L225.257 294.944C224.093 293.661 222.166 291.24 221.361 289.804L222.774 288.834Z" fill="#F13692"/>
<path d="M206.23 272.971C206.351 272.795 206.545 272.703 206.745 272.567C206.91 273.065 206.997 273.144 206.975 273.65C206.992 275.091 207.308 275.508 207.123 277.104C206.984 276.325 207.168 275.75 206.873 275.119C206.309 274.861 206.302 274.982 205.569 275.07L206.23 272.971Z" fill="#F13692"/>
<path d="M205.464 275.476L205.569 275.07C206.302 274.982 206.309 274.861 206.873 275.118C207.168 275.749 206.984 276.325 207.123 277.104L207.396 285.513C210.177 287.067 214.234 289.322 216.826 291.093C218.023 290.228 220.649 288.263 221.832 287.376L222.785 288.81C221.593 289.645 218.936 291.442 217.783 292.332C217.872 294.712 218.238 296.778 218.414 299.08L216.894 299.889C216.744 299.231 216.181 293.187 216.164 292.361C213.303 290.913 209.4 288.296 206.789 287.12C204.076 289.71 201.44 292.633 198.806 295.337C199.14 298.372 199.757 303.856 199.875 306.856L198.318 307.364C198.073 303.617 197.585 299.46 197.24 295.68C195.365 294.952 192.805 293.673 190.952 292.806C191.75 292.604 192.5 292.269 193.266 291.958C200.655 288.358 202.936 282.769 205.464 275.476Z" fill="#F13692"/>
<path d="M205.464 275.476C205.858 276.19 205.72 284.109 205.816 285.664C203.132 288.381 200.226 291.315 197.669 294.149C196.321 293.532 194.511 292.724 193.266 291.959C200.655 288.359 202.936 282.769 205.464 275.476Z" fill="#D60572"/>
<path d="M244.051 271.304L244.342 271.339C244.918 271.435 245.493 271.535 246.067 271.639L246.257 271.718C245.621 272.074 245.455 272.655 245.033 273.378L243.06 272.946C243.523 272.7 243.879 271.806 244.051 271.304Z" fill="#F13692"/>
<path d="M232.215 109.098C232.089 107.289 231.797 104.908 231.967 103.169C232.487 97.8743 235.363 91.9916 238.803 88.0197C243.28 82.7767 249.673 79.5486 256.552 79.0581C263.418 78.5996 270.187 80.8674 275.392 85.3694C280.231 89.5645 283.208 95.5077 283.67 101.895C284.013 107.113 283.112 112.057 280.758 116.737C280.129 117.988 279.039 119.547 278.593 120.463C278.96 121.593 279.11 122.049 279.283 123.26C279.269 124.514 278.995 126.587 279.89 127.471C280.427 129.118 280.127 129.246 278.869 130.398C280.143 132.254 281.369 134.319 280.925 136.693C280.718 137.865 280.048 138.904 279.064 139.575C275.898 141.726 271.52 139.183 269.84 136.31C269.107 135.054 268.687 133.935 268.324 132.532C267.707 132.501 267.116 132.4 266.558 132.625C267.291 135.445 267.552 139.462 265.3 141.664C264.48 142.464 263.37 142.896 262.225 142.862C256.695 142.699 254.152 135.129 254.277 130.438C253.796 129.74 251.659 129.269 250.671 128.962C248.122 127.914 246.521 127.166 244.191 125.651C241.717 123.931 240.57 123.12 238.496 120.906L237.889 120.208C236.881 120.551 235.683 121.192 234.683 121.692C230.421 123.819 223.516 124.907 219.612 121.568C217.369 119.648 218.031 116.256 220.192 114.444C223.553 111.626 227.232 111.596 231.373 111.804C231.405 110.553 231.594 110.161 232.215 109.098Z" fill="#FCBDDF"/>
<path d="M278.869 130.398C280.143 132.254 281.369 134.32 280.926 136.693C280.719 137.866 280.048 138.905 279.065 139.576C275.899 141.727 271.52 139.184 269.841 136.31C269.107 135.055 268.687 133.936 268.325 132.533C271.688 132.457 275.889 132.124 278.869 130.398Z" fill="#FCBDDF"/>
<path d="M279.283 123.261C279.269 124.514 278.995 126.587 279.89 127.472C280.427 129.119 280.127 129.246 278.869 130.398C275.889 132.125 271.688 132.457 268.324 132.533C267.707 132.501 267.116 132.4 266.558 132.626L266.454 131.603C266.665 131.096 267.013 130.584 267.305 130.106C267.587 129.33 267.343 129.569 267.907 129.215C269.811 129.339 272.107 129.54 273.957 129.141C273.095 128.233 274.477 127.03 273.472 125.991C273.144 125.756 273.111 125.667 272.839 125.358C273.087 125.284 273.204 125.206 273.436 125.089C273.976 124.682 274.645 124.252 275.212 123.866L276.336 124.587C277.541 124.103 277.966 123.513 279.283 123.261Z" fill="#FC61A4"/>
<path d="M279.283 123.261C278.741 124.318 277.852 124.287 276.681 125.288C276.616 126.215 276.541 127.828 276.391 128.687L276.111 128.742C275.23 129.071 275.177 129.076 274.225 129.12L273.957 129.141C273.095 128.233 274.477 127.03 273.472 125.991C273.144 125.756 273.111 125.667 272.839 125.358C273.087 125.284 273.204 125.206 273.436 125.089C273.976 124.682 274.645 124.252 275.212 123.866L276.336 124.587C277.541 124.103 277.966 123.513 279.283 123.261Z" fill="#FD89BC"/>
<path d="M274.225 129.12C274.253 127.984 274.203 126.138 275.467 125.679C275.828 125.788 275.883 125.926 276.208 126.216C276.407 126.937 276.1 127.545 275.885 128.366L276.112 128.741C275.231 129.071 275.177 129.076 274.225 129.12Z" fill="#FC61A4"/>
<path d="M275.213 123.866L276.336 124.586L276.411 125.005C275.66 125.819 274.233 125.888 273.437 125.089C273.977 124.682 274.645 124.252 275.213 123.866Z" fill="#FC61A4"/>
<path d="M276.392 128.687C277.407 128.409 277.898 128.096 278.785 127.568L278.893 127.715C278.566 128.162 278.523 128.22 278.117 128.594C276.39 129.255 274.982 129.59 273.143 129.788C272.475 129.86 271.398 129.826 271.079 130.306L270.996 131.253L270.728 131.401C270.551 130.522 270.69 130.351 270.16 129.94C269.512 129.848 268.585 129.651 267.976 129.785L267.595 130.386L267.306 130.105C267.588 129.329 267.343 129.568 267.907 129.215C269.811 129.339 272.108 129.539 273.957 129.141L274.225 129.12C275.177 129.075 275.231 129.071 276.112 128.741L276.392 128.687Z" fill="#D7196F"/>
<path d="M265.034 126.88C268.888 126.566 269.422 126.123 272.839 125.358C273.111 125.668 273.144 125.756 273.472 125.991C274.477 127.03 273.095 128.233 273.957 129.141C272.107 129.54 269.811 129.339 267.906 129.216L267.52 129.082C266.398 128.409 265.935 127.819 265.034 126.88Z" fill="#FD89BC"/>
<path d="M273.472 125.99C274.477 127.03 273.095 128.232 273.956 129.14C272.107 129.539 269.811 129.339 267.906 129.215L267.52 129.081L268.186 128.714L268.675 129.068C269.608 128.948 269.487 127.721 270.112 127.42C271.126 126.932 272.431 126.42 273.472 125.99Z" fill="#FC61A4"/>
<path d="M241.136 119.709C241.932 120.336 242.311 120.543 242.819 121.437C242.957 122.833 243.758 124.213 244.191 125.652C241.717 123.932 240.57 123.121 238.496 120.906L240.741 120.111L241.136 119.709Z" fill="#FD89BC"/>
<path d="M241.135 119.709C241.932 120.336 242.31 120.543 242.819 121.437C242.023 121.353 241.384 120.653 240.741 120.111L241.135 119.709Z" fill="#FC61A4"/>
<path d="M278.593 120.463C278.96 121.593 279.11 122.049 279.283 123.26C277.966 123.513 277.541 124.103 276.336 124.586L275.212 123.866C276.405 122.878 277.548 121.615 278.593 120.463Z" fill="#FC61A4"/>
<path d="M264.991 128.717C264.569 128.212 264.179 127.85 264.007 127.225L264.22 126.958L265.034 126.88C265.935 127.819 266.399 128.409 267.52 129.082L267.907 129.215C267.343 129.569 267.587 129.33 267.305 130.106L267.193 129.61C266.572 129.08 265.797 128.95 264.991 128.717Z" fill="#FA4191"/>
<path d="M253.573 127.777C253.622 128.325 253.663 128.729 253.75 129.278C253.955 129.408 254.001 129.467 254.225 129.531C254.239 129.74 254.29 130.258 254.277 130.439C253.796 129.74 251.659 129.269 250.671 128.963C251.312 128.573 252.812 128.063 253.573 127.777Z" fill="#FD89BC"/>
<path d="M253.573 127.777C253.624 126.918 253.512 126.463 253.928 125.807C254.627 125.767 254.302 125.701 254.937 126.029C254.955 126.94 254.32 128.103 254.225 129.531C254.001 129.467 253.955 129.408 253.75 129.278C253.663 128.728 253.622 128.325 253.573 127.777Z" fill="#FD89BC"/>
<path d="M232.215 109.099L233.376 112.233L231.374 111.805C231.405 110.553 231.594 110.162 232.215 109.099Z" fill="#FA4191"/>
<path d="M264.991 128.717C265.797 128.95 266.572 129.08 267.193 129.609L267.306 130.105C267.014 130.584 266.665 131.095 266.454 131.603C266.038 130.913 265.376 129.485 264.991 128.717Z" fill="#FD89BC"/>
<path d="M237.889 120.209C239.519 119.342 239.564 118.694 241.135 119.709L240.741 120.111L238.496 120.906L237.889 120.209Z" fill="#F8268C"/>
<path d="M262.263 81.7729C264.873 81.6564 270.964 83.0383 266.978 86.4903C262.752 88.3558 259.785 84.3011 262.263 81.7729Z" fill="#FD89BC"/>
<path d="M265.957 88.4727C268.942 88.7861 271.299 91.6221 267.824 93.1639C267.566 93.1351 267.309 93.0982 267.055 93.0537C264.096 92.5528 262.468 90.3025 265.957 88.4727Z" fill="#FD89BC"/>
<path d="M258.014 86.1464C261.511 85.9636 263.343 89.3068 260.015 90.6783C259.723 90.6566 259.431 90.6272 259.14 90.5902C256.38 90.2178 255.288 87.9243 258.014 86.1464Z" fill="#FD89BC"/>
<path d="M251.832 111.598C253.614 111.952 252.684 113.32 253.937 114.431C255.668 115.965 257.204 113.661 258.533 113.655C258.982 114.178 258.838 113.867 258.838 114.674C255.621 117.892 251.045 115.976 251.832 111.598Z" fill="black"/>
<path d="M270.396 85.4346C272.425 85.6037 274.737 87.301 272.798 89.4449C270.184 89.5565 268.504 87.7353 270.396 85.4346Z" fill="#FD89BC"/>
<path d="M256.646 81.417C259.381 81.2068 261.196 82.1815 258.529 84.5581C258.261 84.5662 257.993 84.5701 257.725 84.5703C255.6 84.5544 254.095 82.9071 256.646 81.417Z" fill="#FD89BC"/>
<path d="M260.514 92.2021C261.847 92.3427 263.122 92.4194 263.485 93.8904C263.333 94.6598 263.207 94.7284 262.685 95.2948C260.638 95.5548 258.563 94.205 260.514 92.2021Z" fill="#FD89BC"/>
<path d="M273.781 90.3643C275.52 90.547 276.701 91.5534 275.749 93.3371C273.801 93.2251 272.601 92.4271 273.781 90.3643Z" fill="#FD89BC"/>
<path d="M251.956 83.5579C253.048 83.5151 253.628 83.5642 254.03 84.6289C253.918 85.3061 253.764 85.3729 253.265 85.8411C252.28 85.8937 251.473 85.7966 251.136 84.7661C251.282 84.0679 251.418 84.0188 251.956 83.5579Z" fill="#FD89BC"/>
<path d="M247.396 99.2245C250.322 101.401 250.929 105.537 248.753 108.463C246.576 111.388 242.44 111.995 239.514 109.817C236.59 107.641 235.984 103.506 238.16 100.581C240.336 97.6563 244.471 97.0491 247.396 99.2245Z" fill="#FEFEFE"/>
<path d="M246.814 100.595C248.979 102.447 249.237 105.702 247.39 107.872C245.543 110.041 242.288 110.306 240.115 108.464C237.935 106.616 237.669 103.349 239.522 101.173C241.375 98.997 244.642 98.7381 246.814 100.595Z" fill="black"/>
<path d="M244.061 100.468C244.843 101.005 245.091 102.031 244.616 102.763C244.141 103.494 243.123 103.654 242.339 103.121C241.553 102.586 241.301 101.556 241.777 100.822C242.254 100.088 243.277 99.9294 244.061 100.468Z" fill="#FEFEFE"/>
<path d="M274.102 108.223C277.028 110.4 277.636 114.536 275.459 117.462C273.283 120.387 269.146 120.994 266.221 118.817C263.297 116.64 262.69 112.505 264.866 109.58C267.042 106.655 271.177 106.048 274.102 108.223Z" fill="#FEFEFE"/>
<path d="M273.521 109.595C275.686 111.446 275.944 114.701 274.097 116.871C272.25 119.04 268.995 119.305 266.822 117.463C264.642 115.615 264.376 112.348 266.229 110.172C268.082 107.996 271.349 107.737 273.521 109.595Z" fill="black"/>
<path d="M270.768 109.467C271.549 110.004 271.797 111.03 271.323 111.762C270.848 112.493 269.829 112.653 269.046 112.12C268.259 111.585 268.008 110.555 268.484 109.821C268.96 109.087 269.984 108.928 270.768 109.467Z" fill="#FEFEFE"/>
<path d="M159.388 99.0907C145.932 79.1862 168.084 52.0781 190.776 60.617C205.539 66.1725 211.467 81.5201 206.456 95.9338C207.351 97.4652 207.369 98.1583 208.041 99.5899L208.015 99.9205C208.285 101.551 208.104 102.926 209.194 103.743C209.983 104.304 209.713 103.955 210.097 104.78C210.077 105.778 209.681 106.313 209.037 107.075C210.819 109.084 212.295 111.019 212.159 113.873C212.043 116.299 209.963 117.99 207.584 117.648C203.716 117.094 201.877 113.96 200.443 110.784L198.924 111.112C198.908 110.68 198.841 110.16 198.797 109.722L198.474 109.516C197.161 109.855 196.075 108.173 194.878 107.185V106.987C194.34 106.463 193.865 106.091 193.55 105.417C191.371 105.936 188.008 106.507 186.135 107.021C186.086 107.498 186.112 107.885 185.893 108.272C185.932 108.807 185.928 109.275 186.116 109.775C186.127 110.561 186.102 111.557 186.204 112.316C184.988 112.472 183.052 112.298 181.834 112.164C180.529 112.001 179.496 111.809 178.205 111.551C174.011 110.706 172.451 109.856 168.706 107.964C166.659 106.796 164.067 104.247 162.224 102.603C161.804 102.755 160.707 103.188 160.332 103.281C159.641 102.525 159.379 102.081 158.83 101.232C158.955 100.615 159.222 99.7232 159.388 99.0907Z" fill="#FC61A4"/>
<path d="M205.161 98.2053L206.456 95.9341C207.351 97.4654 207.369 98.1586 208.041 99.5902L208.016 99.9208C208.286 101.551 208.104 102.926 209.194 103.744C209.983 104.304 209.713 103.955 210.097 104.78C210.078 105.778 209.681 106.313 209.037 107.075C210.819 109.085 212.295 111.019 212.159 113.873C212.043 116.3 209.963 117.99 207.584 117.648C203.716 117.094 201.877 113.961 200.444 110.784L198.924 111.112C198.908 110.681 198.841 110.16 198.798 109.722L198.474 109.517C197.161 109.855 196.075 108.173 194.879 107.185V106.987C194.34 106.463 193.865 106.091 193.55 105.417C194.301 105.191 194.975 104.916 195.701 104.632C196.806 104.091 198.535 103.486 199.762 102.964C200.355 102.557 201.167 102.119 201.81 101.757C203.318 100.634 204.045 99.6747 205.161 98.2053Z" fill="#C7055E"/>
<path d="M209.037 107.075C210.819 109.084 212.296 111.019 212.16 113.873C212.043 116.3 209.964 117.99 207.584 117.648C203.716 117.094 201.877 113.96 200.444 110.784C203.21 109.989 206.762 108.873 209.037 107.075Z" fill="#FC61A4"/>
<path d="M199.762 102.964C200.355 102.557 201.167 102.119 201.81 101.757C202.202 102.144 202.409 102.432 202.939 102.568C203.267 102.43 203.566 102.308 203.899 102.183C204.493 102.511 204.735 103.115 205.224 103.745C205.348 104.48 205.547 105.367 205.494 106.095C202.833 107.031 199.793 107.761 197.177 106.334L197.055 106.638C195.892 106.302 195.982 106.317 194.879 106.987C194.34 106.464 193.865 106.091 193.55 105.417C194.301 105.191 194.975 104.916 195.701 104.632C196.806 104.091 198.535 103.486 199.762 102.964Z" fill="#F8268C"/>
<path d="M199.762 102.964C200.355 102.557 201.167 102.119 201.81 101.757C202.202 102.144 202.409 102.432 202.939 102.568C203.267 102.43 203.566 102.308 203.9 102.183C204.493 102.511 204.735 103.115 205.224 103.745C205.348 104.48 205.548 105.367 205.494 106.095C205.051 105.409 205.098 104.967 204.832 104.251C204.055 102.158 201.7 103.761 200.448 104.388C200.13 105.452 200.053 106.035 199.401 106.922C199.279 105.345 200.556 105.093 199.762 102.964Z" fill="#FA4191"/>
<path d="M195.701 104.631C196.184 105.226 196.623 105.802 197.177 106.334L197.055 106.638C195.892 106.301 195.982 106.317 194.879 106.987C194.34 106.463 193.865 106.091 193.55 105.417C194.301 105.191 194.975 104.916 195.701 104.631Z" fill="#B30353"/>
<path d="M209.195 103.743C209.983 104.304 209.713 103.955 210.098 104.78C210.078 105.778 209.682 106.313 209.037 107.075C206.762 108.872 203.21 109.989 200.444 110.783L198.924 111.112C198.908 110.68 198.841 110.16 198.798 109.722L198.475 109.516C197.162 109.855 196.076 108.173 194.879 107.185V106.987C195.983 106.317 195.892 106.301 197.055 106.637C197.272 106.971 198.331 107.422 198.747 107.625C198.802 108.107 198.863 108.589 198.932 109.07L199.163 109.014C199.245 108.585 199.32 108.27 199.431 107.848C200.066 107.62 202.975 107.269 203.632 107.364C203.862 107.846 203.933 107.991 204.233 108.428L204.422 108.261C204.341 107.921 204.259 107.583 204.17 107.246C205.053 106.168 208.276 106.068 208.659 103.935L209.195 103.743Z" fill="#F8268C"/>
<path d="M205.161 98.2051L205.455 98.6676C205.593 100.136 207.121 100.589 205.276 101.911L205.625 102.012C205.603 102.887 205.654 103.025 205.224 103.744C204.736 103.115 204.493 102.51 203.9 102.183C203.567 102.308 203.267 102.43 202.94 102.568C202.409 102.432 202.202 102.143 201.81 101.757C203.318 100.634 204.046 99.6745 205.161 98.2051Z" fill="#F8268C"/>
<path d="M208.658 103.935C208.067 104.213 207.948 104.908 207.114 105.072C206.825 104.296 206.744 101.487 206.797 100.571L208.015 99.9204C208.285 101.551 208.104 102.926 209.194 103.743L208.658 103.935Z" fill="#EB0C75"/>
<path d="M205.161 98.2053L206.456 95.9341C207.351 97.4654 207.369 98.1586 208.041 99.5902C206.46 99.9432 206.59 99.7368 205.455 98.6678L205.161 98.2053Z" fill="#EB0C75"/>
<path d="M205.624 102.012L206.048 102.139C206.529 103.443 206.61 104.117 206.44 105.487C206.109 105.895 205.993 105.879 205.494 106.094C205.547 105.367 205.348 104.48 205.224 103.745C205.654 103.025 205.603 102.888 205.624 102.012Z" fill="#EB0C75"/>
<path d="M175.182 107.325C175.408 107.197 175.746 107.008 176.01 107.022C179.542 107.215 182.589 107.428 186.136 107.021C186.087 107.498 186.112 107.885 185.893 108.272C185.933 108.807 185.929 109.275 186.116 109.775C186.128 110.561 186.102 111.557 186.205 112.316C184.989 112.471 183.053 112.298 181.834 112.164C180.529 112.001 179.496 111.809 178.205 111.551C176.49 110.102 175.027 109.574 173.812 107.324C174.487 107.238 174.502 107.245 175.182 107.325Z" fill="#FD89BC"/>
<path d="M175.182 107.325C175.408 107.197 175.746 107.008 176.009 107.022C179.541 107.215 182.589 107.428 186.135 107.021C186.086 107.498 186.112 107.885 185.893 108.272C185.822 108.026 185.879 108.189 185.658 107.812C181.659 108.318 179.043 108.219 175.182 107.325Z" fill="#FA4191"/>
<path d="M181.834 112.164C183.823 111.443 184.556 111.269 186.116 109.775C186.128 110.561 186.102 111.557 186.204 112.316C184.988 112.472 183.052 112.298 181.834 112.164Z" fill="#FA4191"/>
<path d="M162.88 102.322C164.95 103.55 166.303 104.115 168.585 104.892C169.785 105.219 172.435 105.82 173.333 106.577L173.697 107.352L173.811 107.324C175.026 109.574 176.489 110.103 178.204 111.551C174.01 110.706 172.45 109.856 168.706 107.964C166.659 106.796 164.066 104.247 162.224 102.603L162.88 102.322Z" fill="#F8268C"/>
<path d="M168.586 104.892C169.786 105.219 172.436 105.82 173.334 106.577L173.698 107.352C172.079 107.748 169.319 106.443 168.586 104.892Z" fill="#C7055E"/>
<path d="M159.388 99.0903C160.639 100.55 161.381 101.113 162.88 102.321L162.224 102.603C161.804 102.755 160.707 103.187 160.332 103.281C159.64 102.524 159.379 102.08 158.83 101.231C158.955 100.615 159.222 99.7227 159.388 99.0903Z" fill="#EB0C75"/>
<path d="M179.447 61.4701C182.867 61.1929 188.951 61.6201 183.549 65.8384C179.847 67.4005 175.884 63.1952 179.447 61.4701Z" fill="#FA4191"/>
<path d="M184.665 67.1326C187.76 67.0366 190.585 69.0971 187.186 71.2326C185.424 71.3178 184.263 71.5256 183.09 69.9473C182.739 68.5128 183.591 67.8748 184.665 67.1326Z" fill="#FA4191"/>
<path d="M176.609 67.1324C180.147 67.0302 181.809 70.1136 178.284 71.2428C176.853 71.3039 175.603 71.448 174.799 70.0092C173.995 68.5677 175.549 67.6006 176.609 67.1324Z" fill="#FA4191"/>
<path d="M178.223 93.6006C179.758 93.8852 179.439 94.8818 180.561 95.5873C182.922 97.0733 184.016 94.0057 185.398 93.7861C185.832 94.3148 185.664 94.0016 185.657 94.9027C183.559 98.7101 177.822 97.7059 178.223 93.6006Z" fill="black"/>
<path d="M198.951 96.7417C200.063 96.8803 200.822 96.9783 201.39 98.0231C201.402 99.4963 200.458 99.6465 199.229 99.9402C198.088 99.8117 197.126 99.6295 196.6 98.5205C196.649 97.0774 197.759 96.9676 198.951 96.7417Z" fill="#FD89BC"/>
<path d="M174.367 62.7878C175.309 62.7475 175.531 62.7132 176.207 63.3165C176.827 64.8993 175.647 65.7907 174.299 66.2889L173.936 66.2364C172.772 66.0736 172.03 65.8345 172.021 64.5019C172.598 63.2804 173.044 63.267 174.367 62.7878Z" fill="#FA4191"/>
<path d="M187.803 62.7878C189.781 62.7606 193.004 63.5048 190.869 66.0374C188.446 66.4687 186.185 65.5333 187.803 62.7878Z" fill="#FA4191"/>
<path d="M164.272 96.9163C165.549 96.8755 167.59 97.0107 167.16 98.8208C166.682 99.444 166.292 99.5169 165.537 99.8383C164.147 99.9197 163.565 99.8828 162.617 98.8348C162.412 98.1167 162.406 98.4713 162.695 97.736C163.319 97.169 163.439 97.1759 164.272 96.9163Z" fill="#FD89BC"/>
<path d="M180.809 72.2912C181.986 72.2477 183.589 72.2266 183.642 73.7636C183.334 74.4256 183.127 74.4936 182.524 74.8972C181.276 74.9591 180.021 74.9595 179.756 73.4606C180.04 72.7496 180.182 72.7137 180.809 72.2912Z" fill="#FA4191"/>
<path d="M192.947 66.5098C193.915 66.5167 194.827 66.4828 195.391 67.3992C195.442 68.1941 195.474 67.8978 194.983 68.6786C194.019 68.7226 193.154 68.847 192.552 67.9264C192.499 67.0422 192.47 67.3707 192.947 66.5098Z" fill="#FA4191"/>
<path d="M169.51 66.4766C170.457 66.5503 171.04 66.5393 171.415 67.5005C171.164 68.2983 171.227 68.0609 170.535 68.7073C169.557 68.7714 168.779 68.8653 168.529 67.7528C168.715 67.0502 168.952 66.9442 169.51 66.4766Z" fill="#FA4191"/>
<path d="M186.136 107.021C188.008 106.507 191.371 105.936 193.55 105.417C193.865 106.091 194.34 106.463 194.879 106.987V107.185C196.075 108.173 197.161 109.855 198.474 109.516L198.798 109.722C198.841 110.16 198.908 110.68 198.924 111.112C198.87 111.757 199.288 112.629 199.574 113.263C200.871 116.146 201.776 119.548 199.669 122.314C197.615 124.803 194.269 124.245 192.123 122.227C189.83 120.071 188.46 117.833 187.6 114.816C187.409 114.147 187.249 112.981 186.92 112.511L186.205 112.316C186.102 111.557 186.128 110.561 186.116 109.775C185.929 109.275 185.932 108.807 185.893 108.272C186.112 107.885 186.086 107.498 186.136 107.021Z" fill="#FC61A4"/>
<path d="M186.136 107.021C188.008 106.507 191.371 105.936 193.55 105.417C193.865 106.091 194.34 106.463 194.879 106.987V107.185C193.189 106.906 190.894 106.738 189.244 107.186C186.329 107.978 186.849 110.425 186.92 112.511L186.205 112.316C186.102 111.557 186.128 110.561 186.116 109.775C185.929 109.275 185.932 108.807 185.893 108.272C186.112 107.885 186.086 107.498 186.136 107.021Z" fill="#EB0C75"/>
<path d="M196.04 118.744C196.878 118.786 197.536 118.946 198.104 119.655C198.411 120.031 198.532 120.526 198.433 121.001C198.271 121.756 197.652 122.054 197.033 122.397C194.469 122.152 193.152 120.226 196.04 118.744Z" fill="#FA4191"/>
<path d="M194.555 114.994C196.742 115.109 197.432 116.7 195.31 118.028C192.811 117.945 193.055 116.398 194.555 114.994Z" fill="#FA4191"/>
<path d="M192.415 117.853C193.105 117.685 193.8 118.1 193.978 118.786C194.157 119.472 193.753 120.175 193.069 120.364C192.618 120.489 192.135 120.361 191.803 120.029C191.474 119.698 191.346 119.214 191.474 118.762C191.6 118.311 191.961 117.964 192.415 117.853Z" fill="#FA4191"/>
<path d="M198.155 114.752C198.81 114.801 198.502 114.703 199.074 115.139C199.622 116.188 199.592 117.031 198.545 117.693C197.627 117.339 197.39 117.323 197.171 116.332C197.384 115.525 197.579 115.403 198.155 114.752Z" fill="#FA4191"/>
<path d="M162.224 102.604C164.067 104.247 166.659 106.797 168.706 107.964C166.4 112.032 164.829 114.053 160.846 116.864C156.256 120.103 148.547 119.568 150.541 112.233C151.759 107.753 156.397 105.326 160.332 103.281C160.707 103.188 161.804 102.756 162.224 102.604Z" fill="#FC61A4"/>
<path d="M153.197 113.566C155.846 113.646 156.649 115.087 154.719 117.142C152.424 117.373 151.487 115.373 153.197 113.566Z" fill="#FA4191"/>
<path d="M158.136 113.47C158.884 113.324 159.613 113.796 159.787 114.537C159.961 115.279 159.518 116.025 158.784 116.228C158.283 116.366 157.747 116.22 157.386 115.846C157.025 115.472 156.898 114.93 157.055 114.434C157.211 113.939 157.626 113.569 158.136 113.47Z" fill="#FA4191"/>
<path d="M167.949 82.9935C171.59 83.1841 174.388 86.2909 174.197 89.9325C174.005 93.574 170.898 96.3707 167.256 96.1788C163.616 95.9868 160.82 92.8804 161.011 89.2399C161.202 85.5995 164.308 82.8031 167.949 82.9935Z" fill="#FEFEFE"/>
<path d="M168.224 84.4567C171.052 84.7984 173.071 87.3656 172.735 90.1951C172.399 93.0245 169.836 95.0481 167.006 94.7183C164.168 94.3876 162.136 91.8152 162.473 88.9773C162.81 86.1394 165.387 84.1139 168.224 84.4567Z" fill="black"/>
<path d="M165.862 85.8759C166.81 85.8899 167.585 86.607 167.595 87.4788C167.605 88.3507 166.846 89.0484 165.898 89.0386C164.947 89.0289 164.166 88.3106 164.156 87.4357C164.147 86.5608 164.911 85.8619 165.862 85.8759Z" fill="#FEFEFE"/>
<path d="M196.793 82.8617C200.435 83.0523 203.232 86.1591 203.041 89.8006C202.849 93.4421 199.742 96.2389 196.1 96.0469C192.46 95.8549 189.664 92.7485 189.856 89.1081C190.047 85.4676 193.153 82.6713 196.793 82.8617Z" fill="#FEFEFE"/>
<path d="M197.068 84.3248C199.897 84.6666 201.915 87.2338 201.579 90.0632C201.244 92.8927 198.681 94.9163 195.851 94.5865C193.012 94.2557 190.981 91.6834 191.318 88.8455C191.654 86.0075 194.231 83.982 197.068 84.3248Z" fill="black"/>
<path d="M194.706 85.7441C195.654 85.7581 196.429 86.4752 196.439 87.347C196.449 88.2188 195.69 88.9166 194.742 88.9068C193.791 88.897 193.011 88.1787 193.001 87.3038C192.991 86.429 193.755 85.73 194.706 85.7441Z" fill="#FEFEFE"/>
<path d="M81.0743 120.372L80.9495 120.211C72.0026 108.644 73.5798 92.3421 85.3372 83.3293C90.7787 79.1642 97.6501 77.3273 104.444 78.2213C110.955 79.0936 116.842 82.5431 120.786 87.7956C124.995 93.3485 127.516 99.6572 126.527 106.662C128.515 108.083 128.875 108.358 127.64 110.61C126.87 110.813 126.658 110.721 126.279 111.408C125.639 112.568 124.572 115.095 123.628 115.987C122.761 117.245 122.221 117.971 121.226 119.125C119.233 120.952 116.753 123.268 114.376 124.552C112.467 126.097 108.646 127.63 106.277 128.303L104.68 128.658C104.384 132.789 103.863 136.451 100.678 139.443C98.6139 141.382 95.1798 142.049 93.2526 139.616C90.7951 136.514 91.8988 132.444 93.0387 129.135L91.8898 128.689L91.4825 129.314C90.6021 132.057 90.2478 132.973 88.2581 135.26C84.7483 139.296 77.327 139.312 77.246 132.792C77.2115 130.016 79.1101 128.035 81.1619 126.227C80.1981 125.49 79.4697 124.92 79.6638 123.629C80.1397 122.985 80.1019 123.002 80.7997 122.628C81.1806 121.945 81.0783 121.174 81.0743 120.372Z" fill="#F8268C"/>
<path d="M94.2111 126.661C96.9395 126.241 99.8683 125.657 102.619 125.544C104.332 125.474 104.483 126.409 104.617 127.832C104.644 128.107 104.665 128.382 104.68 128.658C104.385 132.789 103.863 136.451 100.678 139.443C98.614 141.382 95.1799 142.049 93.2527 139.616C90.7952 136.514 91.8989 132.444 93.0388 129.135C93.4437 128.317 93.8346 127.492 94.2111 126.661Z" fill="#F8268C"/>
<path d="M81.162 126.227C83.2729 127.07 84.877 127.711 87.0811 128.325C87.879 128.547 91.0708 129.143 91.4826 129.314C90.6022 132.057 90.2479 132.973 88.2582 135.26C84.7484 139.296 77.3271 139.312 77.2461 132.792C77.2116 130.016 79.1102 128.035 81.162 126.227Z" fill="#F8268C"/>
<path d="M81.1619 126.226C80.1981 125.49 79.4696 124.92 79.6638 123.629C80.1397 122.985 80.1019 123.002 80.7997 122.628L81.1295 122.97C82.197 123.833 82.4831 124.036 83.7751 124.447C85.5923 125.084 86.4431 125.076 88.3419 124.705L88.8777 124.886C90.8049 125.481 92.8498 125.474 94.877 125.579C94.3711 125.819 94.4961 125.72 94.0817 126.077L94.211 126.661C93.8345 127.492 93.4436 128.317 93.0387 129.135L91.8898 128.689L91.4825 129.314C91.0707 129.143 87.8788 128.547 87.081 128.325C84.8769 127.71 83.2728 127.07 81.1619 126.226Z" fill="#EB0C75"/>
<path d="M88.8775 124.886C90.8047 125.482 92.8496 125.474 94.8768 125.58C94.3709 125.819 94.4959 125.721 94.0815 126.078L94.2108 126.661C93.8343 127.493 93.4434 128.318 93.0385 129.136L91.8896 128.689C92.3944 127.973 92.6704 127.812 92.466 126.941C91.4052 125.983 88.1333 126.659 85.9106 125.556C86.7449 125.427 88.2154 125.292 88.8775 124.886Z" fill="#C7055E"/>
<path d="M81.1294 122.971C82.1969 123.833 82.4829 124.036 83.775 124.448C85.5922 125.084 86.443 125.076 88.3418 124.705L88.8776 124.886C88.2154 125.292 86.745 125.427 85.9107 125.556C84.463 125.24 81.4095 124.618 81.1294 122.971Z" fill="#B30353"/>
<path d="M126.527 106.662C128.515 108.083 128.875 108.358 127.64 110.61C126.87 110.814 126.658 110.721 126.279 111.408C125.64 112.568 124.572 115.095 123.628 115.987C122.762 117.245 122.221 117.972 121.226 119.125C119.233 120.952 116.753 123.268 114.376 124.552C115.195 123.312 116.503 121.831 115.722 120.34L116.213 120.063L115.346 119.745C120.541 115.447 124.805 114.178 126.527 106.662Z" fill="#C7055E"/>
<path d="M116.213 120.063C118.296 118.997 121.304 116.428 123.628 115.987C122.762 117.245 122.221 117.971 121.226 119.125C119.233 120.952 116.753 123.267 114.376 124.552C115.195 123.311 116.503 121.831 115.722 120.34L116.213 120.063Z" fill="#EB0C75"/>
<path d="M115.722 120.34C116.503 121.831 115.195 123.311 114.376 124.552C112.466 126.097 108.646 127.63 106.277 128.303C105.913 127.085 106.065 126.231 105.488 124.684C108.584 123.986 113.121 122.165 115.722 120.34Z" fill="#F8268C"/>
<path d="M115.345 119.745L116.212 120.063L115.722 120.34C113.12 122.165 108.584 123.986 105.488 124.684C106.065 126.231 105.913 127.085 106.277 128.303L104.679 128.658C104.665 128.382 104.644 128.107 104.617 127.832C104.483 126.409 104.332 125.474 102.619 125.544C99.8681 125.657 96.9392 126.241 94.2109 126.661L94.0815 126.077C94.4959 125.72 94.3709 125.819 94.8768 125.579C102.015 125.45 109.09 123.077 115.345 119.745Z" fill="#C7055E"/>
<path d="M81.0744 120.372C81.6114 120.889 83.4176 122.353 83.4454 122.972C83.4773 123.682 83.3377 123.5 83.811 124.255L83.7752 124.447C82.4831 124.036 82.1971 123.833 81.1296 122.97L80.7998 122.628C81.1807 121.945 81.0784 121.173 81.0744 120.372Z" fill="#D7196F"/>
<path d="M83.8113 124.255C83.9282 123.78 83.937 123.617 83.8974 123.129L84.0551 123.055C85.0532 123.479 87.3065 124.454 88.3422 124.705C86.4434 125.076 85.5926 125.084 83.7754 124.448L83.8113 124.255Z" fill="#EB0C75"/>
<path d="M94.6131 81.0752C99.0067 80.5825 98.0626 85.5685 93.5616 86.2185C92.2483 85.9021 91.1419 85.4741 90.6836 84.1168C90.7368 81.9617 92.9154 81.5065 94.6131 81.0752Z" fill="#EB0C75"/>
<path d="M92.0037 87.7598C92.3109 87.8213 92.6148 87.898 92.9145 87.9898C96.0781 88.9838 94.1474 91.5199 91.5491 92.261C88.0796 92.1648 88.5523 88.5469 92.0037 87.7598Z" fill="#EB0C75"/>
<path d="M99.0409 85.3943C102.507 85.213 103.468 88.1174 99.7901 89.56C96.2042 90.1993 95.8065 86.9509 99.0409 85.3943Z" fill="#EB0C75"/>
<path d="M106.446 109.476C109.454 110.508 105.303 116.629 100.899 113.301C100.389 112.609 100.308 112.533 100.335 111.708L100.617 111.49C101.778 111.592 102.985 113.958 104.711 112.816C105.984 111.973 106.009 110.753 106.446 109.476Z" fill="black"/>
<path d="M89.726 118.716C90.4694 118.704 90.9466 118.851 91.4669 119.389C91.7253 121.169 89.8259 121.743 88.459 122.018C87.7942 122.006 87.4361 121.846 86.9349 121.44C86.5332 119.702 88.3778 119.021 89.726 118.716Z" fill="#FD89BC"/>
<path d="M87.9258 84.5894C88.7758 84.8697 88.8267 84.9184 89.3203 85.5687C89.8236 87.3587 88.1318 88.245 86.6992 88.648C83.7703 87.3642 86.1498 85.3605 87.9258 84.5894Z" fill="#EB0C75"/>
<path d="M121.091 107.871C122.148 107.852 122.627 107.761 123.222 108.725C123.186 110.263 121.775 110.713 120.575 111.122C119.743 111.169 119.78 111.16 118.981 110.892C118.463 110.347 118.586 110.661 118.578 109.925C119.287 108.562 119.716 108.504 121.091 107.871Z" fill="#FD89BC"/>
<path d="M100.063 80.4316C101.35 80.4372 103.381 80.5669 103.364 82.2794C102.975 83.0319 102.852 83.0599 102.13 83.5651C99.6114 83.9976 97.823 82.4188 100.063 80.4316Z" fill="#EB0C75"/>
<path d="M97.3399 91.2715C98.0545 91.3231 98.4545 91.5203 98.8612 92.0987C98.9643 93.5342 98.0831 93.9326 96.8991 94.3385C96.1088 94.1889 95.9221 94.0992 95.4048 93.5188C95.1976 92.0801 96.1764 91.7182 97.3399 91.2715Z" fill="#EB0C75"/>
<path d="M127.64 110.61C131.218 110.672 135.69 111.43 138.039 114.135C143.07 119.929 136.916 123.893 131.135 123.022C126.721 122.358 124.847 121.189 121.226 119.125C122.221 117.972 122.762 117.245 123.628 115.987C124.572 115.095 125.64 112.568 126.279 111.408C126.658 110.721 126.87 110.814 127.64 110.61Z" fill="#F8268C"/>
<path d="M85.2628 105.763C88.245 103.665 92.3637 104.381 94.462 107.363C96.56 110.346 95.8426 114.465 92.8598 116.562C89.878 118.659 85.7606 117.942 83.6632 114.96C81.5654 111.979 82.2818 107.862 85.2628 105.763Z" fill="#FEFEFE"/>
<path d="M86.3828 106.744C88.8187 105.267 91.9913 106.04 93.4745 108.473C94.9576 110.905 94.1912 114.08 91.7615 115.568C89.3244 117.061 86.1384 116.291 84.6509 113.851C83.1635 111.411 83.9394 108.227 86.3828 106.744Z" fill="black"/>
<path d="M85.4012 109.319C86.1552 108.745 87.2081 108.83 87.7543 109.51C88.3004 110.19 88.134 111.207 87.3824 111.785C86.6283 112.364 85.5709 112.281 85.0229 111.599C84.4749 110.917 84.6443 109.896 85.4012 109.319Z" fill="#FEFEFE"/>
<path d="M111.787 96.663C114.816 94.6327 118.917 95.4428 120.947 98.4722C122.977 101.502 122.166 105.603 119.136 107.632C116.107 109.66 112.007 108.85 109.978 105.821C107.949 102.793 108.759 98.6926 111.787 96.663Z" fill="#FEFEFE"/>
<path d="M112.884 97.6696C115.353 96.2477 118.507 97.093 119.935 99.559C121.362 102.025 120.524 105.181 118.06 106.613C115.59 108.05 112.422 107.209 110.991 104.735C109.559 102.262 110.408 99.0959 112.884 97.6696Z" fill="black"/>
<path d="M111.844 100.222C112.611 99.6648 113.662 99.7739 114.192 100.466C114.723 101.158 114.533 102.171 113.769 102.732C113.002 103.294 111.946 103.187 111.414 102.492C110.882 101.798 111.075 100.78 111.844 100.222Z" fill="#FEFEFE"/>
</svg>
