<svg width="1024" height="1024" viewBox="0 0 1024 1024" fill="none" xmlns="http://www.w3.org/2000/svg">
<g clip-path="url(#clip0_26_3760)">
<path d="M601.6 0C749.453 0 823.381 0.000134204 879.854 28.7744C929.528 54.085 969.915 94.4718 995.226 144.146C1024 200.619 1024 274.547 1024 422.4V601.6C1024 749.453 1024 823.381 995.226 879.854C969.915 929.528 929.528 969.915 879.854 995.226C823.381 1024 749.453 1024 601.6 1024H422.4C274.547 1024 200.619 1024 144.146 995.226C94.4718 969.915 54.085 929.528 28.7744 879.854C0.000134204 823.381 0 749.453 0 601.6V422.4C0 274.547 0.000134204 200.619 28.7744 144.146C54.085 94.4718 94.4718 54.085 144.146 28.7744C200.619 0.000134204 274.547 0 422.4 0H601.6ZM386.4 60C272.15 60 215.024 59.9997 171.386 82.2344C133.001 101.793 101.793 133.001 82.2344 171.386C59.9997 215.024 60 272.15 60 386.4V637.6C60 751.85 59.9997 808.976 82.2344 852.614C101.793 890.999 133.001 922.207 171.386 941.766C215.024 964 272.15 964 386.4 964H637.6C751.85 964 808.976 964 852.614 941.766C890.999 922.207 922.207 890.999 941.766 852.614C964 808.976 964 751.85 964 637.6V386.4C964 272.15 964 215.024 941.766 171.386C922.207 133.001 890.999 101.793 852.614 82.2344C808.976 59.9997 751.85 60 637.6 60H386.4Z" fill="url(#paint0_linear_26_3760)"/>
<rect x="60" y="60" width="904" height="904" rx="204" stroke="#DADADA" stroke-opacity="0.6" stroke-width="5"/>
</g>
<defs>
<linearGradient id="paint0_linear_26_3760" x1="147" y1="-98.5" x2="966" y2="1039.5" gradientUnits="userSpaceOnUse">
<stop stop-color="white"/>
<stop offset="0.5" stop-color="#939393"/>
<stop offset="1" stop-color="#B6B6B6"/>
</linearGradient>
<clipPath id="clip0_26_3760">
<rect width="1024" height="1024" fill="white"/>
</clipPath>
</defs>
</svg>
