<svg width="512" height="512" viewBox="0 0 512 512" fill="none" xmlns="http://www.w3.org/2000/svg">
<path d="M109.239 156.495C120.895 117.471 144.345 88.3909 180.385 68.9669C217.819 48.458 261.944 43.9387 302.755 56.4337C340.474 67.7462 371.308 91.2572 390.059 126.126C395.006 135.204 398.854 144.84 401.524 154.829C413.929 163.845 422.591 182.416 424.812 197.38C427.314 214.266 424.158 232.54 415.855 247.523C413.402 251.949 409.359 255.994 408.449 260.205L408.635 260.689C409.718 263.463 411.419 266.741 412.546 269.633C415.095 276.177 419.73 293.776 419.673 300.279C420.091 301.472 420.223 301.51 421.207 302.383C432.459 311.217 436.862 324.217 427.785 336.414C425.92 335.065 423.743 334.477 421.73 333.429C417.605 331.276 413.358 329.686 409.069 327.905C407.65 327.437 406.944 327.208 405.585 326.537C401.989 325.566 397.919 324.061 394.276 322.956C388.924 321.369 383.53 319.917 378.107 318.601L377.751 318.453C376.674 318.259 375.596 318.073 374.516 317.892L373.971 317.826C373.649 318.765 372.981 320.436 372.112 320.896C360.442 318.861 352.929 317.868 341.02 317.375C339.847 317.145 339.18 317.238 338.48 316.505C338.28 315.523 338.067 314.776 337.788 313.813C336.355 313.849 335.665 313.887 334.235 313.668C334.15 313.236 333.94 312.697 333.795 312.267C326.503 314.5 319.154 316.538 311.754 318.379C310.236 318.77 305.239 320.135 304.022 320.187C303.647 320.442 303.283 320.614 303.056 320.943L301.817 324.866L301.62 325.623C296.881 339.253 292.603 349.699 278.748 356.426C277.312 357.006 275.906 357.632 274.41 358.01C262.267 361.821 250.701 361.692 238.448 358.483C236.862 357.912 235.279 357.329 233.7 356.738C222.189 351.365 216.115 342.755 212.199 330.86C211.801 329.224 210.816 326.466 210.293 324.628L209.475 320.885L209.252 320.732C200.51 318.519 191.767 316.029 183.158 313.879L173.54 310.88C166.864 308.96 159.854 306.38 153.379 303.874C149.932 302.539 146.611 300.938 143.117 299.622C142.156 299.086 141.249 298.703 140.25 298.263C128.972 292.463 121.842 288.321 113.07 278.825L110.741 276.086C107.262 271.08 104.419 265.657 102.28 259.945C101.496 256.907 98.4846 253.703 96.6987 250.974C95.2215 248.686 93.8885 246.308 92.7075 243.854C79.037 215.479 84.4648 177.087 109.239 156.495Z" fill="#FD74B8"/>
<path d="M209.475 320.885C223.895 324.329 237.449 326.95 252.298 327.292C268.412 327.662 283.482 325.273 299.082 321.462C300.062 321.224 302.159 320.554 303.056 320.943L301.817 324.866L301.621 325.624C296.881 339.253 292.603 349.699 278.748 356.426C277.312 357.006 275.906 357.632 274.41 358.01C262.267 361.821 250.701 361.692 238.448 358.483C236.862 357.912 235.279 357.329 233.7 356.738C222.189 351.365 216.115 342.755 212.199 330.86C211.801 329.224 210.816 326.466 210.293 324.628L209.475 320.885Z" fill="#FD7FBC"/>
<path d="M400.306 275.827C403.274 271.975 406.682 264.848 408.448 260.205L408.634 260.689C409.717 263.463 411.419 266.741 412.545 269.633C415.094 276.177 419.73 293.776 419.673 300.279C420.091 301.472 420.222 301.51 421.207 302.383C432.459 311.217 436.862 324.217 427.785 336.414C425.919 335.065 423.742 334.477 421.729 333.429C417.605 331.276 413.358 329.686 409.069 327.905C407.65 327.438 406.944 327.208 405.585 326.537C401.988 325.566 397.919 324.062 394.276 322.956C388.923 321.369 383.53 319.917 378.107 318.601L377.751 318.453C376.673 318.259 375.596 318.073 374.516 317.892C374.524 317.873 374.524 317.851 374.535 317.832C374.74 317.416 375.008 317.017 375.164 316.579C375.656 315.208 369.965 302.974 368.92 300.897C368.261 300.695 366.529 300.949 365.438 300.897L365.159 300.881C365.993 300.602 369.765 298.731 370.976 298.205C381.889 293.084 390.198 287.366 398.266 278.395C398.939 277.534 399.62 276.677 400.306 275.827Z" fill="#F13692"/>
<path d="M398.266 278.395C400.364 279.334 403.512 280.234 405.782 280.874C407.532 284.734 409.231 289.224 410.768 293.218C407.729 299.382 403.892 308.257 401.324 314.672C393.71 314.645 386.096 314.702 378.484 314.839C377.062 311.69 372.333 300.383 370.977 298.205C381.889 293.084 390.198 287.366 398.266 278.395Z" fill="#D60572"/>
<path d="M419.673 300.279C420.091 301.472 420.223 301.51 421.207 302.383C432.459 311.217 436.862 324.217 427.785 336.414C425.92 335.065 423.742 334.477 421.73 333.429C417.605 331.276 413.358 329.686 409.069 327.905C407.65 327.437 406.944 327.208 405.585 326.537L405.782 326.13C406.559 325.563 407.456 324.811 408.221 324.201C413.875 319.509 417.039 315.077 417.969 307.707L418.045 305.507C418.387 303.543 417.589 301.773 418.822 300.301L419.673 300.279Z" fill="#D60572"/>
<path d="M419.673 300.279C420.091 301.472 420.223 301.51 421.207 302.383C422.884 313.75 417.406 321.156 409.069 327.905C407.65 327.437 406.944 327.208 405.585 326.537L405.782 326.13C406.559 325.563 407.456 324.811 408.221 324.201C413.875 319.509 417.039 315.077 417.969 307.707L418.045 305.507C418.387 303.543 417.589 301.773 418.822 300.301L419.673 300.279Z" fill="#F13692"/>
<path d="M400.307 275.827C403.274 271.975 406.682 264.848 408.449 260.205L408.635 260.689C409.718 263.463 411.419 266.741 412.546 269.633C415.095 276.177 419.73 293.776 419.673 300.279L418.822 300.301C417.589 301.773 418.388 303.543 418.046 305.507C417.958 299.48 410.992 287.5 409.116 281.005C408.093 277.463 403.654 277.093 400.307 275.827Z" fill="#D60572"/>
<path d="M412.423 297.1C413.76 299.975 416.087 305.455 417.969 307.707C417.039 315.077 413.875 319.509 408.222 324.201C406.832 321.944 405.251 318.631 404.01 316.212L412.423 297.1Z" fill="#D60572"/>
<path d="M377.751 318.453C378.528 317.651 378.596 317.742 379.985 317.717C387.083 317.594 394.36 317.887 401.439 317.698C402.481 319.638 404.811 324.669 405.782 326.13L405.585 326.537C401.988 325.566 397.919 324.061 394.276 322.956C388.923 321.369 383.53 319.917 378.107 318.601L377.751 318.453Z" fill="#D60572"/>
<path d="M365.16 300.881L365.439 300.897C366.53 300.949 368.261 300.695 368.92 300.897C369.965 302.974 375.656 315.208 375.164 316.579C375.008 317.017 374.74 317.416 374.535 317.832C374.524 317.851 374.524 317.873 374.516 317.892L373.972 317.827C373.649 318.765 372.982 320.437 372.112 320.896C360.442 318.861 352.929 317.868 341.021 317.375C339.847 317.145 339.18 317.238 338.48 316.505C338.28 315.523 338.067 314.776 337.788 313.813C336.355 313.849 335.666 313.887 334.235 313.668C334.15 313.236 333.94 312.697 333.795 312.267C334.364 312.169 336.79 311.348 337.476 311.132C346.51 308.399 356.506 304.514 365.16 300.881Z" fill="#D60572"/>
<path d="M337.788 313.813C348.424 313.84 363.587 315.211 373.972 317.826C373.649 318.765 372.982 320.436 372.112 320.896C360.442 318.861 352.929 317.867 341.021 317.375C339.848 317.145 339.18 317.238 338.48 316.505C338.28 315.523 338.067 314.776 337.788 313.813Z" fill="#F13692"/>
<path d="M333.795 312.267C334.364 312.169 336.79 311.348 337.476 311.132C337.498 312.486 337.728 312.511 337.121 313.425C335.923 313.728 335.389 313.526 334.235 313.668C334.15 313.236 333.94 312.697 333.795 312.267Z" fill="#F13692"/>
<path d="M146.926 161.074C174.817 159.237 198.886 180.431 200.6 208.339C202.314 236.246 181.02 260.23 153.114 261.819C125.381 263.403 101.587 242.262 99.8832 214.529C98.1799 186.795 119.208 162.9 146.926 161.074Z" fill="#FEFEFE"/>
<path d="M150.879 171.895C172.719 172.193 190.184 190.14 189.893 211.986C189.602 233.832 171.665 251.308 149.826 251.024C127.977 250.74 110.497 232.788 110.788 210.932C111.079 189.077 129.031 171.597 150.879 171.895Z" fill="black"/>
<path d="M133.308 185.42C140.006 184.565 146.145 189.262 147.072 195.953C148 202.645 143.37 208.836 136.691 209.836C132.306 210.492 127.907 208.741 125.171 205.251C122.435 201.761 121.785 197.069 123.468 192.966C125.152 188.863 128.909 185.981 133.308 185.42Z" fill="#FEFEFE"/>
<path d="M356.766 161.364C384.482 158.911 408.935 179.4 411.383 207.124C413.828 234.848 393.341 259.306 365.624 261.748C337.919 264.188 313.477 243.702 311.031 215.986C308.584 188.27 329.06 163.817 356.766 161.364Z" fill="#FEFEFE"/>
<path d="M360.291 171.993C382.092 171.551 400.137 188.847 400.627 210.654C401.116 232.462 383.864 250.55 362.063 251.085C340.197 251.622 322.048 234.301 321.558 212.427C321.069 190.554 338.422 172.437 360.291 171.993Z" fill="black"/>
<path d="M343.871 185.518C350.593 184.591 356.802 189.282 357.745 196.006C358.689 202.73 354.012 208.949 347.292 209.91C340.55 210.873 334.307 206.177 333.36 199.43C332.414 192.683 337.124 186.448 343.871 185.518Z" fill="#FEFEFE"/>
<path d="M253.365 61.4709C260.516 60.8255 269.471 62.7556 274.998 67.4086C284.735 75.6065 280.26 87.0372 269.698 91.3231C265.565 93.0005 262.756 93.7301 258.266 94.0111C251.614 94.7968 242.989 92.6629 237.595 88.6779C231.241 83.9838 229.345 76.0062 234.708 69.7125C239.483 64.1076 246.314 62.1548 253.365 61.4709Z" fill="#F13692"/>
<path d="M224.416 97.5295C232.659 96.9249 243.808 99.1663 245.792 108.789C246.373 111.657 245.765 114.638 244.106 117.049C241.375 121.07 236.577 122.978 232.015 123.94C209.317 127.382 199.75 102.976 224.416 97.5295Z" fill="#F13692"/>
<path d="M279.344 97.5455C287.27 96.609 297.874 99.4888 300.163 108.198C300.899 111.016 300.439 114.012 298.891 116.479C296.181 120.887 291.49 122.842 286.688 123.929C281.015 124.753 275.926 124.202 270.934 121.138C265.082 117.543 262.735 110.558 266.796 104.627C269.701 100.383 274.43 98.4385 279.344 97.5455Z" fill="#F13692"/>
<path d="M231.977 241.372C236.912 240.783 237.081 243.936 238.656 247.778C244.238 261.395 265.245 261.4 271.971 248.785C273.19 246.496 273.07 243.477 275.403 242.001C277.755 240.369 279.858 240.672 281.182 243.337C282.522 246.158 281.527 248.492 280.49 251.214C278.395 255.717 275.452 259.352 271.347 262.164C265.016 266.407 257.248 267.931 249.785 266.393C242.83 265.058 236.687 261.023 232.704 255.165C231.095 252.75 228.447 247.537 229.146 244.557C229.535 242.9 230.631 242.194 231.977 241.372Z" fill="black"/>
<path d="M370.591 267.756C390.639 267.482 395.118 285.489 373.203 287.779C368.493 288.203 362.988 287.207 359.143 284.236C355.363 281.314 354.285 276.242 357.726 272.541C361.197 268.804 365.756 268.117 370.591 267.756Z" fill="#FC95C7"/>
<path d="M138.249 267.753C158.549 267.551 161.059 286.813 139.031 287.738C117.147 287.128 116.551 269.047 138.249 267.753Z" fill="#FC95C7"/>
<path d="M206.564 72.1342C222.728 70.3081 228.859 89.0027 209.906 92.829C203.583 93.1326 195.308 91.4039 194.208 83.8914C193.859 81.518 194.493 79.1048 195.964 77.2102C198.568 73.828 202.543 72.6272 206.564 72.1342Z" fill="#F13692"/>
<path d="M303.01 72.1302C308.964 71.4186 316.909 74.6403 318.022 81.1647C318.405 83.529 317.817 85.948 316.392 87.8723C314.035 91.1017 310.476 92.2286 306.746 92.8345C300.28 93.139 291.887 91.2316 290.733 83.611C290.374 81.2457 291.031 78.8395 292.54 76.9827C295.13 73.7345 299.077 72.5762 303.01 72.1302Z" fill="#F13692"/>
<path d="M254.125 127.928C270.995 127.091 273.407 145.332 256.718 147.152C240.921 148.5 237.205 130.315 254.125 127.928Z" fill="#F13692"/>
<path d="M329.241 93.7203C342.035 92.8134 346.001 106.928 332.022 109.792C327.154 109.898 321.244 108.7 320.298 102.947C319.969 100.957 320.492 98.9216 321.739 97.3367C323.631 94.9213 326.347 94.0915 329.241 93.7203Z" fill="#F13692"/>
<path d="M180.497 93.744C185.033 93.2893 190.412 95.308 191.398 100.255C191.764 102.139 191.347 104.091 190.243 105.662C188.34 108.425 185.721 109.17 182.674 109.782C177.755 109.912 171.786 108.369 171.151 102.55C170.952 100.649 171.526 98.7491 172.743 97.2762C174.745 94.8139 177.506 94.0539 180.497 93.744Z" fill="#F13692"/>
<path d="M102.28 259.945C104.42 265.657 107.262 271.08 110.741 276.086L113.07 278.825C121.842 288.321 128.973 292.463 140.25 298.263C141.249 298.703 142.157 299.086 143.117 299.622C146.611 300.938 149.932 302.539 153.379 303.874C159.854 306.38 166.864 308.96 173.54 310.88L183.158 313.879C191.768 316.029 200.51 318.519 209.252 320.732C208.808 321.952 208.948 323.273 208.364 324.223C206.029 324.464 196.723 321.512 193.174 320.923C193.361 331.935 189.393 340.454 183.949 350.016C183.061 349.335 181.854 348.344 180.952 347.745L179.293 350.339C176.357 354.122 174.22 356.834 170.93 360.333L168.555 362.776L162.551 367.935C159.269 370.543 155.942 373.095 152.572 375.59C138.445 385.242 123.491 394.645 107.697 402.018C87.6151 411.038 60.5758 422.091 38.4731 415.552C25.6384 411.158 25.2016 398.434 29.2989 387.841C38.9979 362.77 61.1285 348.864 84.3331 338.148C83.8137 337.552 83.2523 336.783 82.7613 336.145C74.7284 323.998 77.7353 310.842 89.4697 302.416C90.9271 301.04 91.1082 300.919 91.3155 298.955C92.4204 289.098 95.5099 277.402 98.7448 268.032C99.5694 265.644 101.227 262.744 102.187 260.199L102.28 259.945Z" fill="#FD74B8"/>
<path d="M102.28 259.945C104.42 265.657 107.262 271.08 110.741 276.086L113.07 278.825C121.842 288.321 128.973 292.463 140.25 298.263C141.249 298.703 142.156 299.086 143.117 299.622L143.005 299.91C141.876 302.76 135.158 315.077 136.075 317.405C136.121 317.523 136.181 317.638 136.234 317.753C135.654 317.862 133.918 318.229 133.428 318.231L130.753 318.945C130.078 320.934 130.621 320.995 130.387 322.455C122.653 324.54 116.286 326.217 108.701 328.819L105.119 330.116C104.007 328.904 103.419 328.346 101.854 327.897C99.8732 328.644 97.5816 329.489 95.6846 330.389C93.4435 331.295 84.2524 334.999 82.7613 336.145C74.7284 323.998 77.7352 310.842 89.4696 302.416C90.9271 301.04 91.1081 300.919 91.3155 298.955C92.4204 289.098 95.5098 277.402 98.7447 268.032C99.5693 265.644 101.227 262.744 102.187 260.199L102.28 259.945Z" fill="#F13692"/>
<path d="M113.07 278.825C121.842 288.321 128.972 292.463 140.25 298.263C137.767 303.781 135.235 309.277 132.654 314.752C124.699 314.683 116.744 314.659 108.79 314.675C106.238 309.146 101.999 299.01 99.9746 293.237C101.121 289.352 102.978 284.704 104.548 280.973C106.473 280.636 110.981 279.339 113.07 278.825Z" fill="#D60572"/>
<path d="M91.3155 298.955L91.4738 300.18C92.2087 300.615 92.1488 300.498 93.0749 300.594C92.5202 302.388 92.7789 306.265 92.8588 308.265C94.2545 315.567 96.3273 318.992 102.085 323.837C103.056 324.707 103.823 325.35 104.858 326.141L105.857 326.365C107.102 327.153 107.842 327.599 108.701 328.819L105.119 330.116C104.007 328.904 103.419 328.346 101.854 327.897C99.8732 328.644 97.5816 329.489 95.6846 330.389C93.4435 331.295 84.2524 334.999 82.7613 336.145C74.7284 323.998 77.7352 310.842 89.4696 302.416C90.9271 301.04 91.1081 300.919 91.3155 298.955Z" fill="#D60572"/>
<path d="M91.3156 298.955L91.4739 300.18C92.2088 300.615 92.1489 300.498 93.075 300.594C92.5203 302.388 92.779 306.265 92.8589 308.265C94.2546 315.567 96.3274 318.992 102.085 323.837C103.056 324.707 103.823 325.35 104.858 326.141L105.857 326.365C107.102 327.153 107.842 327.599 108.701 328.819L105.119 330.116C104.007 328.904 103.419 328.346 101.854 327.897C91.6243 321.107 89.4692 314.059 89.4697 302.416C90.9272 301.04 91.1082 300.919 91.3156 298.955Z" fill="#F13692"/>
<path d="M102.28 259.945C104.42 265.657 107.262 271.08 110.741 276.086C108.423 276.696 104.205 277.687 102.089 278.431C99.9683 283.355 95.5358 296.876 93.0748 300.594C92.1488 300.498 92.2087 300.616 91.4738 300.181L91.3154 298.955C92.4204 289.098 95.5098 277.402 98.7447 268.032C99.5693 265.644 101.227 262.744 102.187 260.199L102.28 259.945Z" fill="#D60572"/>
<path d="M108.743 317.744C112.244 317.717 131.415 317.452 133.428 318.231L130.753 318.945C130.078 320.934 130.621 320.994 130.387 322.455C122.653 324.54 116.286 326.217 108.701 328.819C107.841 327.599 107.102 327.153 105.857 326.365L104.858 326.14C105.585 323.689 107.531 320.1 108.743 317.744Z" fill="#D60572"/>
<path d="M105.857 326.365C111.477 324.231 124.988 320.141 130.753 318.945C130.078 320.934 130.622 320.994 130.387 322.455C122.654 324.54 116.286 326.217 108.701 328.819C107.842 327.599 107.102 327.153 105.857 326.365Z" fill="#F13692"/>
<path d="M98.0682 297.757C99.4504 300.249 104.93 313.422 105.852 316.089C104.902 318.256 103.355 321.996 102.085 323.837C96.3274 318.992 94.2545 315.567 92.8589 308.265C95.0045 305.277 96.1272 301.154 98.0682 297.757Z" fill="#D60572"/>
<path d="M143.117 299.623C146.611 300.938 149.932 302.539 153.379 303.874C159.854 306.38 166.864 308.96 173.54 310.88L183.158 313.879C191.768 316.029 200.51 318.519 209.252 320.732C208.808 321.952 208.948 323.274 208.364 324.223C206.029 324.464 196.723 321.512 193.174 320.924C193.361 331.935 189.393 340.454 183.949 350.016C183.061 349.335 181.854 348.345 180.952 347.745C184.478 341.292 187.854 334.646 189.272 327.361C189.886 324.207 189.785 322.168 188.04 319.446C181.166 315.208 155.509 317.941 147.2 319.194C141.561 320.097 135.954 321.186 130.387 322.456C130.622 320.995 130.078 320.934 130.753 318.946L133.428 318.232C133.918 318.229 135.655 317.862 136.234 317.753C136.181 317.638 136.122 317.523 136.075 317.405C135.159 315.077 141.876 302.761 143.005 299.91L143.117 299.623Z" fill="#F13692"/>
<path d="M143.117 299.623C146.611 300.938 149.932 302.539 153.379 303.874C159.854 306.38 166.864 308.96 173.54 310.88C173.961 312.114 174.203 312.158 173.971 313.228C172.61 314.193 169.896 313.408 167.368 313.821C158.895 314.059 151.006 314.708 142.675 316.418C140.868 316.787 137.942 317.225 136.234 317.753C136.181 317.638 136.122 317.523 136.075 317.405C135.159 315.077 141.876 302.761 143.005 299.91L143.117 299.623Z" fill="#D60572"/>
<path d="M173.54 310.88L183.157 313.879C181.315 313.996 178.825 313.775 176.907 313.799C173.729 313.84 170.546 313.865 167.368 313.821C169.896 313.408 172.609 314.193 173.97 313.228C174.203 312.158 173.961 312.114 173.54 310.88Z" fill="#F13692"/>
<path d="M82.7612 336.146C84.2523 334.999 93.4435 331.295 95.6845 330.389C96.4454 332.748 95.411 332.337 95.8686 333.481C92.9646 334.805 87.3363 337.141 84.333 338.148C83.8136 337.552 83.2522 336.783 82.7612 336.146Z" fill="#F13692"/>
<path d="M101.854 327.897C103.419 328.346 104.007 328.904 105.119 330.116C102.182 331.164 98.7652 332.553 95.8686 333.481C95.4111 332.337 96.4454 332.748 95.6846 330.389C97.5815 329.489 99.8732 328.644 101.854 327.897Z" fill="#F13692"/>
<path d="M76.9175 352.073C82.8964 351.086 88.5611 355.077 89.645 361.041C90.7289 367.005 86.8313 372.737 80.8879 373.919C76.9555 374.701 72.9075 373.3 70.2975 370.255C67.6875 367.213 66.9215 362.997 68.2933 359.227C69.6652 355.46 72.9619 352.724 76.9175 352.073Z" fill="#F13692"/>
<path d="M78.8388 378.553C84.2385 377.464 89.4877 380.991 90.5259 386.402C91.5641 391.814 87.9928 397.033 82.5748 398.024C77.2238 399.001 72.0851 395.482 71.0597 390.139C70.0347 384.796 73.5064 379.626 78.8388 378.553Z" fill="#F13692"/>
<path d="M54.8871 367.741C60.167 366.614 65.3615 369.976 66.4987 375.257C67.6359 380.534 64.2861 385.737 59.0115 386.886C53.7207 388.038 48.5001 384.676 47.3594 379.379C46.2189 374.086 49.5917 368.871 54.8871 367.741Z" fill="#F13692"/>
<path d="M41.5028 387.738C46.0554 386.52 50.7314 389.231 51.9406 393.786C53.15 398.341 50.4333 403.017 45.8766 404.218C41.3305 405.416 36.6726 402.708 35.4662 398.161C34.2598 393.617 36.9608 388.952 41.5028 387.738Z" fill="#F13692"/>
<path d="M99.0671 369.867C103.427 369.284 107.43 372.354 108.001 376.718C108.572 381.078 105.493 385.075 101.13 385.636C96.7837 386.194 92.8054 383.128 92.2365 378.78C91.6679 374.433 94.7232 370.447 99.0671 369.867Z" fill="#F13692"/>
<path d="M98.3268 350.651C101.806 349.816 105.305 351.956 106.148 355.436C106.99 358.913 104.858 362.417 101.382 363.268C97.8961 364.119 94.3803 361.98 93.5354 358.491C92.6906 355.001 94.8373 351.49 98.3268 350.651Z" fill="#F13692"/>
<path d="M61.4171 392.801C64.6788 392.273 67.7467 394.503 68.2513 397.77C68.7559 401.036 66.5039 404.086 63.2348 404.568C60.0001 405.044 56.9875 402.82 56.4881 399.586C55.9887 396.355 58.1896 393.324 61.4171 392.801Z" fill="#F13692"/>
<path d="M341.021 317.375C352.929 317.868 360.442 318.861 372.112 320.896L375.812 321.703C376.603 320.352 376.914 319.266 378.107 318.601C383.53 319.917 388.924 321.369 394.276 322.956C397.919 324.061 401.989 325.566 405.585 326.537C406.944 327.208 407.65 327.437 409.07 327.905C413.358 329.686 417.605 331.276 421.73 333.429C423.743 334.477 425.92 335.065 427.785 336.414L426.489 338.304C431.868 340.323 438.203 343.663 443.224 346.457C459.076 355.274 473.216 366.316 480.712 383.415C483.696 390.221 485.983 397.857 483.332 405.238C481.738 409.687 478.1 413.082 473.812 414.898C457.801 421.68 430.944 412.803 415.527 406.907C394.872 399.006 376.523 387.929 358.727 375.273L356.274 376.947C355.166 375.837 352.179 373.82 350.713 372.668C347.47 370.138 344.404 367.391 341.532 364.445L342.626 363.375C343.488 363.175 343.395 363.11 344.114 362.505L341.745 360.024C338.805 356.814 336.639 354.054 334.077 350.588C333.551 349.983 332.758 348.582 332.307 347.844C328.546 342.134 324.471 332.356 323.626 325.613C322.412 315.887 334.55 317.427 341.021 317.375Z" fill="#FD74B8"/>
<path d="M375.812 321.703C376.603 320.351 376.915 319.265 378.107 318.601C383.531 319.917 388.924 321.369 394.276 322.956C397.919 324.061 401.989 325.566 405.585 326.537C406.945 327.207 407.65 327.437 409.07 327.905C413.358 329.686 417.606 331.276 421.73 333.429C423.743 334.476 425.92 335.065 427.785 336.413L426.489 338.304C425.414 338.099 421.965 336.616 420.8 336.156C416.892 334.616 413.03 332.985 409.075 331.533C398.22 327.519 387.108 324.236 375.812 321.703Z" fill="#F13692"/>
<path d="M344.114 362.505C349.283 367.394 353.232 370.762 358.727 375.273L356.274 376.947C355.166 375.836 352.18 373.82 350.714 372.668C347.47 370.138 344.404 367.391 341.532 364.445L342.626 363.375C343.488 363.175 343.395 363.109 344.114 362.505Z" fill="#F13692"/>
<path d="M430.832 352.016C436.892 351.198 442.48 355.422 443.347 361.476C444.217 367.533 440.04 373.155 433.993 374.075C427.875 375.005 422.173 370.767 421.295 364.639C420.417 358.511 424.7 352.842 430.832 352.016Z" fill="#F13692"/>
<path d="M428.931 378.479C434.343 377.612 439.433 381.292 440.305 386.703C441.18 392.115 437.505 397.209 432.098 398.09C426.68 398.968 421.579 395.288 420.704 389.869C419.829 384.452 423.515 379.349 428.931 378.479Z" fill="#F13692"/>
<path d="M452.112 367.771C455.533 367.002 459.103 368.138 461.457 370.737C463.812 373.339 464.583 377.005 463.481 380.334C462.376 383.666 459.568 386.142 456.127 386.823C450.9 387.855 445.816 384.492 444.719 379.278C443.62 374.066 446.913 368.937 452.112 367.771Z" fill="#F13692"/>
<path d="M465.495 387.745C468.473 386.952 471.646 387.833 473.793 390.046C475.937 392.262 476.717 395.463 475.828 398.418C474.942 401.37 472.527 403.61 469.518 404.275C465 405.274 460.515 402.478 459.418 397.98C458.324 393.485 461.023 388.938 465.495 387.745Z" fill="#F13692"/>
<path d="M410.104 369.856C414.46 369.306 418.44 372.392 418.992 376.753C419.545 381.111 416.457 385.094 412.1 385.647C407.741 386.2 403.758 383.111 403.206 378.75C402.656 374.389 405.744 370.406 410.104 369.856Z" fill="#F13692"/>
<path d="M409.767 350.648C413.257 349.939 416.665 352.185 417.384 355.674C418.106 359.162 415.869 362.576 412.384 363.309C408.883 364.045 405.451 361.796 404.729 358.292C404.004 354.787 406.263 351.362 409.767 350.648Z" fill="#F13692"/>
<path d="M447.526 392.812C449.626 392.314 451.834 392.984 453.3 394.568C454.768 396.15 455.271 398.401 454.618 400.459C453.961 402.516 452.249 404.062 450.138 404.505C446.93 405.175 443.782 403.145 443.068 399.947C442.351 396.749 444.34 393.57 447.526 392.812Z" fill="#F13692"/>
<path d="M209.252 320.732L209.475 320.885L210.293 324.628C210.817 326.466 211.801 329.224 212.2 330.86C216.115 342.755 222.189 351.365 233.7 356.738C235.28 357.329 236.862 357.912 238.448 358.483C250.701 361.692 262.267 361.821 274.41 358.01C277.884 359.63 282.684 362.021 286.201 363.38C286.846 370.444 287.763 378.214 288.222 385.215L291.14 384.266L291.343 384.274L293.342 383.71L293.955 384.036C294.102 384.928 294.228 386.014 294.513 386.843L292.122 387.674L291.789 388.044C292.081 391.264 296.402 398.18 296.05 401.824L293.739 402.305C272.108 408.015 239.959 407.947 218.285 402.368L215.606 401.676L215.685 400.897L215.592 400.382C215.132 400.021 202.553 396.585 200.761 395.986C189.325 392.188 178.231 387.431 167.597 381.762C166.67 382.846 166.701 383.13 165.503 383.516C161.684 381.385 158.735 379.658 155.085 377.267L152.572 375.59C155.942 373.095 159.269 370.543 162.552 367.936L168.555 362.776L170.93 360.333C174.22 356.834 176.357 354.122 179.293 350.339L180.952 347.745C181.854 348.344 183.061 349.335 183.949 350.016C189.393 340.454 193.361 331.935 193.174 320.923C196.724 321.512 206.029 324.464 208.364 324.223C208.948 323.273 208.808 321.952 209.252 320.732Z" fill="#D60572"/>
<path d="M209.252 320.732L209.475 320.885L210.293 324.628C210.816 326.466 211.801 329.224 212.199 330.86C216.115 342.755 222.189 351.365 233.7 356.738C235.279 357.329 236.862 357.912 238.448 358.483C234.698 360.007 230.965 361.476 227.267 363.129C227.075 365.246 225.629 384.586 225.101 385.1C225.065 385.133 225.02 385.16 224.98 385.19L222.332 384.512C213.047 382.154 199.864 376.668 191.359 372.299L188.337 370.822C184.153 368.573 177.667 365.172 173.892 362.417C172.894 361.739 171.907 361.044 170.93 360.333C174.22 356.834 176.357 354.122 179.293 350.339L180.952 347.745C181.854 348.344 183.061 349.335 183.949 350.016C189.392 340.454 193.361 331.935 193.173 320.923C196.723 321.512 206.029 324.464 208.364 324.223C208.948 323.273 208.808 321.952 209.252 320.732Z" fill="#D60572"/>
<path d="M209.252 320.732L209.475 320.885L210.293 324.628C209.045 325.774 208.79 324.067 208.777 326.072C208.739 332.211 208.52 338.351 208.257 344.484C202.599 347.95 196.963 351.45 191.348 354.984C188.784 353.244 186.39 351.633 183.745 350.008C183.129 350.812 182.598 351.485 182.061 352.344C184.647 354.002 187.208 355.698 189.743 357.436C189.326 361.903 188.857 366.365 188.337 370.822C184.153 368.573 177.667 365.172 173.892 362.417C172.894 361.739 171.907 361.044 170.93 360.333C174.22 356.834 176.357 354.122 179.293 350.339L180.952 347.745C181.854 348.344 183.061 349.335 183.949 350.016C189.392 340.454 193.361 331.935 193.173 320.923C196.723 321.512 206.029 324.464 208.364 324.223C208.948 323.273 208.808 321.952 209.252 320.732Z" fill="#D60572"/>
<path d="M179.293 350.339C180.196 350.974 181.183 351.59 182.096 352.206C180.521 354.816 176.116 360.054 173.892 362.417C172.894 361.739 171.907 361.044 170.93 360.333C174.22 356.834 176.357 354.122 179.293 350.339Z" fill="#F13692"/>
<path d="M210.293 324.628C210.816 326.466 211.801 329.224 212.199 330.86C216.115 342.755 222.189 351.365 233.7 356.738C235.279 357.329 236.862 357.911 238.448 358.483C234.698 360.007 230.965 361.476 227.267 363.129C227.075 365.246 225.629 384.585 225.101 385.1C225.065 385.133 225.02 385.16 224.98 385.19L222.332 384.512C222.577 379.114 223.543 367.883 224.334 362.735C219.367 357.665 214.46 352.536 209.614 347.348C204.619 350.599 197.997 354.374 192.785 357.386C192.302 362.513 191.598 367.123 191.359 372.299L188.337 370.822C188.857 366.365 189.326 361.903 189.743 357.435C187.208 355.698 181.878 352.004 179.292 350.346C179.829 349.487 180.344 348.566 180.96 347.762C183.605 349.387 188.784 353.244 191.348 354.984C196.963 351.449 202.599 347.95 208.257 344.484C208.52 338.35 208.739 332.211 208.777 326.072C208.784 324.973 208.999 320.73 209.275 320.78C209.476 320.78 210.293 324.628 210.293 324.628Z" fill="#F13692"/>
<path d="M212.199 330.86C216.115 342.755 222.189 351.365 233.7 356.738C232.76 357.567 227.509 359.687 226.066 360.3C221.37 355.717 215.911 349.586 211.37 344.719C211.45 342.282 211.588 332.354 212.199 330.86Z" fill="#D60572"/>
<path d="M274.41 358.01C277.884 359.63 282.684 362.021 286.201 363.38C286.846 370.444 287.762 378.214 288.222 385.215L284.576 385.912C262.406 389.784 247.481 390.391 224.98 385.19C225.02 385.16 225.065 385.133 225.101 385.1C225.63 384.586 227.075 365.246 227.267 363.129C230.965 361.476 234.698 360.007 238.448 358.483C250.701 361.692 262.267 361.821 274.41 358.01Z" fill="#D60572"/>
<path d="M168.555 362.776L170.858 364.641C181.433 371.848 193.894 377.601 205.72 382.465C211.063 384.662 216.672 386.243 222.175 388.005C220.819 391.028 219.537 393.863 217.999 396.795C217.436 397.871 216.065 400.015 215.685 400.896L215.592 400.382C215.132 400.021 202.553 396.585 200.761 395.986C189.325 392.188 178.231 387.431 167.597 381.762C166.67 382.846 166.701 383.13 165.503 383.516C161.684 381.385 158.735 379.658 155.085 377.267L152.572 375.59C155.942 373.095 159.269 370.543 162.552 367.935L168.555 362.776Z" fill="#D60572"/>
<path d="M162.552 367.936C163.481 368.994 163.916 369.224 164.512 370.488C162.156 372.641 157.765 375.514 155.085 377.267L152.572 375.59C155.942 373.095 159.269 370.543 162.552 367.936Z" fill="#F13692"/>
<path d="M168.555 362.776L170.858 364.641C168.532 367.199 167.289 368.463 164.511 370.488C163.915 369.224 163.481 368.994 162.551 367.935L168.555 362.776Z" fill="#F13692"/>
<path d="M170.931 360.333C171.907 361.044 172.894 361.739 173.892 362.417C177.667 365.172 184.153 368.573 188.338 370.822L191.36 372.299C199.864 376.668 213.047 382.154 222.332 384.512L224.98 385.19C247.481 390.391 262.407 389.784 284.576 385.913L288.222 385.215L291.14 384.266L291.343 384.274L293.342 383.71L293.955 384.036C294.102 384.928 294.228 386.014 294.513 386.843L292.122 387.674L291.788 388.044C292.081 391.264 296.402 398.18 296.05 401.824L293.738 402.305C293.547 401.674 292.303 399.148 291.944 398.33C290.5 395.129 289.212 391.86 288.085 388.536L285.741 389.122C264.915 393.11 246.555 393.398 225.635 388.9C223.191 393.989 221.644 397.759 218.285 402.368L215.606 401.676L215.685 400.897C216.065 400.016 217.436 397.871 217.999 396.796C219.537 393.863 220.819 391.029 222.175 388.005C216.672 386.244 211.063 384.662 205.72 382.465C193.894 377.601 181.433 371.848 170.858 364.642L168.555 362.776L170.931 360.333Z" fill="#F13692"/>
<path d="M293.342 383.71L293.954 384.036C294.102 384.928 294.228 386.014 294.512 386.843L292.122 387.674C291.375 387.176 291.438 385.209 291.342 384.274L293.342 383.71Z" fill="#F13692"/>
<path d="M341.746 360.023L344.114 362.505C343.395 363.109 343.488 363.175 342.626 363.375L341.532 364.445C344.404 367.391 347.47 370.138 350.714 372.668C352.18 373.82 355.166 375.836 356.274 376.947C352.773 379.563 349.617 381.281 345.859 383.458C347.169 384.484 349.1 388.293 349.959 389.939C359.37 408.004 369.424 437.149 356.402 455.364C348.326 466.66 330.45 462.633 321.838 454.513C310.025 444.357 302.685 429.997 298.5 415.18C297.477 411.558 296.411 407.367 296.249 403.621L296.05 401.824C296.402 398.18 292.081 391.264 291.789 388.044L292.122 387.674L294.513 386.843C294.228 386.014 294.102 384.927 293.955 384.036L293.342 383.71C302.605 381.086 314.541 375.741 323.052 371.246L325.902 369.736C327.48 368.98 328.924 368.121 330.439 367.246C332.909 365.755 336.579 363.722 338.732 362.004L338.899 362.032C339.968 361.088 340.553 360.759 341.746 360.023Z" fill="#FD74B8"/>
<path d="M341.746 360.023L344.114 362.505C343.395 363.109 343.488 363.175 342.626 363.375L341.532 364.445C344.404 367.391 347.47 370.138 350.714 372.668C352.18 373.82 355.166 375.836 356.274 376.947C352.773 379.563 349.617 381.281 345.859 383.458C344.869 383.007 344.661 382.588 343.953 381.707C328.549 389.327 313.493 396.062 296.602 399.739C296.124 399.843 296.241 403.178 296.249 403.621L296.05 401.824C296.402 398.18 292.081 391.264 291.789 388.044L292.122 387.674L294.513 386.843C294.228 386.014 294.102 384.927 293.955 384.036L293.342 383.71C302.605 381.086 314.541 375.741 323.052 371.246L325.902 369.736C327.48 368.98 328.924 368.121 330.439 367.246C332.909 365.755 336.579 363.722 338.732 362.004L338.899 362.032C339.968 361.088 340.553 360.759 341.746 360.023Z" fill="#D60572"/>
<path d="M341.745 360.023L344.114 362.505C343.395 363.109 343.488 363.175 342.626 363.375L341.532 364.445C338.452 366.086 335.791 368.171 332.63 369.82C320.59 376.887 307.807 382.597 294.512 386.843C294.228 386.014 294.102 384.927 293.954 384.036L293.342 383.71C302.605 381.086 314.541 375.741 323.052 371.246L325.902 369.736C327.48 368.98 328.924 368.121 330.439 367.246C332.909 365.755 336.579 363.722 338.731 362.004L338.898 362.032C339.968 361.088 340.553 360.759 341.745 360.023Z" fill="#F13692"/>
<path d="M341.746 360.023L344.114 362.505C343.395 363.109 343.488 363.175 342.626 363.375C341.959 363.676 341.918 363.714 341.207 363.843C340.044 362.943 339.984 363.29 338.898 362.032C339.968 361.088 340.553 360.759 341.746 360.023Z" fill="#F13692"/>
<path d="M346.406 422.383C349.576 421.576 352.798 423.505 353.583 426.681C354.368 429.858 352.417 433.067 349.237 433.83C346.086 434.588 342.916 432.659 342.137 429.513C341.36 426.367 343.266 423.182 346.406 422.383Z" fill="#F13692"/>
<path d="M343.827 441.805C346.879 440.987 350.016 442.806 350.823 445.862C351.63 448.918 349.8 452.051 346.739 452.844C343.698 453.637 340.588 451.818 339.784 448.779C338.983 445.736 340.788 442.62 343.827 441.805Z" fill="#F13692"/>
<path d="M337.714 431.031C340.772 430.968 343.302 433.387 343.381 436.44C343.457 439.496 341.051 442.04 337.996 442.13C334.924 442.221 332.362 439.797 332.285 436.722C332.206 433.649 334.643 431.097 337.714 431.031Z" fill="#F13692"/>
<path d="M330.554 441.441C333.092 440.968 335.556 442.568 336.158 445.083C336.759 447.594 335.285 450.138 332.807 450.866C331.087 451.372 329.23 450.888 327.975 449.608C326.719 448.327 326.273 446.459 326.812 444.752C327.354 443.042 328.79 441.767 330.554 441.441Z" fill="#F13692"/>
<path d="M323.377 431.642C325.694 430.903 328.177 432.145 328.979 434.44C329.78 436.736 328.609 439.253 326.337 440.117C324.81 440.7 323.087 440.404 321.84 439.348C320.593 438.295 320.016 436.643 320.336 435.042C320.656 433.439 321.821 432.137 323.377 431.642Z" fill="#F13692"/>
<path d="M333.439 421.79C335.425 421.215 337.501 422.362 338.075 424.348C338.652 426.337 337.506 428.413 335.521 428.991C333.532 429.565 331.454 428.421 330.877 426.433C330.302 424.444 331.448 422.364 333.439 421.79Z" fill="#F13692"/>
<path d="M350.927 435.734C352.726 435.034 354.759 435.909 355.486 437.698C356.216 439.488 355.377 441.531 353.599 442.292C352.423 442.793 351.069 442.623 350.054 441.843C349.04 441.066 348.526 439.8 348.706 438.536C348.887 437.269 349.734 436.199 350.927 435.734Z" fill="#F13692"/>
<path d="M165.503 383.516C166.702 383.13 166.67 382.846 167.597 381.762C178.231 387.431 189.325 392.188 200.761 395.986C202.553 396.585 215.132 400.021 215.592 400.382L215.685 400.896L215.606 401.676C215.017 403.416 214.105 409.153 213.437 411.634C208.908 428.222 199.319 450.207 183.466 458.384C151.793 474.725 142.688 438.716 150.872 415.041C153.14 408.48 160.719 386.202 165.503 383.516Z" fill="#FD74B8"/>
<path d="M161.305 422.427C164.415 421.612 167.599 423.464 168.432 426.572C169.264 429.677 167.432 432.875 164.331 433.726C161.204 434.585 157.975 432.733 157.136 429.601C156.296 426.465 158.167 423.248 161.305 422.427Z" fill="#F13692"/>
<path d="M163.511 441.813C166.517 440.905 169.689 442.609 170.595 445.616C171.502 448.623 169.799 451.796 166.793 452.702C163.787 453.607 160.615 451.906 159.709 448.899C158.802 445.892 160.505 442.719 163.511 441.813Z" fill="#F13692"/>
<path d="M172.1 431.034C175.069 430.698 177.766 432.788 178.18 435.748C178.593 438.708 176.573 441.46 173.626 441.95C171.65 442.278 169.652 441.507 168.406 439.939C167.161 438.372 166.865 436.249 167.632 434.399C168.4 432.55 170.11 431.261 172.1 431.034Z" fill="#F13692"/>
<path d="M178.046 441.507C180.737 441.055 183.296 442.839 183.802 445.523C184.309 448.204 182.578 450.8 179.907 451.361C178.13 451.736 176.289 451.12 175.096 449.75C173.902 448.382 173.542 446.472 174.154 444.762C174.766 443.053 176.255 441.808 178.046 441.507Z" fill="#F13692"/>
<path d="M184.529 431.663C186.9 430.933 189.416 432.246 190.174 434.61C190.931 436.971 189.649 439.504 187.297 440.292C185.75 440.809 184.044 440.453 182.831 439.362C181.618 438.27 181.086 436.61 181.437 435.017C181.789 433.422 182.97 432.142 184.529 431.663Z" fill="#F13692"/>
<path d="M175.436 421.779C177.392 421.3 179.377 422.457 179.921 424.397C180.465 426.337 179.372 428.358 177.451 428.966C176.152 429.376 174.733 429.045 173.748 428.104C172.764 427.163 172.37 425.759 172.722 424.443C173.073 423.125 174.113 422.104 175.436 421.779Z" fill="#F13692"/>
<path d="M157.324 435.707C159.153 435.122 161.109 436.134 161.687 437.967C162.265 439.797 161.246 441.75 159.413 442.322C157.589 442.891 155.648 441.879 155.073 440.057C154.498 438.232 155.504 436.29 157.324 435.707Z" fill="#F13692"/>
<path d="M333.795 312.267C333.94 312.697 334.15 313.236 334.235 313.668C335.665 313.887 336.355 313.849 337.788 313.813C338.067 314.776 338.28 315.523 338.48 316.505C339.18 317.238 339.847 317.145 341.02 317.375C334.549 317.427 322.412 315.887 323.626 325.613C324.471 332.356 328.546 342.134 332.307 347.844C332.758 348.582 333.551 349.983 334.076 350.588C336.639 354.054 338.805 356.814 341.745 360.024C340.553 360.759 339.968 361.088 338.898 362.032L338.731 362.004C336.579 363.722 332.909 365.755 330.439 367.246C328.924 368.122 327.48 368.981 325.902 369.736L323.052 371.246C314.54 375.741 302.605 381.087 293.342 383.71L291.342 384.274L291.14 384.266L288.222 385.215C287.762 378.214 286.846 370.444 286.201 363.38C282.683 362.021 277.884 359.63 274.41 358.01C275.906 357.632 277.312 357.006 278.748 356.426C292.603 349.699 296.881 339.253 301.62 325.624L301.817 324.866L303.056 320.943C303.283 320.614 303.647 320.442 304.022 320.187C305.239 320.135 310.236 318.77 311.754 318.379C319.154 316.538 326.503 314.5 333.795 312.267Z" fill="#D60572"/>
<path d="M333.795 312.267C333.94 312.697 334.15 313.236 334.235 313.668C335.665 313.887 336.355 313.849 337.788 313.813C338.067 314.776 338.28 315.523 338.48 316.505C339.18 317.238 339.847 317.145 341.02 317.375C334.55 317.427 322.412 315.887 323.626 325.613C324.471 332.356 328.546 342.134 332.307 347.844C332.758 348.582 333.551 349.983 334.076 350.588C336.639 354.054 338.805 356.814 341.745 360.024C340.553 360.759 339.968 361.088 338.898 362.032L338.731 362.004C336.579 363.722 332.909 365.755 330.439 367.246C328.924 368.122 327.48 368.981 325.902 369.736C325.571 365.432 324.884 361.572 324.717 357.124C326.881 355.46 329.069 353.95 331.303 352.391L329.618 349.896C327.4 351.554 325.169 353.192 322.923 354.809C318.063 351.499 310.457 347.286 305.242 344.38L304.73 328.666C304.47 327.21 304.815 326.135 304.262 324.956C303.204 324.474 303.19 324.702 301.817 324.866L303.056 320.943C303.283 320.614 303.647 320.442 304.022 320.187C305.239 320.135 310.236 318.77 311.754 318.379C319.154 316.538 326.503 314.5 333.795 312.267Z" fill="#D60572"/>
<path d="M333.795 312.267C333.94 312.697 334.15 313.236 334.235 313.668C335.666 313.887 336.355 313.849 337.788 313.813C338.067 314.776 338.28 315.523 338.48 316.505C339.18 317.238 339.847 317.145 341.021 317.375C334.55 317.427 322.412 315.887 323.626 325.613C324.471 332.356 328.546 342.134 332.307 347.844L329.476 349.989C324.709 342.213 318.629 329.823 320.415 320.513C315.941 321.405 309.943 323.635 305.455 323.826C304.719 323.421 304.859 323.221 304.454 322.212C304.495 321.265 304.331 321.118 304.022 320.187C305.239 320.135 310.236 318.77 311.754 318.379C319.155 316.538 326.503 314.5 333.795 312.267Z" fill="#F13692"/>
<path d="M334.076 350.588C336.639 354.054 338.805 356.815 341.745 360.024C340.553 360.76 339.968 361.088 338.898 362.032L338.731 362.004C336.549 359.608 332.936 355.083 331.426 352.399L334.076 350.588Z" fill="#F13692"/>
<path d="M303.056 320.943C303.283 320.614 303.647 320.442 304.022 320.188C304.331 321.118 304.495 321.265 304.454 322.212C304.484 324.904 305.077 325.684 304.73 328.666C304.47 327.21 304.815 326.135 304.262 324.956C303.204 324.475 303.19 324.702 301.817 324.866L303.056 320.943Z" fill="#F13692"/>
<path d="M301.62 325.624L301.817 324.866C303.19 324.702 303.204 324.475 304.262 324.956C304.815 326.135 304.47 327.21 304.73 328.666L305.242 344.38C310.457 347.286 318.063 351.499 322.923 354.809C325.169 353.192 330.092 349.52 332.31 347.862L334.097 350.543C331.862 352.103 326.881 355.46 324.717 357.124C324.884 361.572 325.571 365.432 325.902 369.736L323.052 371.246C322.77 370.018 321.714 358.721 321.681 357.178C316.318 354.473 308.999 349.581 304.104 347.384C299.017 352.224 294.075 357.687 289.135 362.74C289.762 368.412 290.918 378.66 291.14 384.266L288.222 385.215C287.762 378.214 286.846 370.444 286.201 363.38C282.683 362.021 277.884 359.63 274.41 358.01C275.906 357.633 277.312 357.006 278.748 356.426C292.603 349.699 296.881 339.253 301.62 325.624Z" fill="#F13692"/>
<path d="M301.621 325.624C302.359 326.959 302.099 341.757 302.28 344.662C297.247 349.74 291.799 355.222 287.005 360.519C284.478 359.367 281.084 357.857 278.748 356.426C292.603 349.699 296.881 339.253 301.621 325.624Z" fill="#D60572"/>
<path d="M373.971 317.826L374.515 317.892C375.596 318.073 376.673 318.259 377.751 318.453L378.106 318.601C376.914 319.265 376.602 320.352 375.812 321.703L372.111 320.896C372.981 320.436 373.648 318.765 373.971 317.826Z" fill="#F13692"/>
</svg>
