<svg width="32" height="32" viewBox="0 0 32 32" fill="none" xmlns="http://www.w3.org/2000/svg">
<path d="M6.82712 9.78097C7.55565 7.34196 9.02129 5.52443 11.2738 4.31043C13.6134 3.02862 16.3712 2.74617 18.9219 3.5271C21.2793 4.23414 23.2064 5.70357 24.3784 7.88285C24.6876 8.45025 24.9281 9.05247 25.0949 9.67678C25.8703 10.2403 26.4116 11.401 26.5504 12.3363C26.7068 13.3916 26.5096 14.5338 25.9906 15.4702C25.8373 15.7468 25.5847 15.9996 25.5277 16.2628L25.5394 16.2931C25.607 16.4665 25.7134 16.6713 25.7838 16.852C25.9431 17.261 26.2328 18.361 26.2293 18.7674C26.2554 18.842 26.2636 18.8444 26.3251 18.8989C27.0284 19.451 27.3036 20.2636 26.7362 21.0258C26.6197 20.9415 26.4836 20.9048 26.3578 20.8393C26.1 20.7047 25.8346 20.6054 25.5665 20.4941C25.4778 20.4648 25.4337 20.4505 25.3488 20.4086C25.124 20.3479 24.8696 20.2538 24.6419 20.1848C24.3074 20.0856 23.9703 19.9948 23.6314 19.9125L23.6091 19.9033C23.5418 19.8912 23.4744 19.8795 23.4069 19.8683L23.3729 19.8642C23.3527 19.9228 23.311 20.0273 23.2567 20.056C22.5273 19.9288 22.0577 19.8667 21.3135 19.8359C21.2401 19.8216 21.1984 19.8274 21.1547 19.7816C21.1422 19.7202 21.1289 19.6735 21.1114 19.6133C21.0219 19.6155 20.9788 19.6179 20.8894 19.6043C20.8841 19.5772 20.8709 19.5436 20.8619 19.5167C20.4061 19.6562 19.9468 19.7836 19.4843 19.8987C19.3894 19.9231 19.0771 20.0085 19.0011 20.0117C18.9776 20.0276 18.9549 20.0384 18.9407 20.0589L18.8633 20.3041L18.851 20.3515C18.5547 21.2033 18.2874 21.8562 17.4214 22.2766C17.3317 22.3129 17.2438 22.352 17.1503 22.3756C16.3914 22.6138 15.6685 22.6058 14.9027 22.4052C14.8036 22.3695 14.7046 22.333 14.6059 22.2961C13.8865 21.9603 13.5069 21.4222 13.2622 20.6787C13.2373 20.5765 13.1757 20.4041 13.143 20.2892L13.0919 20.0553L13.0779 20.0457C12.5315 19.9074 11.9852 19.7518 11.447 19.6174L10.8459 19.43C10.4287 19.31 9.99058 19.1487 9.58585 18.9921C9.37044 18.9087 9.16289 18.8086 8.94452 18.7264C8.88447 18.6929 8.82777 18.6689 8.76531 18.6414C8.06047 18.2789 7.61481 18.0201 7.06657 17.4266L6.92103 17.2554C6.70355 16.9425 6.52591 16.6036 6.39221 16.2466C6.3432 16.0567 6.15498 15.8564 6.04336 15.6859C5.95104 15.5429 5.86773 15.3943 5.79392 15.2409C4.93951 13.4674 5.27875 11.0679 6.82712 9.78097Z" fill="#FD74B8"/>
<path d="M13.0918 20.0553C13.9931 20.2706 14.8402 20.4344 15.7682 20.4558C16.7754 20.4789 17.7172 20.3296 18.6923 20.0914C18.7535 20.0765 18.8846 20.0346 18.9406 20.0589L18.8632 20.3041L18.8509 20.3515C18.5547 21.2033 18.2873 21.8562 17.4213 22.2766C17.3316 22.3129 17.2437 22.352 17.1502 22.3756C16.3913 22.6138 15.6684 22.6058 14.9026 22.4052C14.8035 22.3695 14.7046 22.3331 14.6058 22.2961C13.8864 21.9603 13.5068 21.4222 13.2621 20.6788C13.2372 20.5765 13.1756 20.4042 13.1429 20.2892L13.0918 20.0553Z" fill="#FD7FBC"/>
<path d="M25.019 17.239C25.2044 16.9983 25.4174 16.5529 25.5278 16.2627L25.5395 16.293C25.6072 16.4663 25.7135 16.6712 25.7839 16.8519C25.9432 17.2609 26.233 18.3609 26.2294 18.7673C26.2555 18.8419 26.2637 18.8443 26.3253 18.8988C27.0285 19.4509 27.3037 20.2635 26.7364 21.0257C26.6198 20.9414 26.4837 20.9047 26.3579 20.8392C26.1001 20.7046 25.8347 20.6053 25.5666 20.494C25.4779 20.4647 25.4338 20.4504 25.3489 20.4085C25.1241 20.3478 24.8697 20.2537 24.6421 20.1846C24.3075 20.0855 23.9704 19.9947 23.6315 19.9124L23.6093 19.9032C23.5419 19.8911 23.4746 19.8794 23.407 19.8681C23.4076 19.8669 23.4076 19.8656 23.4082 19.8644C23.4211 19.8384 23.4378 19.8134 23.4476 19.7861C23.4783 19.7004 23.1226 18.9357 23.0573 18.806C23.0161 18.7933 22.9079 18.8092 22.8397 18.806L22.8223 18.8049C22.8744 18.7875 23.1101 18.6705 23.1858 18.6377C23.8679 18.3176 24.3872 17.9603 24.8914 17.3996C24.9335 17.3457 24.9761 17.2922 25.019 17.239Z" fill="#F13692"/>
<path d="M24.8921 17.3997C25.0232 17.4583 25.22 17.5146 25.3619 17.5546C25.4713 17.7958 25.5774 18.0764 25.6735 18.3261C25.4836 18.7113 25.2437 19.266 25.0832 19.667C24.6073 19.6652 24.1315 19.6688 23.6557 19.6774C23.5669 19.4806 23.2713 18.7739 23.1865 18.6378C23.8686 18.3177 24.3879 17.9603 24.8921 17.3997Z" fill="#D60572"/>
<path d="M26.2291 18.7673C26.2553 18.8419 26.2635 18.8443 26.325 18.8988C27.0282 19.4509 27.3035 20.2635 26.7361 21.0257C26.6195 20.9414 26.4835 20.9047 26.3577 20.8392C26.0999 20.7046 25.8344 20.6053 25.5664 20.494C25.4777 20.4647 25.4336 20.4504 25.3486 20.4085L25.3609 20.383C25.4095 20.3476 25.4656 20.3006 25.5134 20.2625C25.8667 19.9692 26.0645 19.6922 26.1226 19.2316L26.1274 19.0941C26.1488 18.9713 26.0989 18.8607 26.176 18.7687L26.2291 18.7673Z" fill="#D60572"/>
<path d="M26.2291 18.7673C26.2553 18.8419 26.2635 18.8443 26.325 18.8988C26.4298 19.6093 26.0874 20.0721 25.5664 20.494C25.4777 20.4647 25.4336 20.4504 25.3486 20.4085L25.3609 20.383C25.4095 20.3476 25.4656 20.3006 25.5134 20.2625C25.8667 19.9692 26.0645 19.6922 26.1226 19.2316L26.1274 19.0941C26.1488 18.9713 26.0989 18.8607 26.176 18.7687L26.2291 18.7673Z" fill="#F13692"/>
<path d="M25.0195 17.239C25.205 16.9983 25.418 16.5529 25.5284 16.2627L25.54 16.293C25.6077 16.4663 25.714 16.6712 25.7845 16.8519C25.9438 17.2609 26.2335 18.3609 26.2299 18.7673L26.1768 18.7687C26.0997 18.8607 26.1496 18.9713 26.1282 19.0941C26.1228 18.7174 25.6874 17.9686 25.5701 17.5627C25.5062 17.3413 25.2288 17.3182 25.0195 17.239Z" fill="#D60572"/>
<path d="M25.7768 18.5688C25.8604 18.7486 26.0058 19.091 26.1234 19.2318C26.0653 19.6924 25.8675 19.9694 25.5142 20.2627C25.4274 20.1216 25.3286 19.9145 25.251 19.7634L25.7768 18.5688Z" fill="#D60572"/>
<path d="M23.6094 19.9034C23.6579 19.8533 23.6622 19.859 23.749 19.8574C24.1926 19.8497 24.6475 19.868 25.0899 19.8562C25.155 19.9775 25.3006 20.2919 25.3613 20.3832L25.349 20.4087C25.1242 20.348 24.8699 20.2539 24.6422 20.1849C24.3076 20.0857 23.9706 19.9949 23.6316 19.9127L23.6094 19.9034Z" fill="#D60572"/>
<path d="M22.8226 18.805L22.84 18.806C22.9082 18.8092 23.0164 18.7933 23.0576 18.806C23.1229 18.9358 23.4786 19.7004 23.4479 19.7861C23.4381 19.8135 23.4214 19.8384 23.4086 19.8644C23.4079 19.8656 23.4079 19.867 23.4074 19.8682L23.3734 19.8641C23.3532 19.9227 23.3115 20.0272 23.2571 20.0559C22.5277 19.9287 22.0582 19.8666 21.3139 19.8359C21.2406 19.8215 21.1989 19.8273 21.1551 19.7815C21.1426 19.7201 21.1293 19.6734 21.1119 19.6132C21.0223 19.6155 20.9792 19.6178 20.8898 19.6042C20.8845 19.5771 20.8714 19.5435 20.8623 19.5166C20.8979 19.5105 21.0495 19.4592 21.0924 19.4457C21.657 19.2748 22.2818 19.032 22.8226 18.805Z" fill="#D60572"/>
<path d="M21.1113 19.6133C21.7761 19.615 22.7238 19.7007 23.3728 19.8641C23.3526 19.9228 23.3109 20.0272 23.2566 20.056C22.5272 19.9288 22.0576 19.8667 21.3134 19.8359C21.24 19.8215 21.1983 19.8274 21.1546 19.7815C21.1421 19.7201 21.1288 19.6735 21.1113 19.6133Z" fill="#F13692"/>
<path d="M20.8623 19.5168C20.8979 19.5106 21.0495 19.4593 21.0924 19.4458C21.0938 19.5304 21.1081 19.532 21.0702 19.5891C20.9953 19.6081 20.962 19.5954 20.8898 19.6043C20.8845 19.5773 20.8714 19.5436 20.8623 19.5168Z" fill="#F13692"/>
<path d="M9.18253 10.0672C10.9257 9.95239 12.43 11.2771 12.5372 13.0213C12.6443 14.7655 11.3134 16.2645 9.56927 16.3638C7.83598 16.4628 6.34884 15.1415 6.24236 13.4081C6.13591 11.6748 7.45016 10.1814 9.18253 10.0672Z" fill="#FEFEFE"/>
<path d="M9.42978 10.7434C10.7947 10.762 11.8863 11.8837 11.8681 13.2491C11.8499 14.6145 10.7289 15.7067 9.36392 15.6889C7.99835 15.6712 6.90586 14.5492 6.92405 13.1832C6.94226 11.8172 8.06423 10.7248 9.42978 10.7434Z" fill="black"/>
<path d="M8.33182 11.5888C8.75049 11.5354 9.13416 11.829 9.1921 12.2472C9.25007 12.6654 8.96071 13.0523 8.54328 13.1148C8.26922 13.1558 7.99425 13.0464 7.82327 12.8283C7.65228 12.6101 7.61163 12.3169 7.71686 12.0604C7.82207 11.804 8.05692 11.6239 8.33182 11.5888Z" fill="#FEFEFE"/>
<path d="M22.2976 10.0852C24.0298 9.93188 25.5582 11.2124 25.7111 12.9452C25.864 14.6779 24.5835 16.2065 22.8512 16.3592C21.1196 16.5117 19.592 15.2313 19.4392 13.499C19.2862 11.7668 20.566 10.2385 22.2976 10.0852Z" fill="#FEFEFE"/>
<path d="M22.5181 10.7495C23.8806 10.7219 25.0085 11.8029 25.0391 13.1659C25.0697 14.5289 23.9914 15.6593 22.6289 15.6928C21.2622 15.7263 20.1279 14.6438 20.0973 13.2767C20.0667 11.9096 21.1513 10.7773 22.5181 10.7495Z" fill="black"/>
<path d="M21.4916 11.595C21.9118 11.537 22.2998 11.8302 22.3588 12.2505C22.4177 12.6707 22.1254 13.0594 21.7055 13.1194C21.2841 13.1797 20.8939 12.8862 20.8347 12.4645C20.7756 12.0428 21.0699 11.6531 21.4916 11.595Z" fill="#FEFEFE"/>
<path d="M15.8353 3.84204C16.2823 3.8017 16.842 3.92233 17.1874 4.21315C17.796 4.72551 17.5163 5.43993 16.8562 5.7078C16.5979 5.81264 16.4223 5.85824 16.1417 5.8758C15.7259 5.92491 15.1869 5.79154 14.8497 5.54247C14.4526 5.24909 14.3341 4.75049 14.6693 4.35714C14.9678 4.00683 15.3947 3.88478 15.8353 3.84204Z" fill="#F13692"/>
<path d="M14.0263 6.09556C14.5415 6.05777 15.2383 6.19786 15.3623 6.79926C15.3986 6.97853 15.3606 7.16485 15.2569 7.31553C15.0863 7.56686 14.7864 7.68612 14.5013 7.74621C13.0826 7.96136 12.4847 6.43598 14.0263 6.09556Z" fill="#F13692"/>
<path d="M17.4593 6.09649C17.9546 6.03796 18.6174 6.21794 18.7604 6.76226C18.8064 6.93836 18.7777 7.12566 18.6809 7.27986C18.5116 7.55532 18.2184 7.67749 17.9182 7.74546C17.5637 7.79698 17.2456 7.76251 16.9336 7.571C16.5678 7.34634 16.4212 6.90977 16.675 6.53906C16.8565 6.2738 17.1521 6.1523 17.4593 6.09649Z" fill="#F13692"/>
<path d="M14.4986 15.0859C14.807 15.049 14.8175 15.2461 14.916 15.4862C15.2649 16.3373 16.5778 16.3376 16.9982 15.5492C17.0744 15.4061 17.0669 15.2174 17.2127 15.1251C17.3597 15.0231 17.4911 15.0421 17.5739 15.2087C17.6576 15.385 17.5954 15.5308 17.5306 15.7009C17.3997 15.9824 17.2158 16.2096 16.9592 16.3853C16.5635 16.6505 16.078 16.7458 15.6115 16.6497C15.1768 16.5662 14.793 16.314 14.544 15.9479C14.4434 15.7969 14.2779 15.4712 14.3217 15.2849C14.3459 15.1813 14.4144 15.1372 14.4986 15.0859Z" fill="black"/>
<path d="M23.1616 16.7348C24.4145 16.7177 24.6945 17.8432 23.3248 17.9863C23.0304 18.0128 22.6864 17.9505 22.446 17.7648C22.2098 17.5822 22.1424 17.2652 22.3575 17.0339C22.5744 16.8003 22.8593 16.7574 23.1616 16.7348Z" fill="#FC95C7"/>
<path d="M8.64081 16.7345C9.9096 16.7218 10.0665 17.9257 8.68973 17.9835C7.32194 17.9454 7.28471 16.8154 8.64081 16.7345Z" fill="#FC95C7"/>
<path d="M12.91 4.50831C13.9202 4.39418 14.3034 5.56259 13.1188 5.80173C12.7236 5.82071 12.2065 5.71267 12.1377 5.24313C12.1159 5.0948 12.1555 4.94397 12.2475 4.82556C12.4102 4.61417 12.6586 4.53912 12.91 4.50831Z" fill="#F13692"/>
<path d="M18.9384 4.50802C19.3105 4.46354 19.8071 4.6649 19.8766 5.07267C19.9006 5.22044 19.8638 5.37163 19.7747 5.4919C19.6274 5.69373 19.405 5.76416 19.1719 5.80204C18.7678 5.82107 18.2432 5.70185 18.171 5.22557C18.1486 5.07773 18.1897 4.92735 18.284 4.8113C18.4459 4.60828 18.6926 4.53589 18.9384 4.50802Z" fill="#F13692"/>
<path d="M15.8833 7.9954C16.9376 7.94309 17.0884 9.08314 16.0453 9.19691C15.058 9.28114 14.8258 8.14462 15.8833 7.9954Z" fill="#F13692"/>
<path d="M20.5776 5.85759C21.3773 5.80091 21.6251 6.68307 20.7515 6.8621C20.4472 6.86873 20.0778 6.79382 20.0187 6.43425C19.9982 6.30991 20.0308 6.18268 20.1088 6.08362C20.2271 5.93266 20.3968 5.8808 20.5776 5.85759Z" fill="#F13692"/>
<path d="M11.2809 5.85912C11.5643 5.8307 11.9006 5.95687 11.9622 6.26605C11.9851 6.38381 11.959 6.50583 11.89 6.60398C11.7711 6.77671 11.6074 6.82322 11.417 6.8615C11.1095 6.86961 10.7364 6.77317 10.6967 6.4095C10.6843 6.29071 10.7202 6.17194 10.7962 6.07988C10.9214 5.92599 11.094 5.87849 11.2809 5.85912Z" fill="#F13692"/>
<path d="M6.39252 16.2466C6.52622 16.6036 6.70386 16.9425 6.92134 17.2554L7.06688 17.4266C7.61512 18.0201 8.06078 18.2789 8.76562 18.6414C8.82808 18.6689 8.88478 18.6929 8.94483 18.7264C9.1632 18.8086 9.37075 18.9087 9.58617 18.9921C9.99089 19.1487 10.429 19.31 10.8462 19.43L11.4474 19.6174C11.9855 19.7518 12.5319 19.9074 13.0782 20.0457C13.0505 20.122 13.0592 20.2046 13.0227 20.2639C12.8768 20.279 12.2952 20.0945 12.0734 20.0577C12.0851 20.7459 11.837 21.2784 11.4968 21.876C11.4413 21.8334 11.3659 21.7715 11.3095 21.7341L11.2058 21.8962C11.0223 22.1327 10.8887 22.3021 10.6831 22.5208L10.5347 22.6735L10.1595 22.996C9.95431 23.1589 9.74638 23.3185 9.53576 23.4744C8.65284 24.0776 7.71821 24.6653 6.73104 25.1261C5.47594 25.6899 3.78599 26.3807 2.40457 25.972C1.6024 25.6974 1.5751 24.9021 1.83118 24.2401C2.43737 22.6731 3.82053 21.804 5.27082 21.1343C5.23836 21.097 5.20327 21.0489 5.17258 21.0091C4.67053 20.2499 4.85845 19.4276 5.59185 18.901C5.68295 18.815 5.69426 18.8074 5.70722 18.6847C5.77628 18.0686 5.96937 17.3376 6.17155 16.752C6.22309 16.6027 6.32671 16.4215 6.38667 16.2625L6.39252 16.2466Z" fill="#FD74B8"/>
<path d="M6.39291 16.2466C6.52662 16.6036 6.70425 16.9425 6.92174 17.2554L7.06727 17.4266C7.61551 18.0201 8.06118 18.2789 8.76602 18.6414C8.82848 18.6689 8.88518 18.6929 8.94522 18.7264L8.9382 18.7444C8.86765 18.9225 8.4478 19.6923 8.50506 19.8378C8.50799 19.8452 8.51171 19.8524 8.51503 19.8595C8.47879 19.8664 8.37028 19.8893 8.33963 19.8895L8.17247 19.9341C8.13025 20.0584 8.16424 20.0622 8.14959 20.1535C7.66623 20.2838 7.26828 20.3886 6.79422 20.5512L6.57033 20.6322C6.50086 20.5565 6.46411 20.5216 6.36626 20.4936C6.24247 20.5402 6.09924 20.5931 5.98068 20.6493C5.84062 20.7059 5.26617 20.9374 5.17298 21.0091C4.67092 20.2499 4.85885 19.4276 5.59225 18.901C5.68334 18.815 5.69466 18.8074 5.70761 18.6847C5.77667 18.0686 5.96976 17.3376 6.17194 16.752C6.22348 16.6027 6.3271 16.4215 6.38707 16.2625L6.39291 16.2466Z" fill="#F13692"/>
<path d="M7.06651 17.4265C7.61475 18.02 8.06041 18.2789 8.76525 18.6414C8.61007 18.9863 8.45182 19.3298 8.29051 19.6719C7.79334 19.6677 7.29616 19.6661 6.79899 19.6671C6.63949 19.3216 6.37459 18.6881 6.24805 18.3273C6.31969 18.0845 6.43575 17.794 6.5339 17.5607C6.65417 17.5397 6.93593 17.4587 7.06651 17.4265Z" fill="#D60572"/>
<path d="M5.70761 18.6846L5.71751 18.7612C5.76344 18.7884 5.7597 18.781 5.81758 18.787C5.78291 18.8992 5.79908 19.1415 5.80407 19.2664C5.8913 19.7228 6.02085 19.9369 6.38069 20.2397C6.44139 20.2941 6.48934 20.3343 6.55402 20.3837L6.61644 20.3977C6.69425 20.4469 6.74049 20.4748 6.79422 20.5511L6.57033 20.6321C6.50086 20.5564 6.46411 20.5215 6.36626 20.4935C6.24247 20.5401 6.09924 20.593 5.98068 20.6492C5.84062 20.7058 5.26617 20.9373 5.17298 21.009C4.67092 20.2498 4.85885 19.4275 5.59225 18.9009C5.68334 18.8149 5.69466 18.8073 5.70761 18.6846Z" fill="#D60572"/>
<path d="M5.70716 18.6846L5.71706 18.7612C5.76299 18.7884 5.75925 18.781 5.81712 18.787C5.78246 18.8992 5.79863 19.1415 5.80362 19.2664C5.89085 19.7228 6.0204 19.9369 6.38024 20.2397C6.44094 20.2941 6.48889 20.3343 6.55357 20.3837L6.61599 20.3977C6.6938 20.4469 6.74004 20.4748 6.79377 20.5511L6.56987 20.6321C6.50041 20.5564 6.46366 20.5215 6.36581 20.4935C5.72646 20.0691 5.59176 19.6286 5.5918 18.9009C5.68289 18.8149 5.6942 18.8073 5.70716 18.6846Z" fill="#F13692"/>
<path d="M6.39233 16.2466C6.52604 16.6036 6.70367 16.9425 6.92116 17.2554C6.77625 17.2935 6.51262 17.3554 6.38038 17.4019C6.24784 17.7097 5.9708 18.5547 5.81699 18.7871C5.75912 18.7811 5.76286 18.7885 5.71693 18.7613L5.70703 18.6847C5.77609 18.0686 5.96918 17.3376 6.17136 16.752C6.2229 16.6027 6.32652 16.4215 6.38648 16.2625L6.39233 16.2466Z" fill="#D60572"/>
<path d="M6.79654 19.8591C7.01534 19.8574 8.21355 19.8408 8.33932 19.8895L8.17217 19.9341C8.12994 20.0584 8.16393 20.0622 8.14928 20.1535C7.66592 20.2838 7.26797 20.3886 6.79391 20.5512C6.74018 20.475 6.69395 20.4471 6.61614 20.3978L6.55371 20.3838C6.59913 20.2306 6.72077 20.0063 6.79654 19.8591Z" fill="#D60572"/>
<path d="M6.61621 20.3978C6.96745 20.2644 7.81189 20.0088 8.17224 19.9341C8.13002 20.0584 8.164 20.0622 8.14935 20.1535C7.666 20.2838 7.26804 20.3886 6.79398 20.5512C6.74026 20.4749 6.69402 20.447 6.61621 20.3978Z" fill="#F13692"/>
<path d="M6.12929 18.6099C6.21568 18.7656 6.55817 19.5889 6.61579 19.7557C6.55638 19.8911 6.45975 20.1248 6.38033 20.2399C6.02049 19.9371 5.89094 19.723 5.80371 19.2666C5.93781 19.0799 6.00798 18.8222 6.12929 18.6099Z" fill="#D60572"/>
<path d="M8.94505 18.7263C9.16342 18.8086 9.37097 18.9086 9.58639 18.992C9.99111 19.1487 10.4292 19.3099 10.8465 19.4299L11.4476 19.6173C11.9857 19.7517 12.5321 19.9073 13.0785 20.0457C13.0507 20.1219 13.0595 20.2045 13.023 20.2638C12.877 20.2789 12.2954 20.0944 12.0736 20.0576C12.0853 20.7459 11.8373 21.2783 11.497 21.8759C11.4415 21.8333 11.3661 21.7714 11.3097 21.734C11.5301 21.3306 11.7411 20.9153 11.8297 20.46C11.8681 20.2628 11.8618 20.1354 11.7527 19.9653C11.3231 19.7004 9.71955 19.8713 9.20021 19.9496C8.84781 20.006 8.49735 20.074 8.14941 20.1534C8.16406 20.0621 8.13008 20.0583 8.1723 19.934L8.33946 19.8894C8.37011 19.8892 8.47862 19.8663 8.51486 19.8595C8.51154 19.8523 8.50782 19.8451 8.50489 19.8377C8.44763 19.6922 8.86748 18.9224 8.93803 18.7443L8.94505 18.7263Z" fill="#F13692"/>
<path d="M8.94453 18.7263C9.1629 18.8086 9.37045 18.9086 9.58587 18.992C9.99059 19.1487 10.4287 19.3099 10.8459 19.4299C10.8722 19.507 10.8874 19.5098 10.8729 19.5766C10.7878 19.637 10.6182 19.5879 10.4602 19.6137C9.93061 19.6286 9.43756 19.6691 8.91686 19.776C8.80397 19.7991 8.62105 19.8265 8.51434 19.8595C8.51102 19.8523 8.5073 19.8451 8.50437 19.8377C8.44711 19.6922 8.86696 18.9224 8.93751 18.7443L8.94453 18.7263Z" fill="#D60572"/>
<path d="M10.8467 19.4299L11.4478 19.6173C11.3326 19.6247 11.177 19.6108 11.0571 19.6124C10.8585 19.6149 10.6596 19.6165 10.4609 19.6137C10.6189 19.5879 10.7885 19.637 10.8736 19.5766C10.8881 19.5098 10.873 19.507 10.8467 19.4299Z" fill="#F13692"/>
<path d="M5.17285 21.0092C5.26605 20.9375 5.84049 20.706 5.98056 20.6494C6.02811 20.7968 5.96346 20.7712 5.99206 20.8426C5.81056 20.9254 5.45879 21.0714 5.27109 21.1343C5.23863 21.0971 5.20353 21.049 5.17285 21.0092Z" fill="#F13692"/>
<path d="M6.36605 20.4937C6.46389 20.5217 6.50064 20.5566 6.57011 20.6323C6.38658 20.6978 6.17301 20.7847 5.99197 20.8426C5.96338 20.7712 6.02802 20.7968 5.98047 20.6494C6.09903 20.5932 6.24226 20.5403 6.36605 20.4937Z" fill="#F13692"/>
<path d="M4.80747 22.0045C5.18115 21.9428 5.53519 22.1922 5.60293 22.565C5.67068 22.9377 5.42708 23.296 5.05561 23.3698C4.80984 23.4187 4.55684 23.3312 4.39372 23.1409C4.23059 22.9507 4.18271 22.6872 4.26845 22.4516C4.3542 22.2162 4.56024 22.0452 4.80747 22.0045Z" fill="#F13692"/>
<path d="M4.92709 23.6596C5.26457 23.5915 5.59265 23.8119 5.65753 24.1501C5.72242 24.4883 5.49921 24.8146 5.16059 24.8765C4.82615 24.9375 4.50498 24.7176 4.4409 24.3837C4.37683 24.0497 4.59382 23.7266 4.92709 23.6596Z" fill="#F13692"/>
<path d="M3.43063 22.9838C3.76062 22.9134 4.08528 23.1235 4.15635 23.4535C4.22743 23.7834 4.01807 24.1086 3.6884 24.1804C3.35772 24.2524 3.03144 24.0422 2.96014 23.7112C2.88886 23.3803 3.09966 23.0544 3.43063 22.9838Z" fill="#F13692"/>
<path d="M2.5935 24.2335C2.87804 24.1574 3.17029 24.3269 3.24586 24.6116C3.32145 24.8963 3.15166 25.1885 2.86686 25.2636C2.58273 25.3385 2.29161 25.1692 2.21621 24.885C2.14081 24.601 2.30962 24.3095 2.5935 24.2335Z" fill="#F13692"/>
<path d="M6.19191 23.1167C6.46438 23.0803 6.7146 23.2722 6.75027 23.5449C6.78596 23.8174 6.59352 24.0673 6.32086 24.1023C6.0492 24.1372 5.80055 23.9455 5.765 23.6738C5.72946 23.4021 5.92041 23.153 6.19191 23.1167Z" fill="#F13692"/>
<path d="M6.14592 21.9156C6.36338 21.8634 6.58204 21.9971 6.63471 22.2146C6.68736 22.432 6.55411 22.651 6.33687 22.7042C6.11899 22.7573 5.89926 22.6236 5.84645 22.4056C5.79365 22.1874 5.92782 21.9681 6.14592 21.9156Z" fill="#F13692"/>
<path d="M3.83884 24.55C4.0427 24.517 4.23444 24.6564 4.26598 24.8605C4.29752 25.0647 4.15677 25.2553 3.95245 25.2854C3.75028 25.3152 3.562 25.1762 3.53078 24.9741C3.49957 24.7721 3.63712 24.5827 3.83884 24.55Z" fill="#F13692"/>
<path d="M21.3141 19.836C22.0584 19.8668 22.5279 19.9289 23.2573 20.0561L23.4886 20.1066C23.538 20.0221 23.5575 19.9542 23.632 19.9127C23.971 19.9949 24.3081 20.0857 24.6426 20.1849C24.8703 20.2539 25.1246 20.348 25.3494 20.4087C25.4344 20.4506 25.4785 20.4649 25.5672 20.4942C25.8352 20.6055 26.1007 20.7048 26.3584 20.8394C26.4843 20.9049 26.6203 20.9417 26.7369 21.026L26.6559 21.1441C26.9921 21.2703 27.388 21.4791 27.7018 21.6536C28.6926 22.2047 29.5763 22.8948 30.0448 23.9635C30.2313 24.3889 30.3742 24.8662 30.2086 25.3275C30.109 25.6055 29.8816 25.8177 29.6136 25.9313C28.6129 26.3551 26.9343 25.8003 25.9708 25.4318C24.6799 24.938 23.533 24.2457 22.4208 23.4547L22.2674 23.5593C22.1982 23.4899 22.0115 23.3639 21.9199 23.2919C21.7172 23.1337 21.5256 22.962 21.3461 22.7779L21.4145 22.711C21.4683 22.6986 21.4625 22.6945 21.5075 22.6567L21.3594 22.5016C21.1757 22.301 21.0403 22.1285 20.8801 21.9118C20.8473 21.8741 20.7977 21.7865 20.7695 21.7403C20.5345 21.3835 20.2798 20.7724 20.227 20.3509C20.1511 19.743 20.9097 19.8393 21.3141 19.836Z" fill="#FD74B8"/>
<path d="M23.4883 20.1065C23.5377 20.022 23.5572 19.9541 23.6317 19.9126C23.9707 19.9948 24.3077 20.0856 24.6423 20.1848C24.87 20.2539 25.1243 20.3479 25.3491 20.4086C25.434 20.4505 25.4781 20.4649 25.5669 20.4941C25.8349 20.6054 26.1004 20.7048 26.3581 20.8394C26.4839 20.9048 26.62 20.9416 26.7366 21.0259L26.6556 21.1441C26.5884 21.1312 26.3728 21.0386 26.3 21.0098C26.0557 20.9136 25.8144 20.8117 25.5672 20.7209C24.8888 20.47 24.1942 20.2648 23.4883 20.1065Z" fill="#F13692"/>
<path d="M21.5071 22.6565C21.8301 22.962 22.077 23.1725 22.4204 23.4545L22.267 23.5591C22.1978 23.4897 22.0112 23.3637 21.9195 23.2917C21.7168 23.1336 21.5252 22.9619 21.3457 22.7777L21.4141 22.7109C21.4679 22.6984 21.4621 22.6943 21.5071 22.6565Z" fill="#F13692"/>
<path d="M26.9274 22.001C27.3062 21.9498 27.6554 22.2138 27.7096 22.5922C27.764 22.9708 27.5029 23.3222 27.125 23.3796C26.7426 23.4378 26.3862 23.1729 26.3314 22.7899C26.2765 22.4069 26.5442 22.0526 26.9274 22.001Z" fill="#F13692"/>
<path d="M26.8083 23.6549C27.1466 23.6007 27.4647 23.8307 27.5193 24.1689C27.574 24.5071 27.3442 24.8255 27.0063 24.8805C26.6677 24.9354 26.3489 24.7054 26.2942 24.3667C26.2395 24.0282 26.4699 23.7093 26.8083 23.6549Z" fill="#F13692"/>
<path d="M28.2575 22.9857C28.4713 22.9377 28.6944 23.0086 28.8416 23.1711C28.9888 23.3337 29.037 23.5628 28.9681 23.7709C28.899 23.9792 28.7235 24.1339 28.5084 24.1765C28.1818 24.241 27.864 24.0308 27.7954 23.7049C27.7267 23.3792 27.9325 23.0586 28.2575 22.9857Z" fill="#F13692"/>
<path d="M29.0933 24.234C29.2794 24.1844 29.4777 24.2395 29.6119 24.3778C29.7459 24.5163 29.7946 24.7163 29.739 24.901C29.6837 25.0855 29.5327 25.2255 29.3447 25.2671C29.0623 25.3295 28.782 25.1548 28.7134 24.8736C28.6451 24.5927 28.8138 24.3085 29.0933 24.234Z" fill="#F13692"/>
<path d="M25.6314 23.116C25.9037 23.0817 26.1524 23.2745 26.1869 23.5471C26.2214 23.8195 26.0284 24.0684 25.7561 24.103C25.4837 24.1375 25.2348 23.9445 25.2002 23.6719C25.1659 23.3994 25.3589 23.1504 25.6314 23.116Z" fill="#F13692"/>
<path d="M25.6104 21.9154C25.8285 21.8711 26.0415 22.0115 26.0865 22.2295C26.1316 22.4475 25.9918 22.6609 25.774 22.7067C25.5552 22.7527 25.3407 22.6122 25.2956 22.3931C25.2503 22.1741 25.3915 21.96 25.6104 21.9154Z" fill="#F13692"/>
<path d="M27.9704 24.5509C28.1017 24.5198 28.2396 24.5617 28.3312 24.6607C28.423 24.7595 28.4545 24.9002 28.4136 25.0288C28.3726 25.1574 28.2656 25.254 28.1336 25.2817C27.9331 25.3236 27.7364 25.1967 27.6917 24.9968C27.647 24.7969 27.7712 24.5982 27.9704 24.5509Z" fill="#F13692"/>
<path d="M13.0786 20.0457L13.0926 20.0552L13.1437 20.2891C13.1764 20.404 13.2379 20.5764 13.2628 20.6787C13.5076 21.4221 13.8872 21.9602 14.6066 22.296C14.7053 22.333 14.8043 22.3694 14.9034 22.4051C15.6692 22.6057 16.3921 22.6137 17.151 22.3755C17.3681 22.4768 17.6681 22.6262 17.8879 22.7112C17.9283 23.1527 17.9855 23.6383 18.0142 24.0758L18.1966 24.0165L18.2093 24.017L18.3342 23.9818L18.3725 24.0021C18.3818 24.0579 18.3896 24.1258 18.4074 24.1776L18.258 24.2296L18.2371 24.2526C18.2554 24.4539 18.5255 24.8861 18.5035 25.1139L18.359 25.144C17.0071 25.5009 14.9978 25.4966 13.6432 25.1479L13.4758 25.1047L13.4807 25.0559L13.4749 25.0238C13.4461 25.0012 12.6599 24.7865 12.5479 24.749C11.8332 24.5117 11.1398 24.2143 10.4752 23.8601C10.4172 23.9278 10.4192 23.9455 10.3443 23.9697C10.1056 23.8365 9.9213 23.7286 9.69321 23.5791L9.53613 23.4743C9.74676 23.3184 9.95469 23.1588 10.1598 22.9959L10.5351 22.6734L10.6835 22.5207C10.8891 22.302 11.0227 22.1326 11.2062 21.8961L11.3099 21.734C11.3663 21.7714 11.4417 21.8333 11.4972 21.8759C11.8374 21.2783 12.0855 20.7459 12.0737 20.0576C12.2956 20.0944 12.8772 20.2789 13.0231 20.2638C13.0596 20.2045 13.0509 20.1219 13.0786 20.0457Z" fill="#D60572"/>
<path d="M13.0787 20.0457L13.0926 20.0552L13.1438 20.2891C13.1765 20.404 13.238 20.5764 13.2629 20.6787C13.5076 21.4221 13.8873 21.9602 14.6067 22.296C14.7054 22.333 14.8043 22.3694 14.9034 22.4051C14.6691 22.5004 14.4357 22.5922 14.2046 22.6955C14.1926 22.8278 14.1023 24.0365 14.0693 24.0687C14.067 24.0707 14.0642 24.0724 14.0617 24.0743L13.8962 24.0319C13.3159 23.8845 12.492 23.5417 11.9604 23.2686L11.7715 23.1763C11.51 23.0357 11.1046 22.8232 10.8687 22.651C10.8063 22.6086 10.7446 22.5652 10.6836 22.5207C10.8892 22.302 11.0228 22.1326 11.2062 21.8961L11.31 21.734C11.3663 21.7714 11.4417 21.8333 11.4972 21.8759C11.8375 21.2783 12.0855 20.7459 12.0738 20.0576C12.2957 20.0944 12.8772 20.2789 13.0232 20.2638C13.0597 20.2045 13.0509 20.1219 13.0787 20.0457Z" fill="#D60572"/>
<path d="M13.0787 20.0457L13.0926 20.0552L13.1438 20.2891C13.0658 20.3608 13.0498 20.2541 13.049 20.3794C13.0467 20.7631 13.0329 21.1468 13.0165 21.5302C12.6629 21.7468 12.3106 21.9655 11.9597 22.1864C11.7995 22.0777 11.6498 21.977 11.4845 21.8754C11.446 21.9257 11.4128 21.9677 11.3793 22.0214C11.5409 22.125 11.701 22.2311 11.8594 22.3396C11.8333 22.6189 11.804 22.8977 11.7715 23.1763C11.51 23.0357 11.1046 22.8232 10.8687 22.651C10.8063 22.6086 10.7446 22.5652 10.6836 22.5207C10.8892 22.302 11.0228 22.1326 11.2062 21.8961L11.31 21.734C11.3663 21.7714 11.4417 21.8333 11.4972 21.8759C11.8375 21.2783 12.0855 20.7459 12.0738 20.0576C12.2957 20.0944 12.8772 20.2789 13.0232 20.2638C13.0597 20.2045 13.0509 20.1219 13.0787 20.0457Z" fill="#D60572"/>
<path d="M11.2062 21.8962C11.2627 21.9359 11.3244 21.9745 11.3814 22.0129C11.283 22.176 11.0077 22.5034 10.8687 22.6511C10.8063 22.6087 10.7446 22.5653 10.6836 22.5209C10.8892 22.3022 11.0228 22.1327 11.2062 21.8962Z" fill="#F13692"/>
<path d="M13.1437 20.2893C13.1764 20.4042 13.2379 20.5766 13.2628 20.6788C13.5075 21.4223 13.8872 21.9604 14.6066 22.2962C14.7053 22.3331 14.8042 22.3695 14.9033 22.4053C14.669 22.5005 14.4356 22.5923 14.2045 22.6956C14.1925 22.828 14.1022 24.0367 14.0692 24.0688C14.0669 24.0709 14.0641 24.0726 14.0616 24.0745L13.8961 24.0321C13.9114 23.6947 13.9718 22.9928 14.0212 22.671C13.7108 22.3541 13.4041 22.0335 13.1012 21.7094C12.789 21.9125 12.3751 22.1485 12.0494 22.3367C12.0192 22.6571 11.9752 22.9453 11.9603 23.2688L11.7714 23.1764C11.8039 22.8979 11.8332 22.619 11.8593 22.3398C11.7009 22.2312 11.3677 22.0003 11.2061 21.8967C11.2396 21.843 11.2718 21.7855 11.3103 21.7352C11.4756 21.8367 11.7993 22.0778 11.9596 22.1866C12.3105 21.9657 12.6628 21.747 13.0164 21.5303C13.0328 21.147 13.0465 20.7633 13.0489 20.3796C13.0493 20.3109 13.0628 20.0457 13.08 20.0489C13.0926 20.0489 13.1437 20.2893 13.1437 20.2893Z" fill="#F13692"/>
<path d="M13.2628 20.6787C13.5075 21.4222 13.8871 21.9603 14.6065 22.2961C14.5478 22.3479 14.2196 22.4804 14.1294 22.5187C13.8359 22.2323 13.4947 21.8491 13.2109 21.5449C13.2159 21.3926 13.2245 20.7721 13.2628 20.6787Z" fill="#D60572"/>
<path d="M17.1509 22.3757C17.368 22.477 17.668 22.6264 17.8878 22.7114C17.9282 23.1529 17.9854 23.6385 18.0141 24.076L17.7863 24.1196C16.4007 24.3616 15.4678 24.3995 14.0615 24.0745C14.0641 24.0726 14.0668 24.0709 14.0691 24.0689C14.1021 24.0367 14.1924 22.828 14.2045 22.6957C14.4356 22.5924 14.6689 22.5006 14.9033 22.4053C15.6691 22.6059 16.392 22.6139 17.1509 22.3757Z" fill="#D60572"/>
<path d="M10.5351 22.6736L10.679 22.7902C11.3399 23.2406 12.1188 23.6002 12.8579 23.9042C13.1918 24.0415 13.5423 24.1403 13.8863 24.2504C13.8015 24.4394 13.7214 24.6165 13.6253 24.7998C13.5901 24.867 13.5044 25.0011 13.4807 25.0561L13.4749 25.024C13.4461 25.0014 12.6599 24.7867 12.5479 24.7492C11.8332 24.5119 11.1398 24.2145 10.4752 23.8602C10.4172 23.928 10.4192 23.9457 10.3443 23.9698C10.1056 23.8366 9.9213 23.7287 9.69321 23.5793L9.53613 23.4745C9.74676 23.3185 9.95469 23.159 10.1598 22.9961L10.5351 22.6736Z" fill="#D60572"/>
<path d="M10.1598 22.9961C10.2179 23.0623 10.2451 23.0766 10.2824 23.1556C10.1351 23.2902 9.86071 23.4697 9.69321 23.5793L9.53613 23.4745C9.74676 23.3186 9.95469 23.159 10.1598 22.9961Z" fill="#F13692"/>
<path d="M10.5344 22.6736L10.6783 22.7902C10.5329 22.9501 10.4553 23.0291 10.2817 23.1556C10.2444 23.0766 10.2173 23.0622 10.1592 22.9961L10.5344 22.6736Z" fill="#F13692"/>
<path d="M10.6836 22.5208C10.7446 22.5652 10.8063 22.6086 10.8687 22.651C11.1047 22.8232 11.51 23.0358 11.7716 23.1763L11.9604 23.2687C12.492 23.5417 13.3159 23.8846 13.8962 24.0319L14.0617 24.0743C15.468 24.3994 16.4009 24.3614 17.7865 24.1195L18.0143 24.0759L18.1967 24.0166L18.2094 24.0171L18.3343 23.9818L18.3726 24.0022C18.3818 24.0579 18.3897 24.1258 18.4075 24.1776L18.2581 24.2296L18.2372 24.2527C18.2555 24.4539 18.5256 24.8862 18.5036 25.114L18.3591 25.144C18.3471 25.1045 18.2694 24.9467 18.247 24.8956C18.1567 24.6955 18.0762 24.4912 18.0058 24.2835L17.8593 24.3201C16.5576 24.5694 15.4102 24.5873 14.1027 24.3062C13.9499 24.6242 13.8532 24.8599 13.6433 25.148L13.4759 25.1047L13.4808 25.056C13.5045 25.0009 13.5902 24.8669 13.6254 24.7997C13.7215 24.6164 13.8016 24.4392 13.8864 24.2503C13.5424 24.1402 13.1919 24.0413 12.858 23.904C12.1188 23.6 11.34 23.2404 10.6791 22.7901L10.5352 22.6734L10.6836 22.5208Z" fill="#F13692"/>
<path d="M18.3339 23.9819L18.3722 24.0023C18.3815 24.058 18.3893 24.1259 18.4071 24.1777L18.2577 24.2297C18.211 24.1986 18.215 24.0756 18.209 24.0172L18.3339 23.9819Z" fill="#F13692"/>
<path d="M21.3586 22.5015L21.5067 22.6566C21.4617 22.6943 21.4675 22.6984 21.4137 22.7109L21.3453 22.7778C21.5248 22.9619 21.7164 23.1336 21.9191 23.2918C22.0108 23.3638 22.1974 23.4898 22.2667 23.5592C22.0479 23.7227 21.8506 23.83 21.6157 23.9661C21.6976 24.0303 21.8183 24.2683 21.872 24.3712C22.4602 25.5003 23.0885 27.3218 22.2747 28.4602C21.7699 29.1662 20.6527 28.9145 20.1144 28.407C19.3761 27.7723 18.9173 26.8748 18.6558 25.9488C18.5919 25.7224 18.5252 25.4604 18.5151 25.2263L18.5026 25.114C18.5247 24.8862 18.2546 24.454 18.2363 24.2527L18.2572 24.2296L18.4066 24.1777C18.3888 24.1258 18.3809 24.058 18.3717 24.0022L18.3334 23.9819C18.9124 23.8179 19.6583 23.4838 20.1903 23.2029L20.3684 23.1085C20.467 23.0613 20.5573 23.0076 20.652 22.9529C20.8063 22.8597 21.0357 22.7326 21.1703 22.6253L21.1807 22.627C21.2475 22.568 21.2841 22.5475 21.3586 22.5015Z" fill="#FD74B8"/>
<path d="M21.3586 22.5015L21.5067 22.6566C21.4617 22.6943 21.4675 22.6984 21.4137 22.7109L21.3453 22.7778C21.5248 22.9619 21.7164 23.1336 21.9191 23.2918C22.0108 23.3638 22.1974 23.4898 22.2667 23.5592C22.0479 23.7227 21.8506 23.83 21.6157 23.9661C21.5539 23.9379 21.5409 23.9118 21.4966 23.8567C20.5339 24.3329 19.5929 24.7539 18.5372 24.9837C18.5073 24.9902 18.5146 25.1986 18.5151 25.2263L18.5026 25.114C18.5247 24.8862 18.2546 24.454 18.2363 24.2527L18.2572 24.2296L18.4066 24.1777C18.3888 24.1258 18.3809 24.058 18.3717 24.0022L18.3334 23.9819C18.9124 23.8179 19.6583 23.4838 20.1903 23.2029L20.3684 23.1085C20.467 23.0613 20.5573 23.0076 20.652 22.9529C20.8063 22.8597 21.0357 22.7326 21.1703 22.6253L21.1807 22.627C21.2475 22.568 21.2841 22.5475 21.3586 22.5015Z" fill="#D60572"/>
<path d="M21.3592 22.5015L21.5072 22.6566C21.4623 22.6943 21.4681 22.6984 21.4142 22.7109L21.3459 22.7778C21.1534 22.8804 20.9871 23.0107 20.7895 23.1138C20.037 23.5554 19.2381 23.9123 18.4071 24.1777C18.3894 24.1258 18.3815 24.058 18.3723 24.0022L18.334 23.9819C18.9129 23.8179 19.6589 23.4838 20.1909 23.2029L20.369 23.1085C20.4676 23.0613 20.5579 23.0076 20.6526 22.9529C20.8069 22.8597 21.0363 22.7326 21.1708 22.6253L21.1813 22.627C21.2481 22.568 21.2847 22.5475 21.3592 22.5015Z" fill="#F13692"/>
<path d="M21.3586 22.5015L21.5066 22.6566C21.4617 22.6943 21.4675 22.6984 21.4136 22.7109C21.3719 22.7297 21.3694 22.7321 21.3249 22.7402C21.2523 22.6839 21.2485 22.7056 21.1807 22.627C21.2475 22.568 21.2841 22.5475 21.3586 22.5015Z" fill="#F13692"/>
<path d="M21.6507 26.3989C21.8488 26.3485 22.0502 26.469 22.0992 26.6676C22.1483 26.8661 22.0264 27.0666 21.8276 27.1143C21.6307 27.1617 21.4326 27.0412 21.3839 26.8445C21.3353 26.6479 21.4545 26.4489 21.6507 26.3989Z" fill="#F13692"/>
<path d="M21.4891 27.6128C21.6799 27.5617 21.876 27.6754 21.9264 27.8664C21.9768 28.0574 21.8625 28.2532 21.6712 28.3028C21.4811 28.3523 21.2867 28.2386 21.2365 28.0487C21.1864 27.8585 21.2992 27.6638 21.4891 27.6128Z" fill="#F13692"/>
<path d="M21.107 26.9395C21.2981 26.9356 21.4562 27.0867 21.4612 27.2776C21.466 27.4686 21.3155 27.6276 21.1246 27.6332C20.9326 27.6389 20.7725 27.4874 20.7677 27.2952C20.7627 27.1032 20.915 26.9436 21.107 26.9395Z" fill="#F13692"/>
<path d="M20.66 27.5901C20.8186 27.5606 20.9726 27.6606 21.0103 27.8177C21.0479 27.9747 20.9557 28.1337 20.8009 28.1792C20.6933 28.2108 20.5773 28.1806 20.4988 28.1005C20.4204 28.0205 20.3925 27.9037 20.4262 27.797C20.46 27.6902 20.5498 27.6105 20.66 27.5901Z" fill="#F13692"/>
<path d="M20.2111 26.9777C20.3559 26.9315 20.5111 27.0091 20.5612 27.1526C20.6113 27.296 20.5381 27.4534 20.3961 27.5074C20.3007 27.5438 20.193 27.5253 20.1151 27.4593C20.0371 27.3935 20.0011 27.2902 20.0211 27.1902C20.0411 27.09 20.1139 27.0086 20.2111 26.9777Z" fill="#F13692"/>
<path d="M20.8403 26.3618C20.9644 26.3259 21.0942 26.3975 21.1301 26.5217C21.1661 26.646 21.0945 26.7758 20.9704 26.8118C20.8461 26.8478 20.7162 26.7763 20.6802 26.652C20.6443 26.5277 20.7159 26.3977 20.8403 26.3618Z" fill="#F13692"/>
<path d="M21.933 27.2333C22.0455 27.1896 22.1725 27.2443 22.218 27.3561C22.2636 27.4679 22.2111 27.5957 22.1 27.6432C22.0265 27.6745 21.9419 27.6639 21.8785 27.6152C21.8151 27.5666 21.7829 27.4874 21.7942 27.4084C21.8055 27.3293 21.8585 27.2624 21.933 27.2333Z" fill="#F13692"/>
<path d="M10.3438 23.9697C10.4187 23.9456 10.4168 23.9278 10.4747 23.8601C11.1393 24.2144 11.8327 24.5117 12.5474 24.7491C12.6595 24.7865 13.4457 25.0013 13.4744 25.0238L13.4802 25.056L13.4753 25.1047C13.4384 25.2135 13.3815 25.572 13.3397 25.7271C13.0566 26.7638 12.4573 28.1379 11.4665 28.649C9.48697 29.6703 8.91789 27.4197 9.4294 25.94C9.57115 25.53 10.0448 24.1376 10.3438 23.9697Z" fill="#FD74B8"/>
<path d="M10.0817 26.4017C10.2761 26.3507 10.4751 26.4665 10.5271 26.6607C10.5792 26.8548 10.4647 27.0547 10.2709 27.1078C10.0754 27.1615 9.87361 27.0458 9.82114 26.85C9.76868 26.654 9.8856 26.453 10.0817 26.4017Z" fill="#F13692"/>
<path d="M10.2197 27.6134C10.4075 27.5566 10.6058 27.6632 10.6624 27.8511C10.7191 28.039 10.6127 28.2373 10.4248 28.2939C10.2369 28.3505 10.0387 28.2442 9.98202 28.0563C9.92537 27.8684 10.0318 27.67 10.2197 27.6134Z" fill="#F13692"/>
<path d="M10.7567 26.9397C10.9423 26.9187 11.1108 27.0493 11.1367 27.2343C11.1625 27.4193 11.0363 27.5914 10.8521 27.622C10.7286 27.6425 10.6037 27.5943 10.5259 27.4963C10.448 27.3983 10.4295 27.2656 10.4775 27.15C10.5255 27.0344 10.6324 26.9539 10.7567 26.9397Z" fill="#F13692"/>
<path d="M11.1278 27.5942C11.296 27.566 11.4559 27.6775 11.4876 27.8452C11.5192 28.0128 11.4111 28.1751 11.2441 28.2101C11.133 28.2335 11.018 28.1951 10.9434 28.1094C10.8688 28.0239 10.8463 27.9046 10.8846 27.7977C10.9228 27.6908 11.0158 27.613 11.1278 27.5942Z" fill="#F13692"/>
<path d="M11.5329 26.9789C11.6811 26.9333 11.8383 27.0153 11.8857 27.1631C11.9331 27.3106 11.8529 27.469 11.7059 27.5182C11.6092 27.5505 11.5026 27.5283 11.4268 27.4601C11.351 27.3919 11.3177 27.2881 11.3397 27.1886C11.3616 27.0889 11.4355 27.0088 11.5329 26.9789Z" fill="#F13692"/>
<path d="M10.9647 26.3612C11.0869 26.3313 11.211 26.4036 11.245 26.5249C11.279 26.6461 11.2107 26.7725 11.0906 26.8104C11.0094 26.8361 10.9207 26.8154 10.8592 26.7566C10.7976 26.6977 10.773 26.61 10.795 26.5278C10.817 26.4454 10.882 26.3816 10.9647 26.3612Z" fill="#F13692"/>
<path d="M9.83246 27.2316C9.94676 27.195 10.069 27.2582 10.1051 27.3728C10.1413 27.4872 10.0776 27.6093 9.963 27.645C9.84902 27.6806 9.72773 27.6173 9.69176 27.5034C9.6558 27.3894 9.71872 27.268 9.83246 27.2316Z" fill="#F13692"/>
<path d="M20.8619 19.5166C20.871 19.5434 20.8841 19.5771 20.8894 19.6041C20.9788 19.6178 21.0219 19.6154 21.1115 19.6132C21.1289 19.6734 21.1423 19.7201 21.1547 19.7815C21.1985 19.8273 21.2402 19.8215 21.3135 19.8358C20.9091 19.8391 20.1505 19.7428 20.2264 20.3507C20.2792 20.7722 20.5339 21.3833 20.7689 21.7401C20.7971 21.7863 20.8467 21.8738 20.8795 21.9116C21.0397 22.1283 21.1751 22.3008 21.3588 22.5014C21.2843 22.5474 21.2477 22.5679 21.1809 22.6269L21.1705 22.6252C21.0359 22.7325 20.8065 22.8596 20.6522 22.9528C20.5575 23.0075 20.4672 23.0612 20.3686 23.1084L20.1905 23.2028C19.6585 23.4837 18.9126 23.8178 18.3336 23.9818L18.2087 24.017L18.196 24.0165L18.0136 24.0758C17.9849 23.6383 17.9276 23.1527 17.8873 22.7112C17.6675 22.6262 17.3675 22.4767 17.1504 22.3755C17.2439 22.3519 17.3318 22.3128 17.4215 22.2765C18.2875 21.8561 18.5548 21.2032 18.851 20.3514L18.8633 20.304L18.9408 20.0588C18.955 20.0383 18.9777 20.0275 19.0011 20.0116C19.0772 20.0084 19.3895 19.923 19.4844 19.8986C19.9469 19.7835 20.4062 19.6561 20.8619 19.5166Z" fill="#D60572"/>
<path d="M20.8619 19.5166C20.8709 19.5434 20.8841 19.5771 20.8894 19.6041C20.9788 19.6178 21.0219 19.6154 21.1114 19.6132C21.1289 19.6734 21.1422 19.7201 21.1547 19.7815C21.1984 19.8273 21.2401 19.8215 21.3135 19.8358C20.909 19.8391 20.1504 19.7428 20.2263 20.3507C20.2791 20.7722 20.5338 21.3833 20.7689 21.7401C20.7971 21.7863 20.8467 21.8738 20.8795 21.9116C21.0396 22.1283 21.175 22.3008 21.3588 22.5014C21.2842 22.5474 21.2477 22.5679 21.1808 22.6269L21.1704 22.6252C21.0359 22.7325 20.8065 22.8596 20.6521 22.9528C20.5574 23.0075 20.4672 23.0612 20.3685 23.1084C20.3479 22.8394 20.305 22.5981 20.2945 22.3201C20.4297 22.2162 20.5665 22.1218 20.7061 22.0243L20.6008 21.8684C20.4622 21.972 20.3227 22.0744 20.1824 22.1755C19.8786 21.9686 19.4033 21.7052 19.0773 21.5237L19.0453 20.5415C19.0291 20.4505 19.0506 20.3833 19.0161 20.3096C18.9499 20.2795 18.9491 20.2937 18.8633 20.304L18.9407 20.0588C18.9549 20.0383 18.9776 20.0275 19.0011 20.0116C19.0771 20.0084 19.3894 19.923 19.4843 19.8986C19.9468 19.7835 20.4061 19.6561 20.8619 19.5166Z" fill="#D60572"/>
<path d="M20.8618 19.5166C20.8708 19.5434 20.884 19.5771 20.8893 19.6041C20.9787 19.6178 21.0218 19.6154 21.1114 19.6132C21.1288 19.6734 21.1421 19.7201 21.1546 19.7815C21.1984 19.8273 21.2401 19.8215 21.3134 19.8358C20.909 19.8391 20.1503 19.7428 20.2262 20.3507C20.2791 20.7722 20.5338 21.3833 20.7688 21.7401L20.5919 21.8742C20.2939 21.3882 19.9139 20.6138 20.0256 20.032C19.7459 20.0877 19.3711 20.2271 19.0905 20.239C19.0446 20.2137 19.0533 20.2012 19.028 20.1381C19.0305 20.079 19.0203 20.0697 19.001 20.0116C19.077 20.0084 19.3893 19.923 19.4842 19.8986C19.9468 19.7835 20.4061 19.6561 20.8618 19.5166Z" fill="#F13692"/>
<path d="M20.8795 21.9116C21.0397 22.1283 21.1751 22.3008 21.3588 22.5014C21.2843 22.5474 21.2477 22.5679 21.1809 22.6269L21.1704 22.6252C21.034 22.4754 20.8082 22.1926 20.7139 22.0248L20.8795 21.9116Z" fill="#F13692"/>
<path d="M18.9407 20.0589C18.9549 20.0384 18.9776 20.0276 19.0011 20.0117C19.0204 20.0699 19.0306 20.0791 19.0281 20.1383C19.0299 20.3065 19.067 20.3552 19.0453 20.5416C19.0291 20.4506 19.0506 20.3834 19.0161 20.3098C18.9499 20.2797 18.9491 20.2939 18.8633 20.3041L18.9407 20.0589Z" fill="#F13692"/>
<path d="M18.851 20.3516L18.8633 20.3042C18.9491 20.294 18.95 20.2798 19.0162 20.3099C19.0507 20.3836 19.0291 20.4508 19.0454 20.5417L19.0774 21.5239C19.4033 21.7055 19.8787 21.9688 20.1825 22.1757C20.3228 22.0746 20.6305 21.8451 20.7691 21.7415L20.8808 21.9091C20.7412 22.0065 20.4298 22.2164 20.2946 22.3203C20.305 22.5984 20.3479 22.8396 20.3686 23.1086L20.1905 23.203C20.1729 23.1262 20.1069 22.4202 20.1048 22.3238C19.7696 22.1547 19.3122 21.8489 19.0062 21.7116C18.6883 22.0141 18.3794 22.3556 18.0707 22.6714C18.1099 23.0258 18.1822 23.6664 18.196 24.0167L18.0136 24.076C17.9849 23.6385 17.9276 23.1529 17.8873 22.7114C17.6675 22.6264 17.3675 22.477 17.1504 22.3757C17.2439 22.3521 17.3318 22.313 17.4215 22.2767C18.2875 21.8563 18.5548 21.2034 18.851 20.3516Z" fill="#F13692"/>
<path d="M18.8514 20.3516C18.8976 20.435 18.8813 21.3599 18.8926 21.5415C18.5781 21.8588 18.2376 22.2015 17.9379 22.5325C17.78 22.4605 17.5679 22.3661 17.4219 22.2767C18.2878 21.8563 18.5552 21.2034 18.8514 20.3516Z" fill="#D60572"/>
<path d="M23.3731 19.8643L23.4071 19.8684C23.4746 19.8796 23.542 19.8913 23.6093 19.9034L23.6315 19.9126C23.557 19.9542 23.5375 20.0221 23.4881 20.1065L23.2568 20.0561C23.3112 20.0274 23.3529 19.9229 23.3731 19.8643Z" fill="#F13692"/>
</svg>
